<?xml version="1.0" encoding="utf-8" standalone="no"?>
<!DOCTYPE svg PUBLIC "-//W3C//DTD SVG 1.1//EN"
  "http://www.w3.org/Graphics/SVG/1.1/DTD/svg11.dtd">
<svg xmlns:xlink="http://www.w3.org/1999/xlink" width="864pt" height="432pt" viewBox="0 0 864 432" xmlns="http://www.w3.org/2000/svg" version="1.1">
 <metadata>
  <rdf:RDF xmlns:dc="http://purl.org/dc/elements/1.1/" xmlns:cc="http://creativecommons.org/ns#" xmlns:rdf="http://www.w3.org/1999/02/22-rdf-syntax-ns#">
   <cc:Work>
    <dc:type rdf:resource="http://purl.org/dc/dcmitype/StillImage"/>
    <dc:date>2024-03-25T10:27:52.465597</dc:date>
    <dc:format>image/svg+xml</dc:format>
    <dc:creator>
     <cc:Agent>
      <dc:title>Matplotlib v3.7.4, https://matplotlib.org/</dc:title>
     </cc:Agent>
    </dc:creator>
   </cc:Work>
  </rdf:RDF>
 </metadata>
 <defs>
  <style type="text/css">*{stroke-linejoin: round; stroke-linecap: butt}</style>
 </defs>
 <g id="figure_1">
  <g id="patch_1">
   <path d="M 0 432 
L 864 432 
L 864 0 
L 0 0 
z
" style="fill: #ffffff"/>
  </g>
  <g id="axes_1">
   <g id="patch_2">
    <path d="M 57.17 354.935877 
L 853.2 354.935877 
L 853.2 26.88 
L 57.17 26.88 
z
" style="fill: #ffffff"/>
   </g>
   <g id="matplotlib.axis_1">
    <g id="xtick_1">
     <g id="line2d_1">
      <defs>
       <path id="mcc4de93731" d="M 0 0 
L 0 3.5 
" style="stroke: #000000; stroke-width: 0.8"/>
      </defs>
      <g>
       <use xlink:href="#mcc4de93731" x="82.045938" y="354.935877" style="stroke: #000000; stroke-width: 0.8"/>
      </g>
     </g>
     <g id="text_1">
      <!-- Apple -->
      <g transform="translate(73.931887 387.43923) rotate(-45) scale(0.1 -0.1)">
       <defs>
        <path id="DejaVuSans-41" d="M 2188 4044 
L 1331 1722 
L 3047 1722 
L 2188 4044 
z
M 1831 4666 
L 2547 4666 
L 4325 0 
L 3669 0 
L 3244 1197 
L 1141 1197 
L 716 0 
L 50 0 
L 1831 4666 
z
" transform="scale(0.015625)"/>
        <path id="DejaVuSans-70" d="M 1159 525 
L 1159 -1331 
L 581 -1331 
L 581 3500 
L 1159 3500 
L 1159 2969 
Q 1341 3281 1617 3432 
Q 1894 3584 2278 3584 
Q 2916 3584 3314 3078 
Q 3713 2572 3713 1747 
Q 3713 922 3314 415 
Q 2916 -91 2278 -91 
Q 1894 -91 1617 61 
Q 1341 213 1159 525 
z
M 3116 1747 
Q 3116 2381 2855 2742 
Q 2594 3103 2138 3103 
Q 1681 3103 1420 2742 
Q 1159 2381 1159 1747 
Q 1159 1113 1420 752 
Q 1681 391 2138 391 
Q 2594 391 2855 752 
Q 3116 1113 3116 1747 
z
" transform="scale(0.015625)"/>
        <path id="DejaVuSans-6c" d="M 603 4863 
L 1178 4863 
L 1178 0 
L 603 0 
L 603 4863 
z
" transform="scale(0.015625)"/>
        <path id="DejaVuSans-65" d="M 3597 1894 
L 3597 1613 
L 953 1613 
Q 991 1019 1311 708 
Q 1631 397 2203 397 
Q 2534 397 2845 478 
Q 3156 559 3463 722 
L 3463 178 
Q 3153 47 2828 -22 
Q 2503 -91 2169 -91 
Q 1331 -91 842 396 
Q 353 884 353 1716 
Q 353 2575 817 3079 
Q 1281 3584 2069 3584 
Q 2775 3584 3186 3129 
Q 3597 2675 3597 1894 
z
M 3022 2063 
Q 3016 2534 2758 2815 
Q 2500 3097 2075 3097 
Q 1594 3097 1305 2825 
Q 1016 2553 972 2059 
L 3022 2063 
z
" transform="scale(0.015625)"/>
       </defs>
       <use xlink:href="#DejaVuSans-41"/>
       <use xlink:href="#DejaVuSans-70" x="68.408203"/>
       <use xlink:href="#DejaVuSans-70" x="131.884766"/>
       <use xlink:href="#DejaVuSans-6c" x="195.361328"/>
       <use xlink:href="#DejaVuSans-65" x="223.144531"/>
      </g>
     </g>
    </g>
    <g id="xtick_2">
     <g id="line2d_2">
      <g>
       <use xlink:href="#mcc4de93731" x="131.797813" y="354.935877" style="stroke: #000000; stroke-width: 0.8"/>
      </g>
     </g>
     <g id="text_2">
      <!-- Asus -->
      <g transform="translate(125.40623 383.994294) rotate(-45) scale(0.1 -0.1)">
       <defs>
        <path id="DejaVuSans-73" d="M 2834 3397 
L 2834 2853 
Q 2591 2978 2328 3040 
Q 2066 3103 1784 3103 
Q 1356 3103 1142 2972 
Q 928 2841 928 2578 
Q 928 2378 1081 2264 
Q 1234 2150 1697 2047 
L 1894 2003 
Q 2506 1872 2764 1633 
Q 3022 1394 3022 966 
Q 3022 478 2636 193 
Q 2250 -91 1575 -91 
Q 1294 -91 989 -36 
Q 684 19 347 128 
L 347 722 
Q 666 556 975 473 
Q 1284 391 1588 391 
Q 1994 391 2212 530 
Q 2431 669 2431 922 
Q 2431 1156 2273 1281 
Q 2116 1406 1581 1522 
L 1381 1569 
Q 847 1681 609 1914 
Q 372 2147 372 2553 
Q 372 3047 722 3315 
Q 1072 3584 1716 3584 
Q 2034 3584 2315 3537 
Q 2597 3491 2834 3397 
z
" transform="scale(0.015625)"/>
        <path id="DejaVuSans-75" d="M 544 1381 
L 544 3500 
L 1119 3500 
L 1119 1403 
Q 1119 906 1312 657 
Q 1506 409 1894 409 
Q 2359 409 2629 706 
Q 2900 1003 2900 1516 
L 2900 3500 
L 3475 3500 
L 3475 0 
L 2900 0 
L 2900 538 
Q 2691 219 2414 64 
Q 2138 -91 1772 -91 
Q 1169 -91 856 284 
Q 544 659 544 1381 
z
M 1991 3584 
L 1991 3584 
z
" transform="scale(0.015625)"/>
       </defs>
       <use xlink:href="#DejaVuSans-41"/>
       <use xlink:href="#DejaVuSans-73" x="68.408203"/>
       <use xlink:href="#DejaVuSans-75" x="120.507812"/>
       <use xlink:href="#DejaVuSans-73" x="183.886719"/>
      </g>
     </g>
    </g>
    <g id="xtick_3">
     <g id="line2d_3">
      <g>
       <use xlink:href="#mcc4de93731" x="181.549688" y="354.935877" style="stroke: #000000; stroke-width: 0.8"/>
      </g>
     </g>
     <g id="text_3">
      <!-- Blackberry -->
      <g transform="translate(164.577467 405.155569) rotate(-45) scale(0.1 -0.1)">
       <defs>
        <path id="DejaVuSans-42" d="M 1259 2228 
L 1259 519 
L 2272 519 
Q 2781 519 3026 730 
Q 3272 941 3272 1375 
Q 3272 1813 3026 2020 
Q 2781 2228 2272 2228 
L 1259 2228 
z
M 1259 4147 
L 1259 2741 
L 2194 2741 
Q 2656 2741 2882 2914 
Q 3109 3088 3109 3444 
Q 3109 3797 2882 3972 
Q 2656 4147 2194 4147 
L 1259 4147 
z
M 628 4666 
L 2241 4666 
Q 2963 4666 3353 4366 
Q 3744 4066 3744 3513 
Q 3744 3084 3544 2831 
Q 3344 2578 2956 2516 
Q 3422 2416 3680 2098 
Q 3938 1781 3938 1306 
Q 3938 681 3513 340 
Q 3088 0 2303 0 
L 628 0 
L 628 4666 
z
" transform="scale(0.015625)"/>
        <path id="DejaVuSans-61" d="M 2194 1759 
Q 1497 1759 1228 1600 
Q 959 1441 959 1056 
Q 959 750 1161 570 
Q 1363 391 1709 391 
Q 2188 391 2477 730 
Q 2766 1069 2766 1631 
L 2766 1759 
L 2194 1759 
z
M 3341 1997 
L 3341 0 
L 2766 0 
L 2766 531 
Q 2569 213 2275 61 
Q 1981 -91 1556 -91 
Q 1019 -91 701 211 
Q 384 513 384 1019 
Q 384 1609 779 1909 
Q 1175 2209 1959 2209 
L 2766 2209 
L 2766 2266 
Q 2766 2663 2505 2880 
Q 2244 3097 1772 3097 
Q 1472 3097 1187 3025 
Q 903 2953 641 2809 
L 641 3341 
Q 956 3463 1253 3523 
Q 1550 3584 1831 3584 
Q 2591 3584 2966 3190 
Q 3341 2797 3341 1997 
z
" transform="scale(0.015625)"/>
        <path id="DejaVuSans-63" d="M 3122 3366 
L 3122 2828 
Q 2878 2963 2633 3030 
Q 2388 3097 2138 3097 
Q 1578 3097 1268 2742 
Q 959 2388 959 1747 
Q 959 1106 1268 751 
Q 1578 397 2138 397 
Q 2388 397 2633 464 
Q 2878 531 3122 666 
L 3122 134 
Q 2881 22 2623 -34 
Q 2366 -91 2075 -91 
Q 1284 -91 818 406 
Q 353 903 353 1747 
Q 353 2603 823 3093 
Q 1294 3584 2113 3584 
Q 2378 3584 2631 3529 
Q 2884 3475 3122 3366 
z
" transform="scale(0.015625)"/>
        <path id="DejaVuSans-6b" d="M 581 4863 
L 1159 4863 
L 1159 1991 
L 2875 3500 
L 3609 3500 
L 1753 1863 
L 3688 0 
L 2938 0 
L 1159 1709 
L 1159 0 
L 581 0 
L 581 4863 
z
" transform="scale(0.015625)"/>
        <path id="DejaVuSans-62" d="M 3116 1747 
Q 3116 2381 2855 2742 
Q 2594 3103 2138 3103 
Q 1681 3103 1420 2742 
Q 1159 2381 1159 1747 
Q 1159 1113 1420 752 
Q 1681 391 2138 391 
Q 2594 391 2855 752 
Q 3116 1113 3116 1747 
z
M 1159 2969 
Q 1341 3281 1617 3432 
Q 1894 3584 2278 3584 
Q 2916 3584 3314 3078 
Q 3713 2572 3713 1747 
Q 3713 922 3314 415 
Q 2916 -91 2278 -91 
Q 1894 -91 1617 61 
Q 1341 213 1159 525 
L 1159 0 
L 581 0 
L 581 4863 
L 1159 4863 
L 1159 2969 
z
" transform="scale(0.015625)"/>
        <path id="DejaVuSans-72" d="M 2631 2963 
Q 2534 3019 2420 3045 
Q 2306 3072 2169 3072 
Q 1681 3072 1420 2755 
Q 1159 2438 1159 1844 
L 1159 0 
L 581 0 
L 581 3500 
L 1159 3500 
L 1159 2956 
Q 1341 3275 1631 3429 
Q 1922 3584 2338 3584 
Q 2397 3584 2469 3576 
Q 2541 3569 2628 3553 
L 2631 2963 
z
" transform="scale(0.015625)"/>
        <path id="DejaVuSans-79" d="M 2059 -325 
Q 1816 -950 1584 -1140 
Q 1353 -1331 966 -1331 
L 506 -1331 
L 506 -850 
L 844 -850 
Q 1081 -850 1212 -737 
Q 1344 -625 1503 -206 
L 1606 56 
L 191 3500 
L 800 3500 
L 1894 763 
L 2988 3500 
L 3597 3500 
L 2059 -325 
z
" transform="scale(0.015625)"/>
       </defs>
       <use xlink:href="#DejaVuSans-42"/>
       <use xlink:href="#DejaVuSans-6c" x="68.603516"/>
       <use xlink:href="#DejaVuSans-61" x="96.386719"/>
       <use xlink:href="#DejaVuSans-63" x="157.666016"/>
       <use xlink:href="#DejaVuSans-6b" x="212.646484"/>
       <use xlink:href="#DejaVuSans-62" x="270.556641"/>
       <use xlink:href="#DejaVuSans-65" x="334.033203"/>
       <use xlink:href="#DejaVuSans-72" x="395.556641"/>
       <use xlink:href="#DejaVuSans-72" x="434.919922"/>
       <use xlink:href="#DejaVuSans-79" x="476.033203"/>
      </g>
     </g>
    </g>
    <g id="xtick_4">
     <g id="line2d_4">
      <g>
       <use xlink:href="#mcc4de93731" x="231.301563" y="354.935877" style="stroke: #000000; stroke-width: 0.8"/>
      </g>
     </g>
     <g id="text_4">
      <!-- CAT -->
      <g transform="translate(226.479978 380.854298) rotate(-45) scale(0.1 -0.1)">
       <defs>
        <path id="DejaVuSans-43" d="M 4122 4306 
L 4122 3641 
Q 3803 3938 3442 4084 
Q 3081 4231 2675 4231 
Q 1875 4231 1450 3742 
Q 1025 3253 1025 2328 
Q 1025 1406 1450 917 
Q 1875 428 2675 428 
Q 3081 428 3442 575 
Q 3803 722 4122 1019 
L 4122 359 
Q 3791 134 3420 21 
Q 3050 -91 2638 -91 
Q 1578 -91 968 557 
Q 359 1206 359 2328 
Q 359 3453 968 4101 
Q 1578 4750 2638 4750 
Q 3056 4750 3426 4639 
Q 3797 4528 4122 4306 
z
" transform="scale(0.015625)"/>
        <path id="DejaVuSans-54" d="M -19 4666 
L 3928 4666 
L 3928 4134 
L 2272 4134 
L 2272 0 
L 1638 0 
L 1638 4134 
L -19 4134 
L -19 4666 
z
" transform="scale(0.015625)"/>
       </defs>
       <use xlink:href="#DejaVuSans-43"/>
       <use xlink:href="#DejaVuSans-41" x="69.824219"/>
       <use xlink:href="#DejaVuSans-54" x="130.482422"/>
      </g>
     </g>
    </g>
    <g id="xtick_5">
     <g id="line2d_5">
      <g>
       <use xlink:href="#mcc4de93731" x="281.053438" y="354.935877" style="stroke: #000000; stroke-width: 0.8"/>
      </g>
     </g>
     <g id="text_5">
      <!-- Google -->
      <g transform="translate(270.536329 392.245346) rotate(-45) scale(0.1 -0.1)">
       <defs>
        <path id="DejaVuSans-47" d="M 3809 666 
L 3809 1919 
L 2778 1919 
L 2778 2438 
L 4434 2438 
L 4434 434 
Q 4069 175 3628 42 
Q 3188 -91 2688 -91 
Q 1594 -91 976 548 
Q 359 1188 359 2328 
Q 359 3472 976 4111 
Q 1594 4750 2688 4750 
Q 3144 4750 3555 4637 
Q 3966 4525 4313 4306 
L 4313 3634 
Q 3963 3931 3569 4081 
Q 3175 4231 2741 4231 
Q 1884 4231 1454 3753 
Q 1025 3275 1025 2328 
Q 1025 1384 1454 906 
Q 1884 428 2741 428 
Q 3075 428 3337 486 
Q 3600 544 3809 666 
z
" transform="scale(0.015625)"/>
        <path id="DejaVuSans-6f" d="M 1959 3097 
Q 1497 3097 1228 2736 
Q 959 2375 959 1747 
Q 959 1119 1226 758 
Q 1494 397 1959 397 
Q 2419 397 2687 759 
Q 2956 1122 2956 1747 
Q 2956 2369 2687 2733 
Q 2419 3097 1959 3097 
z
M 1959 3584 
Q 2709 3584 3137 3096 
Q 3566 2609 3566 1747 
Q 3566 888 3137 398 
Q 2709 -91 1959 -91 
Q 1206 -91 779 398 
Q 353 888 353 1747 
Q 353 2609 779 3096 
Q 1206 3584 1959 3584 
z
" transform="scale(0.015625)"/>
        <path id="DejaVuSans-67" d="M 2906 1791 
Q 2906 2416 2648 2759 
Q 2391 3103 1925 3103 
Q 1463 3103 1205 2759 
Q 947 2416 947 1791 
Q 947 1169 1205 825 
Q 1463 481 1925 481 
Q 2391 481 2648 825 
Q 2906 1169 2906 1791 
z
M 3481 434 
Q 3481 -459 3084 -895 
Q 2688 -1331 1869 -1331 
Q 1566 -1331 1297 -1286 
Q 1028 -1241 775 -1147 
L 775 -588 
Q 1028 -725 1275 -790 
Q 1522 -856 1778 -856 
Q 2344 -856 2625 -561 
Q 2906 -266 2906 331 
L 2906 616 
Q 2728 306 2450 153 
Q 2172 0 1784 0 
Q 1141 0 747 490 
Q 353 981 353 1791 
Q 353 2603 747 3093 
Q 1141 3584 1784 3584 
Q 2172 3584 2450 3431 
Q 2728 3278 2906 2969 
L 2906 3500 
L 3481 3500 
L 3481 434 
z
" transform="scale(0.015625)"/>
       </defs>
       <use xlink:href="#DejaVuSans-47"/>
       <use xlink:href="#DejaVuSans-6f" x="77.490234"/>
       <use xlink:href="#DejaVuSans-6f" x="138.671875"/>
       <use xlink:href="#DejaVuSans-67" x="199.853516"/>
       <use xlink:href="#DejaVuSans-6c" x="263.330078"/>
       <use xlink:href="#DejaVuSans-65" x="291.113281"/>
      </g>
     </g>
    </g>
    <g id="xtick_6">
     <g id="line2d_6">
      <g>
       <use xlink:href="#mcc4de93731" x="330.805313" y="354.935877" style="stroke: #000000; stroke-width: 0.8"/>
      </g>
     </g>
     <g id="text_6">
      <!-- Huawei -->
      <g transform="translate(319.641312 393.53913) rotate(-45) scale(0.1 -0.1)">
       <defs>
        <path id="DejaVuSans-48" d="M 628 4666 
L 1259 4666 
L 1259 2753 
L 3553 2753 
L 3553 4666 
L 4184 4666 
L 4184 0 
L 3553 0 
L 3553 2222 
L 1259 2222 
L 1259 0 
L 628 0 
L 628 4666 
z
" transform="scale(0.015625)"/>
        <path id="DejaVuSans-77" d="M 269 3500 
L 844 3500 
L 1563 769 
L 2278 3500 
L 2956 3500 
L 3675 769 
L 4391 3500 
L 4966 3500 
L 4050 0 
L 3372 0 
L 2619 2869 
L 1863 0 
L 1184 0 
L 269 3500 
z
" transform="scale(0.015625)"/>
        <path id="DejaVuSans-69" d="M 603 3500 
L 1178 3500 
L 1178 0 
L 603 0 
L 603 3500 
z
M 603 4863 
L 1178 4863 
L 1178 4134 
L 603 4134 
L 603 4863 
z
" transform="scale(0.015625)"/>
       </defs>
       <use xlink:href="#DejaVuSans-48"/>
       <use xlink:href="#DejaVuSans-75" x="75.195312"/>
       <use xlink:href="#DejaVuSans-61" x="138.574219"/>
       <use xlink:href="#DejaVuSans-77" x="199.853516"/>
       <use xlink:href="#DejaVuSans-65" x="281.640625"/>
       <use xlink:href="#DejaVuSans-69" x="343.164062"/>
      </g>
     </g>
    </g>
    <g id="xtick_7">
     <g id="line2d_7">
      <g>
       <use xlink:href="#mcc4de93731" x="380.557188" y="354.935877" style="stroke: #000000; stroke-width: 0.8"/>
      </g>
     </g>
     <g id="text_7">
      <!-- LG -->
      <g transform="translate(377.798919 376.727667) rotate(-45) scale(0.1 -0.1)">
       <defs>
        <path id="DejaVuSans-4c" d="M 628 4666 
L 1259 4666 
L 1259 531 
L 3531 531 
L 3531 0 
L 628 0 
L 628 4666 
z
" transform="scale(0.015625)"/>
       </defs>
       <use xlink:href="#DejaVuSans-4c"/>
       <use xlink:href="#DejaVuSans-47" x="55.712891"/>
      </g>
     </g>
    </g>
    <g id="xtick_8">
     <g id="line2d_8">
      <g>
       <use xlink:href="#mcc4de93731" x="430.309063" y="354.935877" style="stroke: #000000; stroke-width: 0.8"/>
      </g>
     </g>
     <g id="text_8">
      <!-- Motorola -->
      <g transform="translate(416.811057 398.20714) rotate(-45) scale(0.1 -0.1)">
       <defs>
        <path id="DejaVuSans-4d" d="M 628 4666 
L 1569 4666 
L 2759 1491 
L 3956 4666 
L 4897 4666 
L 4897 0 
L 4281 0 
L 4281 4097 
L 3078 897 
L 2444 897 
L 1241 4097 
L 1241 0 
L 628 0 
L 628 4666 
z
" transform="scale(0.015625)"/>
        <path id="DejaVuSans-74" d="M 1172 4494 
L 1172 3500 
L 2356 3500 
L 2356 3053 
L 1172 3053 
L 1172 1153 
Q 1172 725 1289 603 
Q 1406 481 1766 481 
L 2356 481 
L 2356 0 
L 1766 0 
Q 1100 0 847 248 
Q 594 497 594 1153 
L 594 3053 
L 172 3053 
L 172 3500 
L 594 3500 
L 594 4494 
L 1172 4494 
z
" transform="scale(0.015625)"/>
       </defs>
       <use xlink:href="#DejaVuSans-4d"/>
       <use xlink:href="#DejaVuSans-6f" x="86.279297"/>
       <use xlink:href="#DejaVuSans-74" x="147.460938"/>
       <use xlink:href="#DejaVuSans-6f" x="186.669922"/>
       <use xlink:href="#DejaVuSans-72" x="247.851562"/>
       <use xlink:href="#DejaVuSans-6f" x="286.714844"/>
       <use xlink:href="#DejaVuSans-6c" x="347.896484"/>
       <use xlink:href="#DejaVuSans-61" x="375.679688"/>
      </g>
     </g>
    </g>
    <g id="xtick_9">
     <g id="line2d_9">
      <g>
       <use xlink:href="#mcc4de93731" x="480.060938" y="354.935877" style="stroke: #000000; stroke-width: 0.8"/>
      </g>
     </g>
     <g id="text_9">
      <!-- Nokia -->
      <g transform="translate(472.007654 387.317696) rotate(-45) scale(0.1 -0.1)">
       <defs>
        <path id="DejaVuSans-4e" d="M 628 4666 
L 1478 4666 
L 3547 763 
L 3547 4666 
L 4159 4666 
L 4159 0 
L 3309 0 
L 1241 3903 
L 1241 0 
L 628 0 
L 628 4666 
z
" transform="scale(0.015625)"/>
       </defs>
       <use xlink:href="#DejaVuSans-4e"/>
       <use xlink:href="#DejaVuSans-6f" x="74.804688"/>
       <use xlink:href="#DejaVuSans-6b" x="135.986328"/>
       <use xlink:href="#DejaVuSans-69" x="193.896484"/>
       <use xlink:href="#DejaVuSans-61" x="221.679688"/>
      </g>
     </g>
    </g>
    <g id="xtick_10">
     <g id="line2d_10">
      <g>
       <use xlink:href="#mcc4de93731" x="529.812813" y="354.935877" style="stroke: #000000; stroke-width: 0.8"/>
      </g>
     </g>
     <g id="text_10">
      <!-- OnePlus -->
      <g transform="translate(517.368286 396.100183) rotate(-45) scale(0.1 -0.1)">
       <defs>
        <path id="DejaVuSans-4f" d="M 2522 4238 
Q 1834 4238 1429 3725 
Q 1025 3213 1025 2328 
Q 1025 1447 1429 934 
Q 1834 422 2522 422 
Q 3209 422 3611 934 
Q 4013 1447 4013 2328 
Q 4013 3213 3611 3725 
Q 3209 4238 2522 4238 
z
M 2522 4750 
Q 3503 4750 4090 4092 
Q 4678 3434 4678 2328 
Q 4678 1225 4090 567 
Q 3503 -91 2522 -91 
Q 1538 -91 948 565 
Q 359 1222 359 2328 
Q 359 3434 948 4092 
Q 1538 4750 2522 4750 
z
" transform="scale(0.015625)"/>
        <path id="DejaVuSans-6e" d="M 3513 2113 
L 3513 0 
L 2938 0 
L 2938 2094 
Q 2938 2591 2744 2837 
Q 2550 3084 2163 3084 
Q 1697 3084 1428 2787 
Q 1159 2491 1159 1978 
L 1159 0 
L 581 0 
L 581 3500 
L 1159 3500 
L 1159 2956 
Q 1366 3272 1645 3428 
Q 1925 3584 2291 3584 
Q 2894 3584 3203 3211 
Q 3513 2838 3513 2113 
z
" transform="scale(0.015625)"/>
        <path id="DejaVuSans-50" d="M 1259 4147 
L 1259 2394 
L 2053 2394 
Q 2494 2394 2734 2622 
Q 2975 2850 2975 3272 
Q 2975 3691 2734 3919 
Q 2494 4147 2053 4147 
L 1259 4147 
z
M 628 4666 
L 2053 4666 
Q 2838 4666 3239 4311 
Q 3641 3956 3641 3272 
Q 3641 2581 3239 2228 
Q 2838 1875 2053 1875 
L 1259 1875 
L 1259 0 
L 628 0 
L 628 4666 
z
" transform="scale(0.015625)"/>
       </defs>
       <use xlink:href="#DejaVuSans-4f"/>
       <use xlink:href="#DejaVuSans-6e" x="78.710938"/>
       <use xlink:href="#DejaVuSans-65" x="142.089844"/>
       <use xlink:href="#DejaVuSans-50" x="203.613281"/>
       <use xlink:href="#DejaVuSans-6c" x="263.916016"/>
       <use xlink:href="#DejaVuSans-75" x="291.699219"/>
       <use xlink:href="#DejaVuSans-73" x="355.078125"/>
      </g>
     </g>
    </g>
    <g id="xtick_11">
     <g id="line2d_11">
      <g>
       <use xlink:href="#mcc4de93731" x="579.564688" y="354.935877" style="stroke: #000000; stroke-width: 0.8"/>
      </g>
     </g>
     <g id="text_11">
      <!-- Oppo -->
      <g transform="translate(572.080404 386.179696) rotate(-45) scale(0.1 -0.1)">
       <use xlink:href="#DejaVuSans-4f"/>
       <use xlink:href="#DejaVuSans-70" x="78.710938"/>
       <use xlink:href="#DejaVuSans-70" x="142.1875"/>
       <use xlink:href="#DejaVuSans-6f" x="205.664062"/>
      </g>
     </g>
    </g>
    <g id="xtick_12">
     <g id="line2d_12">
      <g>
       <use xlink:href="#mcc4de93731" x="629.316563" y="354.935877" style="stroke: #000000; stroke-width: 0.8"/>
      </g>
     </g>
     <g id="text_12">
      <!-- Realme -->
      <g transform="translate(618.026608 393.791037) rotate(-45) scale(0.1 -0.1)">
       <defs>
        <path id="DejaVuSans-52" d="M 2841 2188 
Q 3044 2119 3236 1894 
Q 3428 1669 3622 1275 
L 4263 0 
L 3584 0 
L 2988 1197 
Q 2756 1666 2539 1819 
Q 2322 1972 1947 1972 
L 1259 1972 
L 1259 0 
L 628 0 
L 628 4666 
L 2053 4666 
Q 2853 4666 3247 4331 
Q 3641 3997 3641 3322 
Q 3641 2881 3436 2590 
Q 3231 2300 2841 2188 
z
M 1259 4147 
L 1259 2491 
L 2053 2491 
Q 2509 2491 2742 2702 
Q 2975 2913 2975 3322 
Q 2975 3731 2742 3939 
Q 2509 4147 2053 4147 
L 1259 4147 
z
" transform="scale(0.015625)"/>
        <path id="DejaVuSans-6d" d="M 3328 2828 
Q 3544 3216 3844 3400 
Q 4144 3584 4550 3584 
Q 5097 3584 5394 3201 
Q 5691 2819 5691 2113 
L 5691 0 
L 5113 0 
L 5113 2094 
Q 5113 2597 4934 2840 
Q 4756 3084 4391 3084 
Q 3944 3084 3684 2787 
Q 3425 2491 3425 1978 
L 3425 0 
L 2847 0 
L 2847 2094 
Q 2847 2600 2669 2842 
Q 2491 3084 2119 3084 
Q 1678 3084 1418 2786 
Q 1159 2488 1159 1978 
L 1159 0 
L 581 0 
L 581 3500 
L 1159 3500 
L 1159 2956 
Q 1356 3278 1631 3431 
Q 1906 3584 2284 3584 
Q 2666 3584 2933 3390 
Q 3200 3197 3328 2828 
z
" transform="scale(0.015625)"/>
       </defs>
       <use xlink:href="#DejaVuSans-52"/>
       <use xlink:href="#DejaVuSans-65" x="64.982422"/>
       <use xlink:href="#DejaVuSans-61" x="126.505859"/>
       <use xlink:href="#DejaVuSans-6c" x="187.785156"/>
       <use xlink:href="#DejaVuSans-6d" x="215.568359"/>
       <use xlink:href="#DejaVuSans-65" x="312.980469"/>
      </g>
     </g>
    </g>
    <g id="xtick_13">
     <g id="line2d_13">
      <g>
       <use xlink:href="#mcc4de93731" x="679.068438" y="354.935877" style="stroke: #000000; stroke-width: 0.8"/>
      </g>
     </g>
     <g id="text_13">
      <!-- Samsung -->
      <g transform="translate(664.597055 400.153893) rotate(-45) scale(0.1 -0.1)">
       <defs>
        <path id="DejaVuSans-53" d="M 3425 4513 
L 3425 3897 
Q 3066 4069 2747 4153 
Q 2428 4238 2131 4238 
Q 1616 4238 1336 4038 
Q 1056 3838 1056 3469 
Q 1056 3159 1242 3001 
Q 1428 2844 1947 2747 
L 2328 2669 
Q 3034 2534 3370 2195 
Q 3706 1856 3706 1288 
Q 3706 609 3251 259 
Q 2797 -91 1919 -91 
Q 1588 -91 1214 -16 
Q 841 59 441 206 
L 441 856 
Q 825 641 1194 531 
Q 1563 422 1919 422 
Q 2459 422 2753 634 
Q 3047 847 3047 1241 
Q 3047 1584 2836 1778 
Q 2625 1972 2144 2069 
L 1759 2144 
Q 1053 2284 737 2584 
Q 422 2884 422 3419 
Q 422 4038 858 4394 
Q 1294 4750 2059 4750 
Q 2388 4750 2728 4690 
Q 3069 4631 3425 4513 
z
" transform="scale(0.015625)"/>
       </defs>
       <use xlink:href="#DejaVuSans-53"/>
       <use xlink:href="#DejaVuSans-61" x="63.476562"/>
       <use xlink:href="#DejaVuSans-6d" x="124.755859"/>
       <use xlink:href="#DejaVuSans-73" x="222.167969"/>
       <use xlink:href="#DejaVuSans-75" x="274.267578"/>
       <use xlink:href="#DejaVuSans-6e" x="337.646484"/>
       <use xlink:href="#DejaVuSans-67" x="401.025391"/>
      </g>
     </g>
    </g>
    <g id="xtick_14">
     <g id="line2d_14">
      <g>
       <use xlink:href="#mcc4de93731" x="728.820313" y="354.935877" style="stroke: #000000; stroke-width: 0.8"/>
      </g>
     </g>
     <g id="text_14">
      <!-- Sony -->
      <g transform="translate(722.03043 384.790894) rotate(-45) scale(0.1 -0.1)">
       <use xlink:href="#DejaVuSans-53"/>
       <use xlink:href="#DejaVuSans-6f" x="63.476562"/>
       <use xlink:href="#DejaVuSans-6e" x="124.658203"/>
       <use xlink:href="#DejaVuSans-79" x="188.037109"/>
      </g>
     </g>
    </g>
    <g id="xtick_15">
     <g id="line2d_15">
      <g>
       <use xlink:href="#mcc4de93731" x="778.572188" y="354.935877" style="stroke: #000000; stroke-width: 0.8"/>
      </g>
     </g>
     <g id="text_15">
      <!-- Vivo -->
      <g transform="translate(772.946269 382.462966) rotate(-45) scale(0.1 -0.1)">
       <defs>
        <path id="DejaVuSans-56" d="M 1831 0 
L 50 4666 
L 709 4666 
L 2188 738 
L 3669 4666 
L 4325 4666 
L 2547 0 
L 1831 0 
z
" transform="scale(0.015625)"/>
        <path id="DejaVuSans-76" d="M 191 3500 
L 800 3500 
L 1894 563 
L 2988 3500 
L 3597 3500 
L 2284 0 
L 1503 0 
L 191 3500 
z
" transform="scale(0.015625)"/>
       </defs>
       <use xlink:href="#DejaVuSans-56"/>
       <use xlink:href="#DejaVuSans-69" x="66.158203"/>
       <use xlink:href="#DejaVuSans-76" x="93.941406"/>
       <use xlink:href="#DejaVuSans-6f" x="153.121094"/>
      </g>
     </g>
    </g>
    <g id="xtick_16">
     <g id="line2d_16">
      <g>
       <use xlink:href="#mcc4de93731" x="828.324063" y="354.935877" style="stroke: #000000; stroke-width: 0.8"/>
      </g>
     </g>
     <g id="text_16">
      <!-- Xiaomi -->
      <g transform="translate(818.115208 391.628837) rotate(-45) scale(0.1 -0.1)">
       <defs>
        <path id="DejaVuSans-58" d="M 403 4666 
L 1081 4666 
L 2241 2931 
L 3406 4666 
L 4084 4666 
L 2584 2425 
L 4184 0 
L 3506 0 
L 2194 1984 
L 872 0 
L 191 0 
L 1856 2491 
L 403 4666 
z
" transform="scale(0.015625)"/>
       </defs>
       <use xlink:href="#DejaVuSans-58"/>
       <use xlink:href="#DejaVuSans-69" x="68.505859"/>
       <use xlink:href="#DejaVuSans-61" x="96.289062"/>
       <use xlink:href="#DejaVuSans-6f" x="157.568359"/>
       <use xlink:href="#DejaVuSans-6d" x="218.75"/>
       <use xlink:href="#DejaVuSans-69" x="316.162109"/>
      </g>
     </g>
    </g>
    <g id="text_17">
     <!-- Brand -->
     <g transform="translate(440.292031 418.224568) scale(0.1 -0.1)">
      <defs>
       <path id="DejaVuSans-64" d="M 2906 2969 
L 2906 4863 
L 3481 4863 
L 3481 0 
L 2906 0 
L 2906 525 
Q 2725 213 2448 61 
Q 2172 -91 1784 -91 
Q 1150 -91 751 415 
Q 353 922 353 1747 
Q 353 2572 751 3078 
Q 1150 3584 1784 3584 
Q 2172 3584 2448 3432 
Q 2725 3281 2906 2969 
z
M 947 1747 
Q 947 1113 1208 752 
Q 1469 391 1925 391 
Q 2381 391 2643 752 
Q 2906 1113 2906 1747 
Q 2906 2381 2643 2742 
Q 2381 3103 1925 3103 
Q 1469 3103 1208 2742 
Q 947 2381 947 1747 
z
" transform="scale(0.015625)"/>
      </defs>
      <use xlink:href="#DejaVuSans-42"/>
      <use xlink:href="#DejaVuSans-72" x="68.603516"/>
      <use xlink:href="#DejaVuSans-61" x="109.716797"/>
      <use xlink:href="#DejaVuSans-6e" x="170.996094"/>
      <use xlink:href="#DejaVuSans-64" x="234.375"/>
     </g>
    </g>
   </g>
   <g id="matplotlib.axis_2">
    <g id="ytick_1">
     <g id="line2d_17">
      <defs>
       <path id="m83c25b6f38" d="M 0 0 
L -3.5 0 
" style="stroke: #000000; stroke-width: 0.8"/>
      </defs>
      <g>
       <use xlink:href="#m83c25b6f38" x="57.17" y="316.322601" style="stroke: #000000; stroke-width: 0.8"/>
      </g>
     </g>
     <g id="text_18">
      <!-- 250 -->
      <g transform="translate(31.0825 320.12182) scale(0.1 -0.1)">
       <defs>
        <path id="DejaVuSans-32" d="M 1228 531 
L 3431 531 
L 3431 0 
L 469 0 
L 469 531 
Q 828 903 1448 1529 
Q 2069 2156 2228 2338 
Q 2531 2678 2651 2914 
Q 2772 3150 2772 3378 
Q 2772 3750 2511 3984 
Q 2250 4219 1831 4219 
Q 1534 4219 1204 4116 
Q 875 4013 500 3803 
L 500 4441 
Q 881 4594 1212 4672 
Q 1544 4750 1819 4750 
Q 2544 4750 2975 4387 
Q 3406 4025 3406 3419 
Q 3406 3131 3298 2873 
Q 3191 2616 2906 2266 
Q 2828 2175 2409 1742 
Q 1991 1309 1228 531 
z
" transform="scale(0.015625)"/>
        <path id="DejaVuSans-35" d="M 691 4666 
L 3169 4666 
L 3169 4134 
L 1269 4134 
L 1269 2991 
Q 1406 3038 1543 3061 
Q 1681 3084 1819 3084 
Q 2600 3084 3056 2656 
Q 3513 2228 3513 1497 
Q 3513 744 3044 326 
Q 2575 -91 1722 -91 
Q 1428 -91 1123 -41 
Q 819 9 494 109 
L 494 744 
Q 775 591 1075 516 
Q 1375 441 1709 441 
Q 2250 441 2565 725 
Q 2881 1009 2881 1497 
Q 2881 1984 2565 2268 
Q 2250 2553 1709 2553 
Q 1456 2553 1204 2497 
Q 953 2441 691 2322 
L 691 4666 
z
" transform="scale(0.015625)"/>
        <path id="DejaVuSans-30" d="M 2034 4250 
Q 1547 4250 1301 3770 
Q 1056 3291 1056 2328 
Q 1056 1369 1301 889 
Q 1547 409 2034 409 
Q 2525 409 2770 889 
Q 3016 1369 3016 2328 
Q 3016 3291 2770 3770 
Q 2525 4250 2034 4250 
z
M 2034 4750 
Q 2819 4750 3233 4129 
Q 3647 3509 3647 2328 
Q 3647 1150 3233 529 
Q 2819 -91 2034 -91 
Q 1250 -91 836 529 
Q 422 1150 422 2328 
Q 422 3509 836 4129 
Q 1250 4750 2034 4750 
z
" transform="scale(0.015625)"/>
       </defs>
       <use xlink:href="#DejaVuSans-32"/>
       <use xlink:href="#DejaVuSans-35" x="63.623047"/>
       <use xlink:href="#DejaVuSans-30" x="127.246094"/>
      </g>
     </g>
    </g>
    <g id="ytick_2">
     <g id="line2d_18">
      <g>
       <use xlink:href="#m83c25b6f38" x="57.17" y="277.081468" style="stroke: #000000; stroke-width: 0.8"/>
      </g>
     </g>
     <g id="text_19">
      <!-- 500 -->
      <g transform="translate(31.0825 280.880686) scale(0.1 -0.1)">
       <use xlink:href="#DejaVuSans-35"/>
       <use xlink:href="#DejaVuSans-30" x="63.623047"/>
       <use xlink:href="#DejaVuSans-30" x="127.246094"/>
      </g>
     </g>
    </g>
    <g id="ytick_3">
     <g id="line2d_19">
      <g>
       <use xlink:href="#m83c25b6f38" x="57.17" y="237.840334" style="stroke: #000000; stroke-width: 0.8"/>
      </g>
     </g>
     <g id="text_20">
      <!-- 750 -->
      <g transform="translate(31.0825 241.639553) scale(0.1 -0.1)">
       <defs>
        <path id="DejaVuSans-37" d="M 525 4666 
L 3525 4666 
L 3525 4397 
L 1831 0 
L 1172 0 
L 2766 4134 
L 525 4134 
L 525 4666 
z
" transform="scale(0.015625)"/>
       </defs>
       <use xlink:href="#DejaVuSans-37"/>
       <use xlink:href="#DejaVuSans-35" x="63.623047"/>
       <use xlink:href="#DejaVuSans-30" x="127.246094"/>
      </g>
     </g>
    </g>
    <g id="ytick_4">
     <g id="line2d_20">
      <g>
       <use xlink:href="#m83c25b6f38" x="57.17" y="198.599201" style="stroke: #000000; stroke-width: 0.8"/>
      </g>
     </g>
     <g id="text_21">
      <!-- 1000 -->
      <g transform="translate(24.72 202.398419) scale(0.1 -0.1)">
       <defs>
        <path id="DejaVuSans-31" d="M 794 531 
L 1825 531 
L 1825 4091 
L 703 3866 
L 703 4441 
L 1819 4666 
L 2450 4666 
L 2450 531 
L 3481 531 
L 3481 0 
L 794 0 
L 794 531 
z
" transform="scale(0.015625)"/>
       </defs>
       <use xlink:href="#DejaVuSans-31"/>
       <use xlink:href="#DejaVuSans-30" x="63.623047"/>
       <use xlink:href="#DejaVuSans-30" x="127.246094"/>
       <use xlink:href="#DejaVuSans-30" x="190.869141"/>
      </g>
     </g>
    </g>
    <g id="ytick_5">
     <g id="line2d_21">
      <g>
       <use xlink:href="#m83c25b6f38" x="57.17" y="159.358067" style="stroke: #000000; stroke-width: 0.8"/>
      </g>
     </g>
     <g id="text_22">
      <!-- 1250 -->
      <g transform="translate(24.72 163.157286) scale(0.1 -0.1)">
       <use xlink:href="#DejaVuSans-31"/>
       <use xlink:href="#DejaVuSans-32" x="63.623047"/>
       <use xlink:href="#DejaVuSans-35" x="127.246094"/>
       <use xlink:href="#DejaVuSans-30" x="190.869141"/>
      </g>
     </g>
    </g>
    <g id="ytick_6">
     <g id="line2d_22">
      <g>
       <use xlink:href="#m83c25b6f38" x="57.17" y="120.116933" style="stroke: #000000; stroke-width: 0.8"/>
      </g>
     </g>
     <g id="text_23">
      <!-- 1500 -->
      <g transform="translate(24.72 123.916152) scale(0.1 -0.1)">
       <use xlink:href="#DejaVuSans-31"/>
       <use xlink:href="#DejaVuSans-35" x="63.623047"/>
       <use xlink:href="#DejaVuSans-30" x="127.246094"/>
       <use xlink:href="#DejaVuSans-30" x="190.869141"/>
      </g>
     </g>
    </g>
    <g id="ytick_7">
     <g id="line2d_23">
      <g>
       <use xlink:href="#m83c25b6f38" x="57.17" y="80.8758" style="stroke: #000000; stroke-width: 0.8"/>
      </g>
     </g>
     <g id="text_24">
      <!-- 1750 -->
      <g transform="translate(24.72 84.675019) scale(0.1 -0.1)">
       <use xlink:href="#DejaVuSans-31"/>
       <use xlink:href="#DejaVuSans-37" x="63.623047"/>
       <use xlink:href="#DejaVuSans-35" x="127.246094"/>
       <use xlink:href="#DejaVuSans-30" x="190.869141"/>
      </g>
     </g>
    </g>
    <g id="ytick_8">
     <g id="line2d_24">
      <g>
       <use xlink:href="#m83c25b6f38" x="57.17" y="41.634666" style="stroke: #000000; stroke-width: 0.8"/>
      </g>
     </g>
     <g id="text_25">
      <!-- 2000 -->
      <g transform="translate(24.72 45.433885) scale(0.1 -0.1)">
       <use xlink:href="#DejaVuSans-32"/>
       <use xlink:href="#DejaVuSans-30" x="63.623047"/>
       <use xlink:href="#DejaVuSans-30" x="127.246094"/>
       <use xlink:href="#DejaVuSans-30" x="190.869141"/>
      </g>
     </g>
    </g>
    <g id="text_26">
     <!-- Price ($) -->
     <g transform="translate(18.640312 211.77747) rotate(-90) scale(0.1 -0.1)">
      <defs>
       <path id="DejaVuSans-20" transform="scale(0.015625)"/>
       <path id="DejaVuSans-28" d="M 1984 4856 
Q 1566 4138 1362 3434 
Q 1159 2731 1159 2009 
Q 1159 1288 1364 580 
Q 1569 -128 1984 -844 
L 1484 -844 
Q 1016 -109 783 600 
Q 550 1309 550 2009 
Q 550 2706 781 3412 
Q 1013 4119 1484 4856 
L 1984 4856 
z
" transform="scale(0.015625)"/>
       <path id="DejaVuSans-24" d="M 2163 -941 
L 1850 -941 
L 1847 0 
Q 1519 6 1191 76 
Q 863 147 531 288 
L 531 850 
Q 850 650 1176 548 
Q 1503 447 1850 444 
L 1850 1869 
Q 1159 1981 845 2250 
Q 531 2519 531 2988 
Q 531 3497 872 3790 
Q 1213 4084 1850 4128 
L 1850 4863 
L 2163 4863 
L 2163 4138 
Q 2453 4125 2725 4076 
Q 2997 4028 3256 3944 
L 3256 3397 
Q 2997 3528 2723 3600 
Q 2450 3672 2163 3684 
L 2163 2350 
Q 2872 2241 3206 1959 
Q 3541 1678 3541 1191 
Q 3541 663 3186 358 
Q 2831 53 2163 6 
L 2163 -941 
z
M 1850 2406 
L 1850 3688 
Q 1488 3647 1297 3481 
Q 1106 3316 1106 3041 
Q 1106 2772 1282 2622 
Q 1459 2472 1850 2406 
z
M 2163 1806 
L 2163 453 
Q 2559 506 2761 678 
Q 2963 850 2963 1131 
Q 2963 1406 2770 1568 
Q 2578 1731 2163 1806 
z
" transform="scale(0.015625)"/>
       <path id="DejaVuSans-29" d="M 513 4856 
L 1013 4856 
Q 1481 4119 1714 3412 
Q 1947 2706 1947 2009 
Q 1947 1309 1714 600 
Q 1481 -109 1013 -844 
L 513 -844 
Q 928 -128 1133 580 
Q 1338 1288 1338 2009 
Q 1338 2731 1133 3434 
Q 928 4138 513 4856 
z
" transform="scale(0.015625)"/>
      </defs>
      <use xlink:href="#DejaVuSans-50"/>
      <use xlink:href="#DejaVuSans-72" x="58.552734"/>
      <use xlink:href="#DejaVuSans-69" x="99.666016"/>
      <use xlink:href="#DejaVuSans-63" x="127.449219"/>
      <use xlink:href="#DejaVuSans-65" x="182.429688"/>
      <use xlink:href="#DejaVuSans-20" x="243.953125"/>
      <use xlink:href="#DejaVuSans-28" x="275.740234"/>
      <use xlink:href="#DejaVuSans-24" x="314.753906"/>
      <use xlink:href="#DejaVuSans-29" x="378.376953"/>
     </g>
    </g>
   </g>
   <g id="patch_3">
    <path d="M 62.145188 273.314319 
L 101.946688 273.314319 
L 101.946688 202.680278 
L 62.145188 202.680278 
L 62.145188 273.314319 
z
" clip-path="url(#p869ce7ef8c)" style="fill: #3274a1; stroke: #3f3f3f; stroke-linejoin: miter"/>
   </g>
   <g id="line2d_25">
    <path d="M 82.045938 273.314319 
L 82.045938 292.934886 
" clip-path="url(#p869ce7ef8c)" style="fill: none; stroke: #3f3f3f"/>
   </g>
   <g id="line2d_26">
    <path d="M 82.045938 202.680278 
L 82.045938 151.666805 
" clip-path="url(#p869ce7ef8c)" style="fill: none; stroke: #3f3f3f"/>
   </g>
   <g id="line2d_27">
    <path d="M 72.095562 292.934886 
L 91.996313 292.934886 
" clip-path="url(#p869ce7ef8c)" style="fill: none; stroke: #3f3f3f; stroke-linecap: square"/>
   </g>
   <g id="line2d_28">
    <path d="M 72.095562 151.666805 
L 91.996313 151.666805 
" clip-path="url(#p869ce7ef8c)" style="fill: none; stroke: #3f3f3f; stroke-linecap: square"/>
   </g>
   <g id="line2d_29"/>
   <g id="patch_4">
    <path d="M 111.897063 222.300845 
L 151.698563 222.300845 
L 151.698563 210.528505 
L 111.897063 210.528505 
L 111.897063 222.300845 
z
" clip-path="url(#p869ce7ef8c)" style="fill: #3274a1; stroke: #3f3f3f; stroke-linejoin: miter"/>
   </g>
   <g id="line2d_30">
    <path d="M 131.797813 222.300845 
L 131.797813 222.300845 
" clip-path="url(#p869ce7ef8c)" style="fill: none; stroke: #3f3f3f"/>
   </g>
   <g id="line2d_31">
    <path d="M 131.797813 210.528505 
L 131.797813 198.756165 
" clip-path="url(#p869ce7ef8c)" style="fill: none; stroke: #3f3f3f"/>
   </g>
   <g id="line2d_32">
    <path d="M 121.847438 222.300845 
L 141.748188 222.300845 
" clip-path="url(#p869ce7ef8c)" style="fill: none; stroke: #3f3f3f; stroke-linecap: square"/>
   </g>
   <g id="line2d_33">
    <path d="M 121.847438 198.756165 
L 141.748188 198.756165 
" clip-path="url(#p869ce7ef8c)" style="fill: none; stroke: #3f3f3f; stroke-linecap: square"/>
   </g>
   <g id="line2d_34">
    <defs>
     <path id="m39a9632659" d="M 0 3 
C 0.795609 3 1.55874 2.683901 2.12132 2.12132 
C 2.683901 1.55874 3 0.795609 3 0 
C 3 -0.795609 2.683901 -1.55874 2.12132 -2.12132 
C 1.55874 -2.683901 0.795609 -3 0 -3 
C -0.795609 -3 -1.55874 -2.683901 -2.12132 -2.12132 
C -2.683901 -1.55874 -3 -0.795609 -3 0 
C -3 0.795609 -2.683901 1.55874 -2.12132 2.12132 
C -1.55874 2.683901 -0.795609 3 0 3 
z
" style="stroke: #3f3f3f"/>
    </defs>
    <g clip-path="url(#p869ce7ef8c)">
     <use xlink:href="#m39a9632659" x="131.797813" y="245.845525" style="fill-opacity: 0; stroke: #3f3f3f"/>
    </g>
   </g>
   <g id="patch_5">
    <path d="M 161.648938 292.934886 
L 201.450438 292.934886 
L 201.450438 269.390205 
L 161.648938 269.390205 
L 161.648938 292.934886 
z
" clip-path="url(#p869ce7ef8c)" style="fill: #3274a1; stroke: #3f3f3f; stroke-linejoin: miter"/>
   </g>
   <g id="line2d_35">
    <path d="M 181.549688 292.934886 
L 181.549688 292.934886 
" clip-path="url(#p869ce7ef8c)" style="fill: none; stroke: #3f3f3f"/>
   </g>
   <g id="line2d_36">
    <path d="M 181.549688 269.390205 
L 181.549688 245.845525 
" clip-path="url(#p869ce7ef8c)" style="fill: none; stroke: #3f3f3f"/>
   </g>
   <g id="line2d_37">
    <path d="M 171.599313 292.934886 
L 191.500063 292.934886 
" clip-path="url(#p869ce7ef8c)" style="fill: none; stroke: #3f3f3f; stroke-linecap: square"/>
   </g>
   <g id="line2d_38">
    <path d="M 171.599313 245.845525 
L 191.500063 245.845525 
" clip-path="url(#p869ce7ef8c)" style="fill: none; stroke: #3f3f3f; stroke-linecap: square"/>
   </g>
   <g id="line2d_39"/>
   <g id="patch_6">
    <path d="M 211.400813 308.631339 
L 251.202313 308.631339 
L 251.202313 308.631339 
L 211.400813 308.631339 
L 211.400813 308.631339 
z
" clip-path="url(#p869ce7ef8c)" style="fill: #3274a1; stroke: #3f3f3f; stroke-linejoin: miter"/>
   </g>
   <g id="line2d_40">
    <path d="M 231.301563 308.631339 
L 231.301563 308.631339 
" clip-path="url(#p869ce7ef8c)" style="fill: none; stroke: #3f3f3f"/>
   </g>
   <g id="line2d_41">
    <path d="M 231.301563 308.631339 
L 231.301563 308.631339 
" clip-path="url(#p869ce7ef8c)" style="fill: none; stroke: #3f3f3f"/>
   </g>
   <g id="line2d_42">
    <path d="M 221.351188 308.631339 
L 241.251938 308.631339 
" clip-path="url(#p869ce7ef8c)" style="fill: none; stroke: #3f3f3f; stroke-linecap: square"/>
   </g>
   <g id="line2d_43">
    <path d="M 221.351188 308.631339 
L 241.251938 308.631339 
" clip-path="url(#p869ce7ef8c)" style="fill: none; stroke: #3f3f3f; stroke-linecap: square"/>
   </g>
   <g id="line2d_44"/>
   <g id="patch_7">
    <path d="M 261.152688 245.845525 
L 300.954188 245.845525 
L 300.954188 237.997299 
L 261.152688 237.997299 
L 261.152688 245.845525 
z
" clip-path="url(#p869ce7ef8c)" style="fill: #3274a1; stroke: #3f3f3f; stroke-linejoin: miter"/>
   </g>
   <g id="line2d_45">
    <path d="M 281.053438 245.845525 
L 281.053438 245.845525 
" clip-path="url(#p869ce7ef8c)" style="fill: none; stroke: #3f3f3f"/>
   </g>
   <g id="line2d_46">
    <path d="M 281.053438 237.997299 
L 281.053438 230.149072 
" clip-path="url(#p869ce7ef8c)" style="fill: none; stroke: #3f3f3f"/>
   </g>
   <g id="line2d_47">
    <path d="M 271.103063 245.845525 
L 291.003813 245.845525 
" clip-path="url(#p869ce7ef8c)" style="fill: none; stroke: #3f3f3f; stroke-linecap: square"/>
   </g>
   <g id="line2d_48">
    <path d="M 271.103063 230.149072 
L 291.003813 230.149072 
" clip-path="url(#p869ce7ef8c)" style="fill: none; stroke: #3f3f3f; stroke-linecap: square"/>
   </g>
   <g id="line2d_49">
    <g clip-path="url(#p869ce7ef8c)">
     <use xlink:href="#m39a9632659" x="281.053438" y="277.238432" style="fill-opacity: 0; stroke: #3f3f3f"/>
    </g>
   </g>
   <g id="patch_8">
    <path d="M 310.904562 301.567935 
L 350.706063 301.567935 
L 350.706063 183.059712 
L 310.904562 183.059712 
L 310.904562 301.567935 
z
" clip-path="url(#p869ce7ef8c)" style="fill: #3274a1; stroke: #3f3f3f; stroke-linejoin: miter"/>
   </g>
   <g id="line2d_50">
    <path d="M 330.805313 301.567935 
L 330.805313 324.327792 
" clip-path="url(#p869ce7ef8c)" style="fill: none; stroke: #3f3f3f"/>
   </g>
   <g id="line2d_51">
    <path d="M 330.805313 183.059712 
L 330.805313 135.970351 
" clip-path="url(#p869ce7ef8c)" style="fill: none; stroke: #3f3f3f"/>
   </g>
   <g id="line2d_52">
    <path d="M 320.854938 324.327792 
L 340.755688 324.327792 
" clip-path="url(#p869ce7ef8c)" style="fill: none; stroke: #3f3f3f; stroke-linecap: square"/>
   </g>
   <g id="line2d_53">
    <path d="M 320.854938 135.970351 
L 340.755688 135.970351 
" clip-path="url(#p869ce7ef8c)" style="fill: none; stroke: #3f3f3f; stroke-linecap: square"/>
   </g>
   <g id="line2d_54"/>
   <g id="patch_9">
    <path d="M 360.656438 289.010772 
L 400.457938 289.010772 
L 400.457938 237.997299 
L 360.656438 237.997299 
L 360.656438 289.010772 
z
" clip-path="url(#p869ce7ef8c)" style="fill: #3274a1; stroke: #3f3f3f; stroke-linejoin: miter"/>
   </g>
   <g id="line2d_55">
    <path d="M 380.557188 289.010772 
L 380.557188 300.783112 
" clip-path="url(#p869ce7ef8c)" style="fill: none; stroke: #3f3f3f"/>
   </g>
   <g id="line2d_56">
    <path d="M 380.557188 237.997299 
L 380.557188 198.756165 
" clip-path="url(#p869ce7ef8c)" style="fill: none; stroke: #3f3f3f"/>
   </g>
   <g id="line2d_57">
    <path d="M 370.606813 300.783112 
L 390.507563 300.783112 
" clip-path="url(#p869ce7ef8c)" style="fill: none; stroke: #3f3f3f; stroke-linecap: square"/>
   </g>
   <g id="line2d_58">
    <path d="M 370.606813 198.756165 
L 390.507563 198.756165 
" clip-path="url(#p869ce7ef8c)" style="fill: none; stroke: #3f3f3f; stroke-linecap: square"/>
   </g>
   <g id="line2d_59"/>
   <g id="patch_10">
    <path d="M 410.408313 324.327792 
L 450.209813 324.327792 
L 450.209813 308.631339 
L 410.408313 308.631339 
L 410.408313 324.327792 
z
" clip-path="url(#p869ce7ef8c)" style="fill: #3274a1; stroke: #3f3f3f; stroke-linejoin: miter"/>
   </g>
   <g id="line2d_60">
    <path d="M 430.309063 324.327792 
L 430.309063 340.024246 
" clip-path="url(#p869ce7ef8c)" style="fill: none; stroke: #3f3f3f"/>
   </g>
   <g id="line2d_61">
    <path d="M 430.309063 308.631339 
L 430.309063 292.934886 
" clip-path="url(#p869ce7ef8c)" style="fill: none; stroke: #3f3f3f"/>
   </g>
   <g id="line2d_62">
    <path d="M 420.358688 340.024246 
L 440.259438 340.024246 
" clip-path="url(#p869ce7ef8c)" style="fill: none; stroke: #3f3f3f; stroke-linecap: square"/>
   </g>
   <g id="line2d_63">
    <path d="M 420.358688 292.934886 
L 440.259438 292.934886 
" clip-path="url(#p869ce7ef8c)" style="fill: none; stroke: #3f3f3f; stroke-linecap: square"/>
   </g>
   <g id="line2d_64">
    <g clip-path="url(#p869ce7ef8c)">
     <use xlink:href="#m39a9632659" x="430.309063" y="245.845525" style="fill-opacity: 0; stroke: #3f3f3f"/>
     <use xlink:href="#m39a9632659" x="430.309063" y="277.238432" style="fill-opacity: 0; stroke: #3f3f3f"/>
    </g>
   </g>
   <g id="patch_11">
    <path d="M 460.160188 332.568431 
L 499.961688 332.568431 
L 499.961688 308.631339 
L 460.160188 308.631339 
L 460.160188 332.568431 
z
" clip-path="url(#p869ce7ef8c)" style="fill: #3274a1; stroke: #3f3f3f; stroke-linejoin: miter"/>
   </g>
   <g id="line2d_65">
    <path d="M 480.060938 332.568431 
L 480.060938 340.024246 
" clip-path="url(#p869ce7ef8c)" style="fill: none; stroke: #3f3f3f"/>
   </g>
   <g id="line2d_66">
    <path d="M 480.060938 308.631339 
L 480.060938 277.238432 
" clip-path="url(#p869ce7ef8c)" style="fill: none; stroke: #3f3f3f"/>
   </g>
   <g id="line2d_67">
    <path d="M 470.110563 340.024246 
L 490.011313 340.024246 
" clip-path="url(#p869ce7ef8c)" style="fill: none; stroke: #3f3f3f; stroke-linecap: square"/>
   </g>
   <g id="line2d_68">
    <path d="M 470.110563 277.238432 
L 490.011313 277.238432 
" clip-path="url(#p869ce7ef8c)" style="fill: none; stroke: #3f3f3f; stroke-linecap: square"/>
   </g>
   <g id="line2d_69">
    <g clip-path="url(#p869ce7ef8c)">
     <use xlink:href="#m39a9632659" x="480.060938" y="269.390205" style="fill-opacity: 0; stroke: #3f3f3f"/>
     <use xlink:href="#m39a9632659" x="480.060938" y="269.390205" style="fill-opacity: 0; stroke: #3f3f3f"/>
    </g>
   </g>
   <g id="patch_12">
    <path d="M 509.912063 292.934886 
L 549.713563 292.934886 
L 549.713563 226.224959 
L 509.912063 226.224959 
L 509.912063 292.934886 
z
" clip-path="url(#p869ce7ef8c)" style="fill: #3274a1; stroke: #3f3f3f; stroke-linejoin: miter"/>
   </g>
   <g id="line2d_70">
    <path d="M 529.812813 292.934886 
L 529.812813 308.631339 
" clip-path="url(#p869ce7ef8c)" style="fill: none; stroke: #3f3f3f"/>
   </g>
   <g id="line2d_71">
    <path d="M 529.812813 226.224959 
L 529.812813 198.756165 
" clip-path="url(#p869ce7ef8c)" style="fill: none; stroke: #3f3f3f"/>
   </g>
   <g id="line2d_72">
    <path d="M 519.862438 308.631339 
L 539.763188 308.631339 
" clip-path="url(#p869ce7ef8c)" style="fill: none; stroke: #3f3f3f; stroke-linecap: square"/>
   </g>
   <g id="line2d_73">
    <path d="M 519.862438 198.756165 
L 539.763188 198.756165 
" clip-path="url(#p869ce7ef8c)" style="fill: none; stroke: #3f3f3f; stroke-linecap: square"/>
   </g>
   <g id="line2d_74"/>
   <g id="patch_13">
    <path d="M 559.663938 321.973324 
L 599.465438 321.973324 
L 599.465438 292.150063 
L 559.663938 292.150063 
L 559.663938 321.973324 
z
" clip-path="url(#p869ce7ef8c)" style="fill: #3274a1; stroke: #3f3f3f; stroke-linejoin: miter"/>
   </g>
   <g id="line2d_75">
    <path d="M 579.564688 321.973324 
L 579.564688 333.745665 
" clip-path="url(#p869ce7ef8c)" style="fill: none; stroke: #3f3f3f"/>
   </g>
   <g id="line2d_76">
    <path d="M 579.564688 292.150063 
L 579.564688 252.124107 
" clip-path="url(#p869ce7ef8c)" style="fill: none; stroke: #3f3f3f"/>
   </g>
   <g id="line2d_77">
    <path d="M 569.614313 333.745665 
L 589.515062 333.745665 
" clip-path="url(#p869ce7ef8c)" style="fill: none; stroke: #3f3f3f; stroke-linecap: square"/>
   </g>
   <g id="line2d_78">
    <path d="M 569.614313 252.124107 
L 589.515062 252.124107 
" clip-path="url(#p869ce7ef8c)" style="fill: none; stroke: #3f3f3f; stroke-linecap: square"/>
   </g>
   <g id="line2d_79">
    <g clip-path="url(#p869ce7ef8c)">
     <use xlink:href="#m39a9632659" x="579.564688" y="222.300845" style="fill-opacity: 0; stroke: #3f3f3f"/>
     <use xlink:href="#m39a9632659" x="579.564688" y="214.452618" style="fill-opacity: 0; stroke: #3f3f3f"/>
     <use xlink:href="#m39a9632659" x="579.564688" y="245.845525" style="fill-opacity: 0; stroke: #3f3f3f"/>
     <use xlink:href="#m39a9632659" x="579.564688" y="230.149072" style="fill-opacity: 0; stroke: #3f3f3f"/>
     <use xlink:href="#m39a9632659" x="579.564688" y="230.149072" style="fill-opacity: 0; stroke: #3f3f3f"/>
     <use xlink:href="#m39a9632659" x="579.564688" y="167.363258" style="fill-opacity: 0; stroke: #3f3f3f"/>
     <use xlink:href="#m39a9632659" x="579.564688" y="245.845525" style="fill-opacity: 0; stroke: #3f3f3f"/>
     <use xlink:href="#m39a9632659" x="579.564688" y="230.149072" style="fill-opacity: 0; stroke: #3f3f3f"/>
     <use xlink:href="#m39a9632659" x="579.564688" y="230.149072" style="fill-opacity: 0; stroke: #3f3f3f"/>
    </g>
   </g>
   <g id="patch_14">
    <path d="M 609.415813 332.960842 
L 649.217313 332.960842 
L 649.217313 311.77063 
L 609.415813 311.77063 
L 609.415813 332.960842 
z
" clip-path="url(#p869ce7ef8c)" style="fill: #3274a1; stroke: #3f3f3f; stroke-linejoin: miter"/>
   </g>
   <g id="line2d_80">
    <path d="M 629.316563 332.960842 
L 629.316563 340.024246 
" clip-path="url(#p869ce7ef8c)" style="fill: none; stroke: #3f3f3f"/>
   </g>
   <g id="line2d_81">
    <path d="M 629.316563 311.77063 
L 629.316563 292.934886 
" clip-path="url(#p869ce7ef8c)" style="fill: none; stroke: #3f3f3f"/>
   </g>
   <g id="line2d_82">
    <path d="M 619.366188 340.024246 
L 639.266938 340.024246 
" clip-path="url(#p869ce7ef8c)" style="fill: none; stroke: #3f3f3f; stroke-linecap: square"/>
   </g>
   <g id="line2d_83">
    <path d="M 619.366188 292.934886 
L 639.266938 292.934886 
" clip-path="url(#p869ce7ef8c)" style="fill: none; stroke: #3f3f3f; stroke-linecap: square"/>
   </g>
   <g id="line2d_84"/>
   <g id="patch_15">
    <path d="M 659.167688 320.403679 
L 698.969188 320.403679 
L 698.969188 257.617865 
L 659.167688 257.617865 
L 659.167688 320.403679 
z
" clip-path="url(#p869ce7ef8c)" style="fill: #3274a1; stroke: #3f3f3f; stroke-linejoin: miter"/>
   </g>
   <g id="line2d_85">
    <path d="M 679.068438 320.403679 
L 679.068438 335.31531 
" clip-path="url(#p869ce7ef8c)" style="fill: none; stroke: #3f3f3f"/>
   </g>
   <g id="line2d_86">
    <path d="M 679.068438 257.617865 
L 679.068438 167.363258 
" clip-path="url(#p869ce7ef8c)" style="fill: none; stroke: #3f3f3f"/>
   </g>
   <g id="line2d_87">
    <path d="M 669.118063 335.31531 
L 689.018813 335.31531 
" clip-path="url(#p869ce7ef8c)" style="fill: none; stroke: #3f3f3f; stroke-linecap: square"/>
   </g>
   <g id="line2d_88">
    <path d="M 669.118063 167.363258 
L 689.018813 167.363258 
" clip-path="url(#p869ce7ef8c)" style="fill: none; stroke: #3f3f3f; stroke-linecap: square"/>
   </g>
   <g id="line2d_89">
    <g clip-path="url(#p869ce7ef8c)">
     <use xlink:href="#m39a9632659" x="679.068438" y="41.791631" style="fill-opacity: 0; stroke: #3f3f3f"/>
     <use xlink:href="#m39a9632659" x="679.068438" y="151.666805" style="fill-opacity: 0; stroke: #3f3f3f"/>
     <use xlink:href="#m39a9632659" x="679.068438" y="135.970351" style="fill-opacity: 0; stroke: #3f3f3f"/>
    </g>
   </g>
   <g id="patch_16">
    <path d="M 708.919563 151.666805 
L 748.721063 151.666805 
L 748.721063 151.666805 
L 708.919563 151.666805 
L 708.919563 151.666805 
z
" clip-path="url(#p869ce7ef8c)" style="fill: #3274a1; stroke: #3f3f3f; stroke-linejoin: miter"/>
   </g>
   <g id="line2d_90">
    <path d="M 728.820313 151.666805 
L 728.820313 151.666805 
" clip-path="url(#p869ce7ef8c)" style="fill: none; stroke: #3f3f3f"/>
   </g>
   <g id="line2d_91">
    <path d="M 728.820313 151.666805 
L 728.820313 151.666805 
" clip-path="url(#p869ce7ef8c)" style="fill: none; stroke: #3f3f3f"/>
   </g>
   <g id="line2d_92">
    <path d="M 718.869938 151.666805 
L 738.770688 151.666805 
" clip-path="url(#p869ce7ef8c)" style="fill: none; stroke: #3f3f3f; stroke-linecap: square"/>
   </g>
   <g id="line2d_93">
    <path d="M 718.869938 151.666805 
L 738.770688 151.666805 
" clip-path="url(#p869ce7ef8c)" style="fill: none; stroke: #3f3f3f; stroke-linecap: square"/>
   </g>
   <g id="line2d_94"/>
   <g id="patch_17">
    <path d="M 758.671438 326.682261 
L 798.472938 326.682261 
L 798.472938 303.13758 
L 758.671438 303.13758 
L 758.671438 326.682261 
z
" clip-path="url(#p869ce7ef8c)" style="fill: #3274a1; stroke: #3f3f3f; stroke-linejoin: miter"/>
   </g>
   <g id="line2d_95">
    <path d="M 778.572188 326.682261 
L 778.572188 333.745665 
" clip-path="url(#p869ce7ef8c)" style="fill: none; stroke: #3f3f3f"/>
   </g>
   <g id="line2d_96">
    <path d="M 778.572188 303.13758 
L 778.572188 277.238432 
" clip-path="url(#p869ce7ef8c)" style="fill: none; stroke: #3f3f3f"/>
   </g>
   <g id="line2d_97">
    <path d="M 768.621813 333.745665 
L 788.522563 333.745665 
" clip-path="url(#p869ce7ef8c)" style="fill: none; stroke: #3f3f3f; stroke-linecap: square"/>
   </g>
   <g id="line2d_98">
    <path d="M 768.621813 277.238432 
L 788.522563 277.238432 
" clip-path="url(#p869ce7ef8c)" style="fill: none; stroke: #3f3f3f; stroke-linecap: square"/>
   </g>
   <g id="line2d_99">
    <g clip-path="url(#p869ce7ef8c)">
     <use xlink:href="#m39a9632659" x="778.572188" y="198.756165" style="fill-opacity: 0; stroke: #3f3f3f"/>
     <use xlink:href="#m39a9632659" x="778.572188" y="230.149072" style="fill-opacity: 0; stroke: #3f3f3f"/>
     <use xlink:href="#m39a9632659" x="778.572188" y="167.363258" style="fill-opacity: 0; stroke: #3f3f3f"/>
    </g>
   </g>
   <g id="patch_18">
    <path d="M 808.423313 324.327792 
L 848.224813 324.327792 
L 848.224813 303.922403 
L 808.423313 303.922403 
L 808.423313 324.327792 
z
" clip-path="url(#p869ce7ef8c)" style="fill: #3274a1; stroke: #3f3f3f; stroke-linejoin: miter"/>
   </g>
   <g id="line2d_100">
    <path d="M 828.324063 324.327792 
L 828.324063 336.884955 
" clip-path="url(#p869ce7ef8c)" style="fill: none; stroke: #3f3f3f"/>
   </g>
   <g id="line2d_101">
    <path d="M 828.324063 303.922403 
L 828.324063 288.22595 
" clip-path="url(#p869ce7ef8c)" style="fill: none; stroke: #3f3f3f"/>
   </g>
   <g id="line2d_102">
    <path d="M 818.373688 336.884955 
L 838.274438 336.884955 
" clip-path="url(#p869ce7ef8c)" style="fill: none; stroke: #3f3f3f; stroke-linecap: square"/>
   </g>
   <g id="line2d_103">
    <path d="M 818.373688 288.22595 
L 838.274438 288.22595 
" clip-path="url(#p869ce7ef8c)" style="fill: none; stroke: #3f3f3f; stroke-linecap: square"/>
   </g>
   <g id="line2d_104">
    <g clip-path="url(#p869ce7ef8c)">
     <use xlink:href="#m39a9632659" x="828.324063" y="272.529496" style="fill-opacity: 0; stroke: #3f3f3f"/>
     <use xlink:href="#m39a9632659" x="828.324063" y="261.541979" style="fill-opacity: 0; stroke: #3f3f3f"/>
     <use xlink:href="#m39a9632659" x="828.324063" y="237.997299" style="fill-opacity: 0; stroke: #3f3f3f"/>
     <use xlink:href="#m39a9632659" x="828.324063" y="261.541979" style="fill-opacity: 0; stroke: #3f3f3f"/>
     <use xlink:href="#m39a9632659" x="828.324063" y="167.363258" style="fill-opacity: 0; stroke: #3f3f3f"/>
    </g>
   </g>
   <g id="line2d_105">
    <path d="M 62.145188 245.845525 
L 101.946688 245.845525 
" clip-path="url(#p869ce7ef8c)" style="fill: none; stroke: #3f3f3f"/>
   </g>
   <g id="line2d_106">
    <path d="M 111.897063 214.452618 
L 151.698563 214.452618 
" clip-path="url(#p869ce7ef8c)" style="fill: none; stroke: #3f3f3f"/>
   </g>
   <g id="line2d_107">
    <path d="M 161.648938 292.934886 
L 201.450438 292.934886 
" clip-path="url(#p869ce7ef8c)" style="fill: none; stroke: #3f3f3f"/>
   </g>
   <g id="line2d_108">
    <path d="M 211.400813 308.631339 
L 251.202313 308.631339 
" clip-path="url(#p869ce7ef8c)" style="fill: none; stroke: #3f3f3f"/>
   </g>
   <g id="line2d_109">
    <path d="M 261.152688 245.845525 
L 300.954188 245.845525 
" clip-path="url(#p869ce7ef8c)" style="fill: none; stroke: #3f3f3f"/>
   </g>
   <g id="line2d_110">
    <path d="M 310.904562 222.300845 
L 350.706063 222.300845 
" clip-path="url(#p869ce7ef8c)" style="fill: none; stroke: #3f3f3f"/>
   </g>
   <g id="line2d_111">
    <path d="M 360.656438 277.238432 
L 400.457938 277.238432 
" clip-path="url(#p869ce7ef8c)" style="fill: none; stroke: #3f3f3f"/>
   </g>
   <g id="line2d_112">
    <path d="M 410.408313 316.479566 
L 450.209813 316.479566 
" clip-path="url(#p869ce7ef8c)" style="fill: none; stroke: #3f3f3f"/>
   </g>
   <g id="line2d_113">
    <path d="M 460.160188 325.897438 
L 499.961688 325.897438 
" clip-path="url(#p869ce7ef8c)" style="fill: none; stroke: #3f3f3f"/>
   </g>
   <g id="line2d_114">
    <path d="M 509.912063 241.136589 
L 549.713563 241.136589 
" clip-path="url(#p869ce7ef8c)" style="fill: none; stroke: #3f3f3f"/>
   </g>
   <g id="line2d_115">
    <path d="M 559.663938 308.631339 
L 599.465438 308.631339 
" clip-path="url(#p869ce7ef8c)" style="fill: none; stroke: #3f3f3f"/>
   </g>
   <g id="line2d_116">
    <path d="M 609.415813 327.467083 
L 649.217313 327.467083 
" clip-path="url(#p869ce7ef8c)" style="fill: none; stroke: #3f3f3f"/>
   </g>
   <g id="line2d_117">
    <path d="M 659.167688 300.783112 
L 698.969188 300.783112 
" clip-path="url(#p869ce7ef8c)" style="fill: none; stroke: #3f3f3f"/>
   </g>
   <g id="line2d_118">
    <path d="M 708.919563 151.666805 
L 748.721063 151.666805 
" clip-path="url(#p869ce7ef8c)" style="fill: none; stroke: #3f3f3f"/>
   </g>
   <g id="line2d_119">
    <path d="M 758.671438 313.340275 
L 798.472938 313.340275 
" clip-path="url(#p869ce7ef8c)" style="fill: none; stroke: #3f3f3f"/>
   </g>
   <g id="line2d_120">
    <path d="M 808.423313 316.479566 
L 848.224813 316.479566 
" clip-path="url(#p869ce7ef8c)" style="fill: none; stroke: #3f3f3f"/>
   </g>
   <g id="patch_19">
    <path d="M 57.17 354.935877 
L 57.17 26.88 
" style="fill: none; stroke: #000000; stroke-width: 0.8; stroke-linejoin: miter; stroke-linecap: square"/>
   </g>
   <g id="patch_20">
    <path d="M 853.2 354.935877 
L 853.2 26.88 
" style="fill: none; stroke: #000000; stroke-width: 0.8; stroke-linejoin: miter; stroke-linecap: square"/>
   </g>
   <g id="patch_21">
    <path d="M 57.17 354.935877 
L 853.2 354.935877 
" style="fill: none; stroke: #000000; stroke-width: 0.8; stroke-linejoin: miter; stroke-linecap: square"/>
   </g>
   <g id="patch_22">
    <path d="M 57.17 26.88 
L 853.2 26.88 
" style="fill: none; stroke: #000000; stroke-width: 0.8; stroke-linejoin: miter; stroke-linecap: square"/>
   </g>
   <g id="text_27">
    <!-- Price Distribution by Brand -->
    <g transform="translate(374.592813 20.88) scale(0.12 -0.12)">
     <defs>
      <path id="DejaVuSans-44" d="M 1259 4147 
L 1259 519 
L 2022 519 
Q 2988 519 3436 956 
Q 3884 1394 3884 2338 
Q 3884 3275 3436 3711 
Q 2988 4147 2022 4147 
L 1259 4147 
z
M 628 4666 
L 1925 4666 
Q 3281 4666 3915 4102 
Q 4550 3538 4550 2338 
Q 4550 1131 3912 565 
Q 3275 0 1925 0 
L 628 0 
L 628 4666 
z
" transform="scale(0.015625)"/>
     </defs>
     <use xlink:href="#DejaVuSans-50"/>
     <use xlink:href="#DejaVuSans-72" x="58.552734"/>
     <use xlink:href="#DejaVuSans-69" x="99.666016"/>
     <use xlink:href="#DejaVuSans-63" x="127.449219"/>
     <use xlink:href="#DejaVuSans-65" x="182.429688"/>
     <use xlink:href="#DejaVuSans-20" x="243.953125"/>
     <use xlink:href="#DejaVuSans-44" x="275.740234"/>
     <use xlink:href="#DejaVuSans-69" x="352.742188"/>
     <use xlink:href="#DejaVuSans-73" x="380.525391"/>
     <use xlink:href="#DejaVuSans-74" x="432.625"/>
     <use xlink:href="#DejaVuSans-72" x="471.833984"/>
     <use xlink:href="#DejaVuSans-69" x="512.947266"/>
     <use xlink:href="#DejaVuSans-62" x="540.730469"/>
     <use xlink:href="#DejaVuSans-75" x="604.207031"/>
     <use xlink:href="#DejaVuSans-74" x="667.585938"/>
     <use xlink:href="#DejaVuSans-69" x="706.794922"/>
     <use xlink:href="#DejaVuSans-6f" x="734.578125"/>
     <use xlink:href="#DejaVuSans-6e" x="795.759766"/>
     <use xlink:href="#DejaVuSans-20" x="859.138672"/>
     <use xlink:href="#DejaVuSans-62" x="890.925781"/>
     <use xlink:href="#DejaVuSans-79" x="954.402344"/>
     <use xlink:href="#DejaVuSans-20" x="1013.582031"/>
     <use xlink:href="#DejaVuSans-42" x="1045.369141"/>
     <use xlink:href="#DejaVuSans-72" x="1113.972656"/>
     <use xlink:href="#DejaVuSans-61" x="1155.085938"/>
     <use xlink:href="#DejaVuSans-6e" x="1216.365234"/>
     <use xlink:href="#DejaVuSans-64" x="1279.744141"/>
    </g>
   </g>
  </g>
 </g>
 <defs>
  <clipPath id="p869ce7ef8c">
   <rect x="57.17" y="26.88" width="796.03" height="328.055877"/>
  </clipPath>
 </defs>
</svg>
