<?xml version="1.0" encoding="utf-8" standalone="no"?>
<!DOCTYPE svg PUBLIC "-//W3C//DTD SVG 1.1//EN"
  "http://www.w3.org/Graphics/SVG/1.1/DTD/svg11.dtd">
<svg xmlns:xlink="http://www.w3.org/1999/xlink" width="460.8pt" height="345.6pt" viewBox="0 0 460.8 345.6" xmlns="http://www.w3.org/2000/svg" version="1.1">
 <metadata>
  <rdf:RDF xmlns:dc="http://purl.org/dc/elements/1.1/" xmlns:cc="http://creativecommons.org/ns#" xmlns:rdf="http://www.w3.org/1999/02/22-rdf-syntax-ns#">
   <cc:Work>
    <dc:type rdf:resource="http://purl.org/dc/dcmitype/StillImage"/>
    <dc:date>2023-11-29T11:51:09.570077</dc:date>
    <dc:format>image/svg+xml</dc:format>
    <dc:creator>
     <cc:Agent>
      <dc:title>Matplotlib v3.7.2, https://matplotlib.org/</dc:title>
     </cc:Agent>
    </dc:creator>
   </cc:Work>
  </rdf:RDF>
 </metadata>
 <defs>
  <style type="text/css">*{stroke-linejoin: round; stroke-linecap: butt}</style>
 </defs>
 <g id="figure_1">
  <g id="patch_1">
   <path d="M 0 345.6 
L 460.8 345.6 
L 460.8 0 
L 0 0 
z
" style="fill: #ffffff"/>
  </g>
  <g id="axes_1">
   <g id="patch_2">
    <path d="M 57.6 307.584 
L 414.72 307.584 
L 414.72 41.472 
L 57.6 41.472 
z
" style="fill: #ffffff"/>
   </g>
   <g id="PathCollection_1">
    <defs>
     <path id="mfc26283995" d="M 0 3 
C 0.795609 3 1.55874 2.683901 2.12132 2.12132 
C 2.683901 1.55874 3 0.795609 3 0 
C 3 -0.795609 2.683901 -1.55874 2.12132 -2.12132 
C 1.55874 -2.683901 0.795609 -3 0 -3 
C -0.795609 -3 -1.55874 -2.683901 -2.12132 -2.12132 
C -2.683901 -1.55874 -3 -0.795609 -3 0 
C -3 0.795609 -2.683901 1.55874 -2.12132 2.12132 
C -1.55874 2.683901 -0.795609 3 0 3 
z
" style="stroke: #1f77b4"/>
    </defs>
    <g clip-path="url(#p98e72208d7)">
     <use xlink:href="#mfc26283995" x="315.947982" y="129.161842" style="fill: #1f77b4; stroke: #1f77b4"/>
     <use xlink:href="#mfc26283995" x="139.86416" y="269.365686" style="fill: #1f77b4; stroke: #1f77b4"/>
     <use xlink:href="#mfc26283995" x="321.450601" y="172.475923" style="fill: #1f77b4; stroke: #1f77b4"/>
     <use xlink:href="#mfc26283995" x="238.91131" y="107.87885" style="fill: #1f77b4; stroke: #1f77b4"/>
     <use xlink:href="#mfc26283995" x="79.335347" y="138.398767" style="fill: #1f77b4; stroke: #1f77b4"/>
     <use xlink:href="#mfc26283995" x="249.916549" y="293.640462" style="fill: #1f77b4; stroke: #1f77b4"/>
     <use xlink:href="#mfc26283995" x="288.434884" y="290.854738" style="fill: #1f77b4; stroke: #1f77b4"/>
     <use xlink:href="#mfc26283995" x="337.958459" y="135.226025" style="fill: #1f77b4; stroke: #1f77b4"/>
     <use xlink:href="#mfc26283995" x="238.91131" y="168.781406" style="fill: #1f77b4; stroke: #1f77b4"/>
     <use xlink:href="#mfc26283995" x="277.429646" y="206.162728" style="fill: #1f77b4; stroke: #1f77b4"/>
     <use xlink:href="#mfc26283995" x="370.974176" y="171.230713" style="fill: #1f77b4; stroke: #1f77b4"/>
     <use xlink:href="#mfc26283995" x="112.351063" y="107.745492" style="fill: #1f77b4; stroke: #1f77b4"/>
     <use xlink:href="#mfc26283995" x="348.963698" y="251.766696" style="fill: #1f77b4; stroke: #1f77b4"/>
     <use xlink:href="#mfc26283995" x="304.942743" y="100.885424" style="fill: #1f77b4; stroke: #1f77b4"/>
     <use xlink:href="#mfc26283995" x="359.968937" y="261.249329" style="fill: #1f77b4; stroke: #1f77b4"/>
     <use xlink:href="#mfc26283995" x="172.879877" y="142.063653" style="fill: #1f77b4; stroke: #1f77b4"/>
     <use xlink:href="#mfc26283995" x="343.461079" y="147.310192" style="fill: #1f77b4; stroke: #1f77b4"/>
     <use xlink:href="#mfc26283995" x="365.471556" y="209.924261" style="fill: #1f77b4; stroke: #1f77b4"/>
     <use xlink:href="#mfc26283995" x="271.927026" y="261.254656" style="fill: #1f77b4; stroke: #1f77b4"/>
     <use xlink:href="#mfc26283995" x="167.377257" y="106.703269" style="fill: #1f77b4; stroke: #1f77b4"/>
     <use xlink:href="#mfc26283995" x="139.86416" y="126.736102" style="fill: #1f77b4; stroke: #1f77b4"/>
     <use xlink:href="#mfc26283995" x="387.482034" y="59.868637" style="fill: #1f77b4; stroke: #1f77b4"/>
     <use xlink:href="#mfc26283995" x="288.434884" y="275.265303" style="fill: #1f77b4; stroke: #1f77b4"/>
     <use xlink:href="#mfc26283995" x="161.874638" y="73.878508" style="fill: #1f77b4; stroke: #1f77b4"/>
     <use xlink:href="#mfc26283995" x="354.466317" y="91.495012" style="fill: #1f77b4; stroke: #1f77b4"/>
     <use xlink:href="#mfc26283995" x="150.869399" y="180.670627" style="fill: #1f77b4; stroke: #1f77b4"/>
     <use xlink:href="#mfc26283995" x="266.424407" y="193.45047" style="fill: #1f77b4; stroke: #1f77b4"/>
     <use xlink:href="#mfc26283995" x="128.858921" y="159.317129" style="fill: #1f77b4; stroke: #1f77b4"/>
     <use xlink:href="#mfc26283995" x="233.40869" y="100.169649" style="fill: #1f77b4; stroke: #1f77b4"/>
     <use xlink:href="#mfc26283995" x="398.487273" y="222.033712" style="fill: #1f77b4; stroke: #1f77b4"/>
     <use xlink:href="#mfc26283995" x="205.895593" y="267.982152" style="fill: #1f77b4; stroke: #1f77b4"/>
     <use xlink:href="#mfc26283995" x="167.377257" y="115.815297" style="fill: #1f77b4; stroke: #1f77b4"/>
     <use xlink:href="#mfc26283995" x="211.398213" y="129.206169" style="fill: #1f77b4; stroke: #1f77b4"/>
     <use xlink:href="#mfc26283995" x="161.874638" y="79.759281" style="fill: #1f77b4; stroke: #1f77b4"/>
     <use xlink:href="#mfc26283995" x="398.487273" y="288.052344" style="fill: #1f77b4; stroke: #1f77b4"/>
     <use xlink:href="#mfc26283995" x="112.351063" y="198.385682" style="fill: #1f77b4; stroke: #1f77b4"/>
     <use xlink:href="#mfc26283995" x="332.45584" y="57.214584" style="fill: #1f77b4; stroke: #1f77b4"/>
     <use xlink:href="#mfc26283995" x="95.843205" y="215.6388" style="fill: #1f77b4; stroke: #1f77b4"/>
     <use xlink:href="#mfc26283995" x="321.450601" y="293.321449" style="fill: #1f77b4; stroke: #1f77b4"/>
     <use xlink:href="#mfc26283995" x="194.890354" y="233.586076" style="fill: #1f77b4; stroke: #1f77b4"/>
    </g>
   </g>
   <g id="matplotlib.axis_1">
    <g id="xtick_1">
     <g id="line2d_1">
      <defs>
       <path id="m532ece045e" d="M 0 0 
L 0 3.5 
" style="stroke: #000000; stroke-width: 0.8"/>
      </defs>
      <g>
       <use xlink:href="#m532ece045e" x="73.832727" y="307.584" style="stroke: #000000; stroke-width: 0.8"/>
      </g>
     </g>
     <g id="text_1">
      <!-- 0 -->
      <g transform="translate(70.651477 322.182437) scale(0.1 -0.1)">
       <defs>
        <path id="DejaVuSans-30" d="M 2034 4250 
Q 1547 4250 1301 3770 
Q 1056 3291 1056 2328 
Q 1056 1369 1301 889 
Q 1547 409 2034 409 
Q 2525 409 2770 889 
Q 3016 1369 3016 2328 
Q 3016 3291 2770 3770 
Q 2525 4250 2034 4250 
z
M 2034 4750 
Q 2819 4750 3233 4129 
Q 3647 3509 3647 2328 
Q 3647 1150 3233 529 
Q 2819 -91 2034 -91 
Q 1250 -91 836 529 
Q 422 1150 422 2328 
Q 422 3509 836 4129 
Q 1250 4750 2034 4750 
z
" transform="scale(0.015625)"/>
       </defs>
       <use xlink:href="#DejaVuSans-30"/>
      </g>
     </g>
    </g>
    <g id="xtick_2">
     <g id="line2d_2">
      <g>
       <use xlink:href="#m532ece045e" x="128.858921" y="307.584" style="stroke: #000000; stroke-width: 0.8"/>
      </g>
     </g>
     <g id="text_2">
      <!-- 10 -->
      <g transform="translate(122.496421 322.182437) scale(0.1 -0.1)">
       <defs>
        <path id="DejaVuSans-31" d="M 794 531 
L 1825 531 
L 1825 4091 
L 703 3866 
L 703 4441 
L 1819 4666 
L 2450 4666 
L 2450 531 
L 3481 531 
L 3481 0 
L 794 0 
L 794 531 
z
" transform="scale(0.015625)"/>
       </defs>
       <use xlink:href="#DejaVuSans-31"/>
       <use xlink:href="#DejaVuSans-30" x="63.623047"/>
      </g>
     </g>
    </g>
    <g id="xtick_3">
     <g id="line2d_3">
      <g>
       <use xlink:href="#m532ece045e" x="183.885116" y="307.584" style="stroke: #000000; stroke-width: 0.8"/>
      </g>
     </g>
     <g id="text_3">
      <!-- 20 -->
      <g transform="translate(177.522616 322.182437) scale(0.1 -0.1)">
       <defs>
        <path id="DejaVuSans-32" d="M 1228 531 
L 3431 531 
L 3431 0 
L 469 0 
L 469 531 
Q 828 903 1448 1529 
Q 2069 2156 2228 2338 
Q 2531 2678 2651 2914 
Q 2772 3150 2772 3378 
Q 2772 3750 2511 3984 
Q 2250 4219 1831 4219 
Q 1534 4219 1204 4116 
Q 875 4013 500 3803 
L 500 4441 
Q 881 4594 1212 4672 
Q 1544 4750 1819 4750 
Q 2544 4750 2975 4387 
Q 3406 4025 3406 3419 
Q 3406 3131 3298 2873 
Q 3191 2616 2906 2266 
Q 2828 2175 2409 1742 
Q 1991 1309 1228 531 
z
" transform="scale(0.015625)"/>
       </defs>
       <use xlink:href="#DejaVuSans-32"/>
       <use xlink:href="#DejaVuSans-30" x="63.623047"/>
      </g>
     </g>
    </g>
    <g id="xtick_4">
     <g id="line2d_4">
      <g>
       <use xlink:href="#m532ece045e" x="238.91131" y="307.584" style="stroke: #000000; stroke-width: 0.8"/>
      </g>
     </g>
     <g id="text_4">
      <!-- 30 -->
      <g transform="translate(232.54881 322.182437) scale(0.1 -0.1)">
       <defs>
        <path id="DejaVuSans-33" d="M 2597 2516 
Q 3050 2419 3304 2112 
Q 3559 1806 3559 1356 
Q 3559 666 3084 287 
Q 2609 -91 1734 -91 
Q 1441 -91 1130 -33 
Q 819 25 488 141 
L 488 750 
Q 750 597 1062 519 
Q 1375 441 1716 441 
Q 2309 441 2620 675 
Q 2931 909 2931 1356 
Q 2931 1769 2642 2001 
Q 2353 2234 1838 2234 
L 1294 2234 
L 1294 2753 
L 1863 2753 
Q 2328 2753 2575 2939 
Q 2822 3125 2822 3475 
Q 2822 3834 2567 4026 
Q 2313 4219 1838 4219 
Q 1578 4219 1281 4162 
Q 984 4106 628 3988 
L 628 4550 
Q 988 4650 1302 4700 
Q 1616 4750 1894 4750 
Q 2613 4750 3031 4423 
Q 3450 4097 3450 3541 
Q 3450 3153 3228 2886 
Q 3006 2619 2597 2516 
z
" transform="scale(0.015625)"/>
       </defs>
       <use xlink:href="#DejaVuSans-33"/>
       <use xlink:href="#DejaVuSans-30" x="63.623047"/>
      </g>
     </g>
    </g>
    <g id="xtick_5">
     <g id="line2d_5">
      <g>
       <use xlink:href="#m532ece045e" x="293.937504" y="307.584" style="stroke: #000000; stroke-width: 0.8"/>
      </g>
     </g>
     <g id="text_5">
      <!-- 40 -->
      <g transform="translate(287.575004 322.182437) scale(0.1 -0.1)">
       <defs>
        <path id="DejaVuSans-34" d="M 2419 4116 
L 825 1625 
L 2419 1625 
L 2419 4116 
z
M 2253 4666 
L 3047 4666 
L 3047 1625 
L 3713 1625 
L 3713 1100 
L 3047 1100 
L 3047 0 
L 2419 0 
L 2419 1100 
L 313 1100 
L 313 1709 
L 2253 4666 
z
" transform="scale(0.015625)"/>
       </defs>
       <use xlink:href="#DejaVuSans-34"/>
       <use xlink:href="#DejaVuSans-30" x="63.623047"/>
      </g>
     </g>
    </g>
    <g id="xtick_6">
     <g id="line2d_6">
      <g>
       <use xlink:href="#m532ece045e" x="348.963698" y="307.584" style="stroke: #000000; stroke-width: 0.8"/>
      </g>
     </g>
     <g id="text_6">
      <!-- 50 -->
      <g transform="translate(342.601198 322.182437) scale(0.1 -0.1)">
       <defs>
        <path id="DejaVuSans-35" d="M 691 4666 
L 3169 4666 
L 3169 4134 
L 1269 4134 
L 1269 2991 
Q 1406 3038 1543 3061 
Q 1681 3084 1819 3084 
Q 2600 3084 3056 2656 
Q 3513 2228 3513 1497 
Q 3513 744 3044 326 
Q 2575 -91 1722 -91 
Q 1428 -91 1123 -41 
Q 819 9 494 109 
L 494 744 
Q 775 591 1075 516 
Q 1375 441 1709 441 
Q 2250 441 2565 725 
Q 2881 1009 2881 1497 
Q 2881 1984 2565 2268 
Q 2250 2553 1709 2553 
Q 1456 2553 1204 2497 
Q 953 2441 691 2322 
L 691 4666 
z
" transform="scale(0.015625)"/>
       </defs>
       <use xlink:href="#DejaVuSans-35"/>
       <use xlink:href="#DejaVuSans-30" x="63.623047"/>
      </g>
     </g>
    </g>
    <g id="xtick_7">
     <g id="line2d_7">
      <g>
       <use xlink:href="#m532ece045e" x="403.989892" y="307.584" style="stroke: #000000; stroke-width: 0.8"/>
      </g>
     </g>
     <g id="text_7">
      <!-- 60 -->
      <g transform="translate(397.627392 322.182437) scale(0.1 -0.1)">
       <defs>
        <path id="DejaVuSans-36" d="M 2113 2584 
Q 1688 2584 1439 2293 
Q 1191 2003 1191 1497 
Q 1191 994 1439 701 
Q 1688 409 2113 409 
Q 2538 409 2786 701 
Q 3034 994 3034 1497 
Q 3034 2003 2786 2293 
Q 2538 2584 2113 2584 
z
M 3366 4563 
L 3366 3988 
Q 3128 4100 2886 4159 
Q 2644 4219 2406 4219 
Q 1781 4219 1451 3797 
Q 1122 3375 1075 2522 
Q 1259 2794 1537 2939 
Q 1816 3084 2150 3084 
Q 2853 3084 3261 2657 
Q 3669 2231 3669 1497 
Q 3669 778 3244 343 
Q 2819 -91 2113 -91 
Q 1303 -91 875 529 
Q 447 1150 447 2328 
Q 447 3434 972 4092 
Q 1497 4750 2381 4750 
Q 2619 4750 2861 4703 
Q 3103 4656 3366 4563 
z
" transform="scale(0.015625)"/>
       </defs>
       <use xlink:href="#DejaVuSans-36"/>
       <use xlink:href="#DejaVuSans-30" x="63.623047"/>
      </g>
     </g>
    </g>
    <g id="text_8">
     <!-- Minutes past the hour -->
     <g transform="translate(181.249844 335.860562) scale(0.1 -0.1)">
      <defs>
       <path id="DejaVuSans-4d" d="M 628 4666 
L 1569 4666 
L 2759 1491 
L 3956 4666 
L 4897 4666 
L 4897 0 
L 4281 0 
L 4281 4097 
L 3078 897 
L 2444 897 
L 1241 4097 
L 1241 0 
L 628 0 
L 628 4666 
z
" transform="scale(0.015625)"/>
       <path id="DejaVuSans-69" d="M 603 3500 
L 1178 3500 
L 1178 0 
L 603 0 
L 603 3500 
z
M 603 4863 
L 1178 4863 
L 1178 4134 
L 603 4134 
L 603 4863 
z
" transform="scale(0.015625)"/>
       <path id="DejaVuSans-6e" d="M 3513 2113 
L 3513 0 
L 2938 0 
L 2938 2094 
Q 2938 2591 2744 2837 
Q 2550 3084 2163 3084 
Q 1697 3084 1428 2787 
Q 1159 2491 1159 1978 
L 1159 0 
L 581 0 
L 581 3500 
L 1159 3500 
L 1159 2956 
Q 1366 3272 1645 3428 
Q 1925 3584 2291 3584 
Q 2894 3584 3203 3211 
Q 3513 2838 3513 2113 
z
" transform="scale(0.015625)"/>
       <path id="DejaVuSans-75" d="M 544 1381 
L 544 3500 
L 1119 3500 
L 1119 1403 
Q 1119 906 1312 657 
Q 1506 409 1894 409 
Q 2359 409 2629 706 
Q 2900 1003 2900 1516 
L 2900 3500 
L 3475 3500 
L 3475 0 
L 2900 0 
L 2900 538 
Q 2691 219 2414 64 
Q 2138 -91 1772 -91 
Q 1169 -91 856 284 
Q 544 659 544 1381 
z
M 1991 3584 
L 1991 3584 
z
" transform="scale(0.015625)"/>
       <path id="DejaVuSans-74" d="M 1172 4494 
L 1172 3500 
L 2356 3500 
L 2356 3053 
L 1172 3053 
L 1172 1153 
Q 1172 725 1289 603 
Q 1406 481 1766 481 
L 2356 481 
L 2356 0 
L 1766 0 
Q 1100 0 847 248 
Q 594 497 594 1153 
L 594 3053 
L 172 3053 
L 172 3500 
L 594 3500 
L 594 4494 
L 1172 4494 
z
" transform="scale(0.015625)"/>
       <path id="DejaVuSans-65" d="M 3597 1894 
L 3597 1613 
L 953 1613 
Q 991 1019 1311 708 
Q 1631 397 2203 397 
Q 2534 397 2845 478 
Q 3156 559 3463 722 
L 3463 178 
Q 3153 47 2828 -22 
Q 2503 -91 2169 -91 
Q 1331 -91 842 396 
Q 353 884 353 1716 
Q 353 2575 817 3079 
Q 1281 3584 2069 3584 
Q 2775 3584 3186 3129 
Q 3597 2675 3597 1894 
z
M 3022 2063 
Q 3016 2534 2758 2815 
Q 2500 3097 2075 3097 
Q 1594 3097 1305 2825 
Q 1016 2553 972 2059 
L 3022 2063 
z
" transform="scale(0.015625)"/>
       <path id="DejaVuSans-73" d="M 2834 3397 
L 2834 2853 
Q 2591 2978 2328 3040 
Q 2066 3103 1784 3103 
Q 1356 3103 1142 2972 
Q 928 2841 928 2578 
Q 928 2378 1081 2264 
Q 1234 2150 1697 2047 
L 1894 2003 
Q 2506 1872 2764 1633 
Q 3022 1394 3022 966 
Q 3022 478 2636 193 
Q 2250 -91 1575 -91 
Q 1294 -91 989 -36 
Q 684 19 347 128 
L 347 722 
Q 666 556 975 473 
Q 1284 391 1588 391 
Q 1994 391 2212 530 
Q 2431 669 2431 922 
Q 2431 1156 2273 1281 
Q 2116 1406 1581 1522 
L 1381 1569 
Q 847 1681 609 1914 
Q 372 2147 372 2553 
Q 372 3047 722 3315 
Q 1072 3584 1716 3584 
Q 2034 3584 2315 3537 
Q 2597 3491 2834 3397 
z
" transform="scale(0.015625)"/>
       <path id="DejaVuSans-20" transform="scale(0.015625)"/>
       <path id="DejaVuSans-70" d="M 1159 525 
L 1159 -1331 
L 581 -1331 
L 581 3500 
L 1159 3500 
L 1159 2969 
Q 1341 3281 1617 3432 
Q 1894 3584 2278 3584 
Q 2916 3584 3314 3078 
Q 3713 2572 3713 1747 
Q 3713 922 3314 415 
Q 2916 -91 2278 -91 
Q 1894 -91 1617 61 
Q 1341 213 1159 525 
z
M 3116 1747 
Q 3116 2381 2855 2742 
Q 2594 3103 2138 3103 
Q 1681 3103 1420 2742 
Q 1159 2381 1159 1747 
Q 1159 1113 1420 752 
Q 1681 391 2138 391 
Q 2594 391 2855 752 
Q 3116 1113 3116 1747 
z
" transform="scale(0.015625)"/>
       <path id="DejaVuSans-61" d="M 2194 1759 
Q 1497 1759 1228 1600 
Q 959 1441 959 1056 
Q 959 750 1161 570 
Q 1363 391 1709 391 
Q 2188 391 2477 730 
Q 2766 1069 2766 1631 
L 2766 1759 
L 2194 1759 
z
M 3341 1997 
L 3341 0 
L 2766 0 
L 2766 531 
Q 2569 213 2275 61 
Q 1981 -91 1556 -91 
Q 1019 -91 701 211 
Q 384 513 384 1019 
Q 384 1609 779 1909 
Q 1175 2209 1959 2209 
L 2766 2209 
L 2766 2266 
Q 2766 2663 2505 2880 
Q 2244 3097 1772 3097 
Q 1472 3097 1187 3025 
Q 903 2953 641 2809 
L 641 3341 
Q 956 3463 1253 3523 
Q 1550 3584 1831 3584 
Q 2591 3584 2966 3190 
Q 3341 2797 3341 1997 
z
" transform="scale(0.015625)"/>
       <path id="DejaVuSans-68" d="M 3513 2113 
L 3513 0 
L 2938 0 
L 2938 2094 
Q 2938 2591 2744 2837 
Q 2550 3084 2163 3084 
Q 1697 3084 1428 2787 
Q 1159 2491 1159 1978 
L 1159 0 
L 581 0 
L 581 4863 
L 1159 4863 
L 1159 2956 
Q 1366 3272 1645 3428 
Q 1925 3584 2291 3584 
Q 2894 3584 3203 3211 
Q 3513 2838 3513 2113 
z
" transform="scale(0.015625)"/>
       <path id="DejaVuSans-6f" d="M 1959 3097 
Q 1497 3097 1228 2736 
Q 959 2375 959 1747 
Q 959 1119 1226 758 
Q 1494 397 1959 397 
Q 2419 397 2687 759 
Q 2956 1122 2956 1747 
Q 2956 2369 2687 2733 
Q 2419 3097 1959 3097 
z
M 1959 3584 
Q 2709 3584 3137 3096 
Q 3566 2609 3566 1747 
Q 3566 888 3137 398 
Q 2709 -91 1959 -91 
Q 1206 -91 779 398 
Q 353 888 353 1747 
Q 353 2609 779 3096 
Q 1206 3584 1959 3584 
z
" transform="scale(0.015625)"/>
       <path id="DejaVuSans-72" d="M 2631 2963 
Q 2534 3019 2420 3045 
Q 2306 3072 2169 3072 
Q 1681 3072 1420 2755 
Q 1159 2438 1159 1844 
L 1159 0 
L 581 0 
L 581 3500 
L 1159 3500 
L 1159 2956 
Q 1341 3275 1631 3429 
Q 1922 3584 2338 3584 
Q 2397 3584 2469 3576 
Q 2541 3569 2628 3553 
L 2631 2963 
z
" transform="scale(0.015625)"/>
      </defs>
      <use xlink:href="#DejaVuSans-4d"/>
      <use xlink:href="#DejaVuSans-69" x="86.279297"/>
      <use xlink:href="#DejaVuSans-6e" x="114.0625"/>
      <use xlink:href="#DejaVuSans-75" x="177.441406"/>
      <use xlink:href="#DejaVuSans-74" x="240.820312"/>
      <use xlink:href="#DejaVuSans-65" x="280.029297"/>
      <use xlink:href="#DejaVuSans-73" x="341.552734"/>
      <use xlink:href="#DejaVuSans-20" x="393.652344"/>
      <use xlink:href="#DejaVuSans-70" x="425.439453"/>
      <use xlink:href="#DejaVuSans-61" x="488.916016"/>
      <use xlink:href="#DejaVuSans-73" x="550.195312"/>
      <use xlink:href="#DejaVuSans-74" x="602.294922"/>
      <use xlink:href="#DejaVuSans-20" x="641.503906"/>
      <use xlink:href="#DejaVuSans-74" x="673.291016"/>
      <use xlink:href="#DejaVuSans-68" x="712.5"/>
      <use xlink:href="#DejaVuSans-65" x="775.878906"/>
      <use xlink:href="#DejaVuSans-20" x="837.402344"/>
      <use xlink:href="#DejaVuSans-68" x="869.189453"/>
      <use xlink:href="#DejaVuSans-6f" x="932.568359"/>
      <use xlink:href="#DejaVuSans-75" x="993.75"/>
      <use xlink:href="#DejaVuSans-72" x="1057.128906"/>
     </g>
    </g>
   </g>
   <g id="matplotlib.axis_2">
    <g id="ytick_1">
     <g id="line2d_8">
      <defs>
       <path id="mc8603f408e" d="M 0 0 
L -3.5 0 
" style="stroke: #000000; stroke-width: 0.8"/>
      </defs>
      <g>
       <use xlink:href="#mc8603f408e" x="57.6" y="298.205425" style="stroke: #000000; stroke-width: 0.8"/>
      </g>
     </g>
     <g id="text_9">
      <!-- 0.0 -->
      <g transform="translate(34.696875 302.004644) scale(0.1 -0.1)">
       <defs>
        <path id="DejaVuSans-2e" d="M 684 794 
L 1344 794 
L 1344 0 
L 684 0 
L 684 794 
z
" transform="scale(0.015625)"/>
       </defs>
       <use xlink:href="#DejaVuSans-30"/>
       <use xlink:href="#DejaVuSans-2e" x="63.623047"/>
       <use xlink:href="#DejaVuSans-30" x="95.410156"/>
      </g>
     </g>
    </g>
    <g id="ytick_2">
     <g id="line2d_9">
      <g>
       <use xlink:href="#mc8603f408e" x="57.6" y="249.27794" style="stroke: #000000; stroke-width: 0.8"/>
      </g>
     </g>
     <g id="text_10">
      <!-- 0.2 -->
      <g transform="translate(34.696875 253.077159) scale(0.1 -0.1)">
       <use xlink:href="#DejaVuSans-30"/>
       <use xlink:href="#DejaVuSans-2e" x="63.623047"/>
       <use xlink:href="#DejaVuSans-32" x="95.410156"/>
      </g>
     </g>
    </g>
    <g id="ytick_3">
     <g id="line2d_10">
      <g>
       <use xlink:href="#mc8603f408e" x="57.6" y="200.350455" style="stroke: #000000; stroke-width: 0.8"/>
      </g>
     </g>
     <g id="text_11">
      <!-- 0.4 -->
      <g transform="translate(34.696875 204.149674) scale(0.1 -0.1)">
       <use xlink:href="#DejaVuSans-30"/>
       <use xlink:href="#DejaVuSans-2e" x="63.623047"/>
       <use xlink:href="#DejaVuSans-34" x="95.410156"/>
      </g>
     </g>
    </g>
    <g id="ytick_4">
     <g id="line2d_11">
      <g>
       <use xlink:href="#mc8603f408e" x="57.6" y="151.42297" style="stroke: #000000; stroke-width: 0.8"/>
      </g>
     </g>
     <g id="text_12">
      <!-- 0.6 -->
      <g transform="translate(34.696875 155.222189) scale(0.1 -0.1)">
       <use xlink:href="#DejaVuSans-30"/>
       <use xlink:href="#DejaVuSans-2e" x="63.623047"/>
       <use xlink:href="#DejaVuSans-36" x="95.410156"/>
      </g>
     </g>
    </g>
    <g id="ytick_5">
     <g id="line2d_12">
      <g>
       <use xlink:href="#mc8603f408e" x="57.6" y="102.495485" style="stroke: #000000; stroke-width: 0.8"/>
      </g>
     </g>
     <g id="text_13">
      <!-- 0.8 -->
      <g transform="translate(34.696875 106.294704) scale(0.1 -0.1)">
       <defs>
        <path id="DejaVuSans-38" d="M 2034 2216 
Q 1584 2216 1326 1975 
Q 1069 1734 1069 1313 
Q 1069 891 1326 650 
Q 1584 409 2034 409 
Q 2484 409 2743 651 
Q 3003 894 3003 1313 
Q 3003 1734 2745 1975 
Q 2488 2216 2034 2216 
z
M 1403 2484 
Q 997 2584 770 2862 
Q 544 3141 544 3541 
Q 544 4100 942 4425 
Q 1341 4750 2034 4750 
Q 2731 4750 3128 4425 
Q 3525 4100 3525 3541 
Q 3525 3141 3298 2862 
Q 3072 2584 2669 2484 
Q 3125 2378 3379 2068 
Q 3634 1759 3634 1313 
Q 3634 634 3220 271 
Q 2806 -91 2034 -91 
Q 1263 -91 848 271 
Q 434 634 434 1313 
Q 434 1759 690 2068 
Q 947 2378 1403 2484 
z
M 1172 3481 
Q 1172 3119 1398 2916 
Q 1625 2713 2034 2713 
Q 2441 2713 2670 2916 
Q 2900 3119 2900 3481 
Q 2900 3844 2670 4047 
Q 2441 4250 2034 4250 
Q 1625 4250 1398 4047 
Q 1172 3844 1172 3481 
z
" transform="scale(0.015625)"/>
       </defs>
       <use xlink:href="#DejaVuSans-30"/>
       <use xlink:href="#DejaVuSans-2e" x="63.623047"/>
       <use xlink:href="#DejaVuSans-38" x="95.410156"/>
      </g>
     </g>
    </g>
    <g id="ytick_6">
     <g id="line2d_13">
      <g>
       <use xlink:href="#mc8603f408e" x="57.6" y="53.568" style="stroke: #000000; stroke-width: 0.8"/>
      </g>
     </g>
     <g id="text_14">
      <!-- 1.0 -->
      <g transform="translate(34.696875 57.367219) scale(0.1 -0.1)">
       <use xlink:href="#DejaVuSans-31"/>
       <use xlink:href="#DejaVuSans-2e" x="63.623047"/>
       <use xlink:href="#DejaVuSans-30" x="95.410156"/>
      </g>
     </g>
    </g>
    <g id="text_15">
     <!-- Relative probability of bus arrivals -->
     <g transform="translate(28.617187 259.985031) rotate(-90) scale(0.1 -0.1)">
      <defs>
       <path id="DejaVuSans-52" d="M 2841 2188 
Q 3044 2119 3236 1894 
Q 3428 1669 3622 1275 
L 4263 0 
L 3584 0 
L 2988 1197 
Q 2756 1666 2539 1819 
Q 2322 1972 1947 1972 
L 1259 1972 
L 1259 0 
L 628 0 
L 628 4666 
L 2053 4666 
Q 2853 4666 3247 4331 
Q 3641 3997 3641 3322 
Q 3641 2881 3436 2590 
Q 3231 2300 2841 2188 
z
M 1259 4147 
L 1259 2491 
L 2053 2491 
Q 2509 2491 2742 2702 
Q 2975 2913 2975 3322 
Q 2975 3731 2742 3939 
Q 2509 4147 2053 4147 
L 1259 4147 
z
" transform="scale(0.015625)"/>
       <path id="DejaVuSans-6c" d="M 603 4863 
L 1178 4863 
L 1178 0 
L 603 0 
L 603 4863 
z
" transform="scale(0.015625)"/>
       <path id="DejaVuSans-76" d="M 191 3500 
L 800 3500 
L 1894 563 
L 2988 3500 
L 3597 3500 
L 2284 0 
L 1503 0 
L 191 3500 
z
" transform="scale(0.015625)"/>
       <path id="DejaVuSans-62" d="M 3116 1747 
Q 3116 2381 2855 2742 
Q 2594 3103 2138 3103 
Q 1681 3103 1420 2742 
Q 1159 2381 1159 1747 
Q 1159 1113 1420 752 
Q 1681 391 2138 391 
Q 2594 391 2855 752 
Q 3116 1113 3116 1747 
z
M 1159 2969 
Q 1341 3281 1617 3432 
Q 1894 3584 2278 3584 
Q 2916 3584 3314 3078 
Q 3713 2572 3713 1747 
Q 3713 922 3314 415 
Q 2916 -91 2278 -91 
Q 1894 -91 1617 61 
Q 1341 213 1159 525 
L 1159 0 
L 581 0 
L 581 4863 
L 1159 4863 
L 1159 2969 
z
" transform="scale(0.015625)"/>
       <path id="DejaVuSans-79" d="M 2059 -325 
Q 1816 -950 1584 -1140 
Q 1353 -1331 966 -1331 
L 506 -1331 
L 506 -850 
L 844 -850 
Q 1081 -850 1212 -737 
Q 1344 -625 1503 -206 
L 1606 56 
L 191 3500 
L 800 3500 
L 1894 763 
L 2988 3500 
L 3597 3500 
L 2059 -325 
z
" transform="scale(0.015625)"/>
       <path id="DejaVuSans-66" d="M 2375 4863 
L 2375 4384 
L 1825 4384 
Q 1516 4384 1395 4259 
Q 1275 4134 1275 3809 
L 1275 3500 
L 2222 3500 
L 2222 3053 
L 1275 3053 
L 1275 0 
L 697 0 
L 697 3053 
L 147 3053 
L 147 3500 
L 697 3500 
L 697 3744 
Q 697 4328 969 4595 
Q 1241 4863 1831 4863 
L 2375 4863 
z
" transform="scale(0.015625)"/>
      </defs>
      <use xlink:href="#DejaVuSans-52"/>
      <use xlink:href="#DejaVuSans-65" x="64.982422"/>
      <use xlink:href="#DejaVuSans-6c" x="126.505859"/>
      <use xlink:href="#DejaVuSans-61" x="154.289062"/>
      <use xlink:href="#DejaVuSans-74" x="215.568359"/>
      <use xlink:href="#DejaVuSans-69" x="254.777344"/>
      <use xlink:href="#DejaVuSans-76" x="282.560547"/>
      <use xlink:href="#DejaVuSans-65" x="341.740234"/>
      <use xlink:href="#DejaVuSans-20" x="403.263672"/>
      <use xlink:href="#DejaVuSans-70" x="435.050781"/>
      <use xlink:href="#DejaVuSans-72" x="498.527344"/>
      <use xlink:href="#DejaVuSans-6f" x="537.390625"/>
      <use xlink:href="#DejaVuSans-62" x="598.572266"/>
      <use xlink:href="#DejaVuSans-61" x="662.048828"/>
      <use xlink:href="#DejaVuSans-62" x="723.328125"/>
      <use xlink:href="#DejaVuSans-69" x="786.804688"/>
      <use xlink:href="#DejaVuSans-6c" x="814.587891"/>
      <use xlink:href="#DejaVuSans-69" x="842.371094"/>
      <use xlink:href="#DejaVuSans-74" x="870.154297"/>
      <use xlink:href="#DejaVuSans-79" x="909.363281"/>
      <use xlink:href="#DejaVuSans-20" x="968.542969"/>
      <use xlink:href="#DejaVuSans-6f" x="1000.330078"/>
      <use xlink:href="#DejaVuSans-66" x="1061.511719"/>
      <use xlink:href="#DejaVuSans-20" x="1096.716797"/>
      <use xlink:href="#DejaVuSans-62" x="1128.503906"/>
      <use xlink:href="#DejaVuSans-75" x="1191.980469"/>
      <use xlink:href="#DejaVuSans-73" x="1255.359375"/>
      <use xlink:href="#DejaVuSans-20" x="1307.458984"/>
      <use xlink:href="#DejaVuSans-61" x="1339.246094"/>
      <use xlink:href="#DejaVuSans-72" x="1400.525391"/>
      <use xlink:href="#DejaVuSans-72" x="1439.888672"/>
      <use xlink:href="#DejaVuSans-69" x="1481.001953"/>
      <use xlink:href="#DejaVuSans-76" x="1508.785156"/>
      <use xlink:href="#DejaVuSans-61" x="1567.964844"/>
      <use xlink:href="#DejaVuSans-6c" x="1629.244141"/>
      <use xlink:href="#DejaVuSans-73" x="1657.027344"/>
     </g>
    </g>
   </g>
   <g id="line2d_14">
    <path d="M 73.832727 295.488 
L 79.335347 293.351999 
L 84.837966 289.876912 
L 90.340586 284.474027 
L 95.843205 276.453873 
L 101.345824 265.100392 
L 106.848444 249.796432 
L 112.351063 230.193295 
L 117.853683 206.398582 
L 123.356302 179.138215 
L 128.858921 149.83822 
L 134.361541 120.576954 
L 139.86416 93.882671 
L 145.36678 72.391111 
L 150.869399 58.422175 
L 156.372018 53.568 
L 161.874638 58.393025 
L 167.377257 72.323638 
L 172.879877 93.756506 
L 178.382496 120.356292 
L 183.885116 149.464938 
L 189.387735 178.521822 
L 194.890354 205.402399 
L 200.392974 228.616344 
L 205.895593 247.350789 
L 211.398213 261.384247 
L 216.900832 270.921319 
L 222.403451 276.403641 
L 227.906071 278.342389 
L 233.40869 277.199426 
L 238.91131 273.325406 
L 244.413929 266.949088 
L 249.916549 258.20447 
L 255.419168 247.18037 
L 260.921787 233.97857 
L 266.424407 218.769584 
L 271.927026 201.837948 
L 277.429646 183.611303 
L 282.932265 164.669461 
L 288.434884 145.731551 
L 293.937504 127.621471 
L 299.440123 111.214381 
L 304.942743 97.369535 
L 310.445362 86.856989 
L 315.947982 80.28712 
L 321.450601 78.052088 
L 326.95322 80.287131 
L 332.45584 86.857027 
L 337.958459 97.369649 
L 343.461079 111.214709 
L 348.963698 127.622382 
L 354.466317 145.73398 
L 359.968937 164.675679 
L 365.471556 183.626596 
L 370.974176 201.87409 
L 376.476795 218.851643 
L 381.979414 234.157579 
L 387.482034 247.555563 
L 392.984653 258.960016 
L 398.487273 268.410912 
" clip-path="url(#p98e72208d7)" style="fill: none; stroke: #1f77b4; stroke-width: 1.5; stroke-linecap: square"/>
   </g>
   <g id="patch_3">
    <path d="M 57.6 307.584 
L 57.6 41.472 
" style="fill: none; stroke: #000000; stroke-width: 0.8; stroke-linejoin: miter; stroke-linecap: square"/>
   </g>
   <g id="patch_4">
    <path d="M 414.72 307.584 
L 414.72 41.472 
" style="fill: none; stroke: #000000; stroke-width: 0.8; stroke-linejoin: miter; stroke-linecap: square"/>
   </g>
   <g id="patch_5">
    <path d="M 57.6 307.584 
L 414.72 307.584 
" style="fill: none; stroke: #000000; stroke-width: 0.8; stroke-linejoin: miter; stroke-linecap: square"/>
   </g>
   <g id="patch_6">
    <path d="M 57.6 41.472 
L 414.72 41.472 
" style="fill: none; stroke: #000000; stroke-width: 0.8; stroke-linejoin: miter; stroke-linecap: square"/>
   </g>
   <g id="text_16">
    <!-- Randomly chosen bus arrival times and relative probabilities -->
    <g transform="translate(54.015938 35.472) scale(0.12 -0.12)">
     <defs>
      <path id="DejaVuSans-64" d="M 2906 2969 
L 2906 4863 
L 3481 4863 
L 3481 0 
L 2906 0 
L 2906 525 
Q 2725 213 2448 61 
Q 2172 -91 1784 -91 
Q 1150 -91 751 415 
Q 353 922 353 1747 
Q 353 2572 751 3078 
Q 1150 3584 1784 3584 
Q 2172 3584 2448 3432 
Q 2725 3281 2906 2969 
z
M 947 1747 
Q 947 1113 1208 752 
Q 1469 391 1925 391 
Q 2381 391 2643 752 
Q 2906 1113 2906 1747 
Q 2906 2381 2643 2742 
Q 2381 3103 1925 3103 
Q 1469 3103 1208 2742 
Q 947 2381 947 1747 
z
" transform="scale(0.015625)"/>
      <path id="DejaVuSans-6d" d="M 3328 2828 
Q 3544 3216 3844 3400 
Q 4144 3584 4550 3584 
Q 5097 3584 5394 3201 
Q 5691 2819 5691 2113 
L 5691 0 
L 5113 0 
L 5113 2094 
Q 5113 2597 4934 2840 
Q 4756 3084 4391 3084 
Q 3944 3084 3684 2787 
Q 3425 2491 3425 1978 
L 3425 0 
L 2847 0 
L 2847 2094 
Q 2847 2600 2669 2842 
Q 2491 3084 2119 3084 
Q 1678 3084 1418 2786 
Q 1159 2488 1159 1978 
L 1159 0 
L 581 0 
L 581 3500 
L 1159 3500 
L 1159 2956 
Q 1356 3278 1631 3431 
Q 1906 3584 2284 3584 
Q 2666 3584 2933 3390 
Q 3200 3197 3328 2828 
z
" transform="scale(0.015625)"/>
      <path id="DejaVuSans-63" d="M 3122 3366 
L 3122 2828 
Q 2878 2963 2633 3030 
Q 2388 3097 2138 3097 
Q 1578 3097 1268 2742 
Q 959 2388 959 1747 
Q 959 1106 1268 751 
Q 1578 397 2138 397 
Q 2388 397 2633 464 
Q 2878 531 3122 666 
L 3122 134 
Q 2881 22 2623 -34 
Q 2366 -91 2075 -91 
Q 1284 -91 818 406 
Q 353 903 353 1747 
Q 353 2603 823 3093 
Q 1294 3584 2113 3584 
Q 2378 3584 2631 3529 
Q 2884 3475 3122 3366 
z
" transform="scale(0.015625)"/>
     </defs>
     <use xlink:href="#DejaVuSans-52"/>
     <use xlink:href="#DejaVuSans-61" x="67.232422"/>
     <use xlink:href="#DejaVuSans-6e" x="128.511719"/>
     <use xlink:href="#DejaVuSans-64" x="191.890625"/>
     <use xlink:href="#DejaVuSans-6f" x="255.367188"/>
     <use xlink:href="#DejaVuSans-6d" x="316.548828"/>
     <use xlink:href="#DejaVuSans-6c" x="413.960938"/>
     <use xlink:href="#DejaVuSans-79" x="441.744141"/>
     <use xlink:href="#DejaVuSans-20" x="500.923828"/>
     <use xlink:href="#DejaVuSans-63" x="532.710938"/>
     <use xlink:href="#DejaVuSans-68" x="587.691406"/>
     <use xlink:href="#DejaVuSans-6f" x="651.070312"/>
     <use xlink:href="#DejaVuSans-73" x="712.251953"/>
     <use xlink:href="#DejaVuSans-65" x="764.351562"/>
     <use xlink:href="#DejaVuSans-6e" x="825.875"/>
     <use xlink:href="#DejaVuSans-20" x="889.253906"/>
     <use xlink:href="#DejaVuSans-62" x="921.041016"/>
     <use xlink:href="#DejaVuSans-75" x="984.517578"/>
     <use xlink:href="#DejaVuSans-73" x="1047.896484"/>
     <use xlink:href="#DejaVuSans-20" x="1099.996094"/>
     <use xlink:href="#DejaVuSans-61" x="1131.783203"/>
     <use xlink:href="#DejaVuSans-72" x="1193.0625"/>
     <use xlink:href="#DejaVuSans-72" x="1232.425781"/>
     <use xlink:href="#DejaVuSans-69" x="1273.539062"/>
     <use xlink:href="#DejaVuSans-76" x="1301.322266"/>
     <use xlink:href="#DejaVuSans-61" x="1360.501953"/>
     <use xlink:href="#DejaVuSans-6c" x="1421.78125"/>
     <use xlink:href="#DejaVuSans-20" x="1449.564453"/>
     <use xlink:href="#DejaVuSans-74" x="1481.351562"/>
     <use xlink:href="#DejaVuSans-69" x="1520.560547"/>
     <use xlink:href="#DejaVuSans-6d" x="1548.34375"/>
     <use xlink:href="#DejaVuSans-65" x="1645.755859"/>
     <use xlink:href="#DejaVuSans-73" x="1707.279297"/>
     <use xlink:href="#DejaVuSans-20" x="1759.378906"/>
     <use xlink:href="#DejaVuSans-61" x="1791.166016"/>
     <use xlink:href="#DejaVuSans-6e" x="1852.445312"/>
     <use xlink:href="#DejaVuSans-64" x="1915.824219"/>
     <use xlink:href="#DejaVuSans-20" x="1979.300781"/>
     <use xlink:href="#DejaVuSans-72" x="2011.087891"/>
     <use xlink:href="#DejaVuSans-65" x="2049.951172"/>
     <use xlink:href="#DejaVuSans-6c" x="2111.474609"/>
     <use xlink:href="#DejaVuSans-61" x="2139.257812"/>
     <use xlink:href="#DejaVuSans-74" x="2200.537109"/>
     <use xlink:href="#DejaVuSans-69" x="2239.746094"/>
     <use xlink:href="#DejaVuSans-76" x="2267.529297"/>
     <use xlink:href="#DejaVuSans-65" x="2326.708984"/>
     <use xlink:href="#DejaVuSans-20" x="2388.232422"/>
     <use xlink:href="#DejaVuSans-70" x="2420.019531"/>
     <use xlink:href="#DejaVuSans-72" x="2483.496094"/>
     <use xlink:href="#DejaVuSans-6f" x="2522.359375"/>
     <use xlink:href="#DejaVuSans-62" x="2583.541016"/>
     <use xlink:href="#DejaVuSans-61" x="2647.017578"/>
     <use xlink:href="#DejaVuSans-62" x="2708.296875"/>
     <use xlink:href="#DejaVuSans-69" x="2771.773438"/>
     <use xlink:href="#DejaVuSans-6c" x="2799.556641"/>
     <use xlink:href="#DejaVuSans-69" x="2827.339844"/>
     <use xlink:href="#DejaVuSans-74" x="2855.123047"/>
     <use xlink:href="#DejaVuSans-69" x="2894.332031"/>
     <use xlink:href="#DejaVuSans-65" x="2922.115234"/>
     <use xlink:href="#DejaVuSans-73" x="2983.638672"/>
    </g>
   </g>
  </g>
 </g>
 <defs>
  <clipPath id="p98e72208d7">
   <rect x="57.6" y="41.472" width="357.12" height="266.112"/>
  </clipPath>
 </defs>
</svg>
