<svg xmlns="http://www.w3.org/2000/svg" xmlns:xlink="http://www.w3.org/1999/xlink" width="604px"
  height="438px" viewBox="0 0 604 438" version="1.1">
  <metadata xmlns:gridsvg="http://www.stat.auckland.ac.nz/~paul/R/gridSVG/">
    <gridsvg:generator name="gridSVG" version="1.7-5" time="2023-04-21 07:08:59" />
    <gridsvg:argument name="name" value="lineplot_user_study.svg" />
    <gridsvg:argument name="exportCoords" value="none" />
    <gridsvg:argument name="exportMappings" value="none" />
    <gridsvg:argument name="exportJS" value="none" />
    <gridsvg:argument name="res" value="72" />
    <gridsvg:argument name="prefix" value="" />
    <gridsvg:argument name="addClasses" value="FALSE" />
    <gridsvg:argument name="indent" value="TRUE" />
    <gridsvg:argument name="htmlWrapper" value="FALSE" />
    <gridsvg:argument name="usePaths" value="vpPaths" />
    <gridsvg:argument name="uniqueNames" value="TRUE" />
    <gridsvg:separator name="id.sep" value="." />
    <gridsvg:separator name="gPath.sep" value="::" />
    <gridsvg:separator name="vpPath.sep" value="::" />
  </metadata>
  <g transform="translate(0, 438) scale(1, -1)">
    <g id="gridSVG" fill="rgb(255,255,255)" stroke="rgb(0,0,0)" stroke-dasharray="none"
      stroke-width="0.75" font-size="12"
      font-family="Helvetica, Arial, FreeSans, Liberation Sans, Nimbus Sans L, sans-serif"
      opacity="1" stroke-linecap="round" stroke-linejoin="round" stroke-miterlimit="10"
      stroke-opacity="1" fill-opacity="1" font-weight="normal" font-style="normal">
      <g id="layout.1">
        <g id="layout.2">
          <defs>
            <clipPath id="layout::background.1-9-12-1.1.clipPath">
              <rect x="0" y="0" width="604" height="438" fill="none" stroke="none" />
            </clipPath>
          </defs>
          <g id="layout::background.1-9-12-1.1"
            clip-path="url(#layout::background.1-9-12-1.1.clipPath)">
            <g id="background.1-9-12-1.1">
              <g id="plot.background..rect.218.1">
                <rect id="plot.background..rect.218.1.1" x="0" y="0" width="604" height="438"
                  transform="" stroke-width="1.07" stroke="rgb(255,255,255)" fill="rgb(255,255,255)"
                  stroke-dasharray="none" stroke-opacity="1" fill-opacity="1" />
              </g>
            </g>
          </g>
          <defs>
            <clipPath id="layout::panel.7-5-7-5.1.clipPath">
              <rect x="33.14" y="31.5" width="565.38" height="383.33" fill="none" stroke="none" />
            </clipPath>
          </defs>
          <g id="layout::panel.7-5-7-5.1" clip-path="url(#layout::panel.7-5-7-5.1.clipPath)">
            <g id="panel.7-5-7-5.1">
              <g id="panel-1.gTree.196.1">
                <g id="grill.gTree.194.1">
                  <g id="panel.background..rect.185.1">
                    <rect id="panel.background..rect.185.1.1" x="33.14" y="31.5" width="565.38"
                      height="383.33" transform="" stroke-width="1.07" stroke="none"
                      fill="rgb(235,235,235)" stroke-dasharray="none" stroke-opacity="0"
                      fill-opacity="1" />
                  </g>
                  <g id="panel.grid.minor.y..polyline.187.1">
                    <polyline id="panel.grid.minor.y..polyline.187.1.1"
                      points="33.14,61.84 598.52,61.84" stroke="rgb(255,255,255)" fill="none"
                      stroke-width="0.53" stroke-dasharray="none" stroke-linecap="butt"
                      stroke-opacity="1" fill-opacity="1" />
                    <polyline id="panel.grid.minor.y..polyline.187.1.2"
                      points="33.14,153.13 598.52,153.13" stroke="rgb(255,255,255)" fill="none"
                      stroke-width="0.53" stroke-dasharray="none" stroke-linecap="butt"
                      stroke-opacity="1" fill-opacity="1" />
                    <polyline id="panel.grid.minor.y..polyline.187.1.3"
                      points="33.14,244.42 598.52,244.42" stroke="rgb(255,255,255)" fill="none"
                      stroke-width="0.53" stroke-dasharray="none" stroke-linecap="butt"
                      stroke-opacity="1" fill-opacity="1" />
                    <polyline id="panel.grid.minor.y..polyline.187.1.4"
                      points="33.14,335.71 598.52,335.71" stroke="rgb(255,255,255)" fill="none"
                      stroke-width="0.53" stroke-dasharray="none" stroke-linecap="butt"
                      stroke-opacity="1" fill-opacity="1" />
                  </g>
                  <g id="panel.grid.minor.x..polyline.189.1">
                    <polyline id="panel.grid.minor.x..polyline.189.1.1"
                      points="86.87,31.5 86.87,414.82" stroke="rgb(255,255,255)" fill="none"
                      stroke-width="0.53" stroke-dasharray="none" stroke-linecap="butt"
                      stroke-opacity="1" fill-opacity="1" />
                    <polyline id="panel.grid.minor.x..polyline.189.1.2"
                      points="180.32,31.5 180.32,414.82" stroke="rgb(255,255,255)" fill="none"
                      stroke-width="0.53" stroke-dasharray="none" stroke-linecap="butt"
                      stroke-opacity="1" fill-opacity="1" />
                    <polyline id="panel.grid.minor.x..polyline.189.1.3"
                      points="273.78,31.5 273.78,414.82" stroke="rgb(255,255,255)" fill="none"
                      stroke-width="0.53" stroke-dasharray="none" stroke-linecap="butt"
                      stroke-opacity="1" fill-opacity="1" />
                    <polyline id="panel.grid.minor.x..polyline.189.1.4"
                      points="367.23,31.5 367.23,414.82" stroke="rgb(255,255,255)" fill="none"
                      stroke-width="0.53" stroke-dasharray="none" stroke-linecap="butt"
                      stroke-opacity="1" fill-opacity="1" />
                    <polyline id="panel.grid.minor.x..polyline.189.1.5"
                      points="460.68,31.5 460.68,414.82" stroke="rgb(255,255,255)" fill="none"
                      stroke-width="0.53" stroke-dasharray="none" stroke-linecap="butt"
                      stroke-opacity="1" fill-opacity="1" />
                    <polyline id="panel.grid.minor.x..polyline.189.1.6"
                      points="554.13,31.5 554.13,414.82" stroke="rgb(255,255,255)" fill="none"
                      stroke-width="0.53" stroke-dasharray="none" stroke-linecap="butt"
                      stroke-opacity="1" fill-opacity="1" />
                  </g>
                  <g id="panel.grid.major.y..polyline.191.1">
                    <polyline id="panel.grid.major.y..polyline.191.1.2"
                      points="33.14,107.48 598.52,107.48" stroke="rgb(255,255,255)" fill="none"
                      stroke-width="1.07" stroke-dasharray="none" stroke-linecap="butt"
                      stroke-opacity="1" fill-opacity="1" />
                    <polyline id="panel.grid.major.y..polyline.191.1.3"
                      points="33.14,198.78 598.52,198.78" stroke="rgb(255,255,255)" fill="none"
                      stroke-width="1.07" stroke-dasharray="none" stroke-linecap="butt"
                      stroke-opacity="1" fill-opacity="1" />
                    <polyline id="panel.grid.major.y..polyline.191.1.4"
                      points="33.14,290.07 598.52,290.07" stroke="rgb(255,255,255)" fill="none"
                      stroke-width="1.07" stroke-dasharray="none" stroke-linecap="butt"
                      stroke-opacity="1" fill-opacity="1" />
                    <polyline id="panel.grid.major.y..polyline.191.1.5"
                      points="33.14,381.36 598.52,381.36" stroke="rgb(255,255,255)" fill="none"
                      stroke-width="1.07" stroke-dasharray="none" stroke-linecap="butt"
                      stroke-opacity="1" fill-opacity="1" />
                  </g>
                  <g id="panel.grid.major.x..polyline.193.1">
                    <polyline id="panel.grid.major.x..polyline.193.1.1"
                      points="40.15,31.5 40.15,414.82" stroke="rgb(255,255,255)" fill="none"
                      stroke-width="1.07" stroke-dasharray="none" stroke-linecap="butt"
                      stroke-opacity="1" fill-opacity="1" />
                    <polyline id="panel.grid.major.x..polyline.193.1.2"
                      points="133.6,31.5 133.6,414.82" stroke="rgb(255,255,255)" fill="none"
                      stroke-width="1.07" stroke-dasharray="none" stroke-linecap="butt"
                      stroke-opacity="1" fill-opacity="1" />
                    <polyline id="panel.grid.major.x..polyline.193.1.3"
                      points="227.05,31.5 227.05,414.82" stroke="rgb(255,255,255)" fill="none"
                      stroke-width="1.07" stroke-dasharray="none" stroke-linecap="butt"
                      stroke-opacity="1" fill-opacity="1" />
                    <polyline id="panel.grid.major.x..polyline.193.1.4"
                      points="320.5,31.5 320.5,414.82" stroke="rgb(255,255,255)" fill="none"
                      stroke-width="1.07" stroke-dasharray="none" stroke-linecap="butt"
                      stroke-opacity="1" fill-opacity="1" />
                    <polyline id="panel.grid.major.x..polyline.193.1.5"
                      points="413.95,31.5 413.95,414.82" stroke="rgb(255,255,255)" fill="none"
                      stroke-width="1.07" stroke-dasharray="none" stroke-linecap="butt"
                      stroke-opacity="1" fill-opacity="1" />
                    <polyline id="panel.grid.major.x..polyline.193.1.6"
                      points="507.41,31.5 507.41,414.82" stroke="rgb(255,255,255)" fill="none"
                      stroke-width="1.07" stroke-dasharray="none" stroke-linecap="butt"
                      stroke-opacity="1" fill-opacity="1" />
                  </g>
                </g>
                <g id="GRID.polyline.181.1">
                  <polyline id="GRID.polyline.181.1.1"
                    points="58.84,155.23 58.84,260.85 58.84,271.81 58.84,142.36 58.84,195.12 58.84,209.82 58.84,261.49 58.84,297.19 58.84,258.57 58.84,266.42 58.84,267.24 58.84,252.27 58.84,235.57 58.84,312.8 58.84,261.86 58.84,253 58.84,191.14 58.84,309.51 58.84,314.44 58.84,210.73 58.84,197.13 58.84,208.36 58.84,180.48 58.84,238.58 58.84,249.62 58.84,243.87 58.84,307.05 58.84,286.6 58.84,48.92 58.84,282.58 105.56,192.2 105.56,267.06 105.56,283.13 105.56,184.63 105.56,259.12 105.56,242.32 105.56,281.21 105.56,306.59 105.56,267.15 105.56,280.3 105.56,281.85 105.56,270.53 105.56,257.29 105.56,321.75 105.56,280.03 105.56,270.07 105.56,211.99 105.56,317.36 105.56,321.47 105.56,251.45 105.56,212.56 105.56,236.21 105.56,214.16 105.56,266.79 105.56,270.44 105.56,259.58 105.56,312.8 105.56,295.18 105.56,89.95 105.56,293.9 152.29,242.78 152.29,285.87 152.29,292.35 152.29,216.39 152.29,285.59 152.29,263.87 152.29,289.15 152.29,311.52 152.29,278.66 152.29,294.72 152.29,292.81 152.29,285.59 152.29,271.44 152.29,323.66 152.29,292.71 152.29,283.13 152.29,232.81 152.29,319.55 152.29,321.75 152.29,268.52 152.29,238.85 152.29,260.85 152.29,240.14 152.29,293.08 152.29,282.31 152.29,287.24 152.29,320.83 152.29,302.12 152.29,126.64 152.29,297.01 199.01,255.56 199.01,291.35 199.01,298.65 199.01,242.5 199.01,293.9 199.01,276.37 199.01,293.54 199.01,317.09 199.01,288.52 199.01,304.22 199.01,297.37 199.01,299.2 199.01,285.5 199.01,324.12 199.01,299.93 199.01,299.74 199.01,264.3 199.01,324.94 199.01,327.31 199.01,286.51 199.01,259.03 199.01,260.85 199.01,261.89 199.01,299.01 199.01,282.58 199.01,303.21 199.01,328.04 199.01,315.35 199.01,147.07 199.01,302.48 245.74,268.98 245.74,295.82 245.74,303.21 245.74,266.79 245.74,298.28 245.74,286.51 245.74,292.71 245.74,321.75 245.74,298.01 245.74,311.79 245.74,299.2 245.74,311.43 245.74,287.88 245.74,330.78 245.74,301.75 245.74,310.06 245.74,295.87 245.74,324.3 245.74,329.69 245.74,297.83 245.74,283.31 245.74,282.86 245.74,278.2 245.74,293.26 245.74,288.42 245.74,318 245.74,333.16 245.74,324.58 245.74,171.43 245.74,308.42 292.47,280.3 292.47,309.88 292.47,315.63 292.47,288.79 292.47,297.46 292.47,295.91 292.47,296.55 292.47,332.88 292.47,313.07 292.47,325.03 292.47,312.89 292.47,323.66 292.47,289.61 292.47,345.85 292.47,308.6 292.47,321.84 292.47,318.06 292.47,337.9 292.47,339.09 292.47,296.18 292.47,293.81 292.47,285.14 292.47,292.81 292.47,294.18 292.47,298.92 292.47,330.14 292.47,339.73 292.47,339.27 292.47,194.27 292.47,315.26 339.19,293.9 339.19,319.1 339.19,325.94 339.19,296.37 339.19,299.93 339.19,294.27 339.19,298.83 339.19,332.34 339.19,331.6 339.19,334.71 339.19,324.76 339.19,337.9 339.19,284.5 339.19,353.88 339.19,318.37 339.19,335.53 339.19,327.51 339.19,345.3 339.19,344.57 339.19,302.12 339.19,315.35 339.19,286.96 339.19,291.55 339.19,297.37 339.19,299.77 339.19,347.58 339.19,348.68 339.19,346.76 339.19,208.23 339.19,326.95 385.92,308.33 385.92,335.17 385.92,338.91 385.92,300.47 385.92,302.3 385.92,303.94 385.92,304.49 385.92,333.89 385.92,334.16 385.92,347.95 385.92,334.32 385.92,350.96 385.92,286.23 385.92,356.07 385.92,329.87 385.92,348.68 385.92,334.48 385.92,352.42 385.92,343.84 385.92,299.01 385.92,327.13 385.92,285.78 385.92,301.19 385.92,299.93 385.92,310.61 385.92,353.06 385.92,355.71 385.92,357.71 385.92,227.15 385.92,335.78 432.64,304.5 432.64,345.21 432.64,349.04 432.64,309.95 432.64,300.93 432.64,313.14 432.64,311.98 432.64,338.73 432.64,342.1 432.64,358.17 432.64,345.48 432.64,354.25 432.64,282.49 432.64,370.13 432.64,339.98 432.64,357.99 432.64,339.68 432.64,357.81 432.64,356.89 432.64,299.11 432.64,334.43 432.64,284.22 432.64,305.21 432.64,302.67 432.64,323.3 432.64,359.17 432.64,364.56 432.64,363.37 432.64,254.88 432.64,348.68 479.37,317 479.37,358.63 479.37,358.81 479.37,319.68 479.37,292.99 479.37,323.66 479.37,326.68 479.37,345.85 479.37,355.16 479.37,368.94 479.37,357.08 479.37,361.9 479.37,299.56 479.37,371.77 479.37,345.96 479.37,370.59 479.37,339.78 479.37,363.37 479.37,366.02 479.37,315.17 479.37,344.57 479.37,287.51 479.37,310.44 479.37,314.81 479.37,336.9 479.37,370.13 479.37,375.79 479.37,375.61 479.37,279.43 479.37,355.96 526.1,341.66 526.1,372.05 526.1,366.02 526.1,327.41 526.1,309.6 526.1,334.58 526.1,340.37 526.1,355.61 526.1,366.48 526.1,377.62 526.1,369.22 526.1,365.44 526.1,313.71 526.1,385.92 526.1,361.12 526.1,383.55 526.1,326.41 526.1,367.94 526.1,372.69 526.1,332.7 526.1,356.62 526.1,302.14 526.1,319.4 526.1,324.76 526.1,350.87 526.1,379.35 526.1,381.72 526.1,387.02 526.1,297.78 526.1,367.4 572.82,348.7 572.82,379.8 572.82,376.26 572.82,334.36 572.82,317.5 572.82,342.54 572.82,349.28 572.82,366.13 572.82,375.09 572.82,387.36 572.82,375.94 572.82,376.64 572.82,320.54 572.82,397.4 572.82,371.18 572.82,386.34 572.82,331.54 572.82,379.19 572.82,383.15 572.82,340.85 572.82,364 572.82,312.67 572.82,326.6 572.82,332.64 572.82,362.42 572.82,389.95 572.82,389.43 572.82,396.89 572.82,306.29 572.82,376.11"
                    stroke="rgb(0,0,0)" fill="none" stroke-width="1.07" stroke-dasharray="none"
                    stroke-linecap="butt" stroke-linejoin="round" stroke-miterlimit="10"
                    stroke-opacity="1" fill-opacity="1" />
                </g>
              </g>
            </g>
          </g>
          <g id="layout::spacer.8-6-8-6.1">
            <g id="spacer.8-6-8-6.1" />
          </g>
          <g id="layout::spacer.8-4-8-4.1">
            <g id="spacer.8-4-8-4.1" />
          </g>
          <g id="layout::spacer.6-6-6-6.1">
            <g id="spacer.6-6-6-6.1" />
          </g>
          <g id="layout::spacer.6-4-6-4.1">
            <g id="spacer.6-4-6-4.1" />
          </g>
          <g id="layout::axis-t.6-5-6-5.1">
            <g id="axis-t.6-5-6-5.1" />
          </g>
          <g id="layout::axis-l.7-4-7-4.1">
            <g id="axis-l.7-4-7-4.1">
              <g id="layout::axis-l.7-4-7-4::GRID.VP.42.1">
                <g id="GRID.absoluteGrob.204.1">
                  <g id="layout::axis-l.7-4-7-4::GRID.VP.42::axis.1">
                    <g id="axis.1">
                      <g id="layout::axis-l.7-4-7-4::GRID.VP.42::axis::axis.1-1-1-1.1">
                        <g id="axis.1-1-1-1.1">
                          <g
                            id="layout::axis-l.7-4-7-4::GRID.VP.42::axis::axis.1-1-1-1::GRID.VP.40.1"
                            font-size="8.8" stroke="rgb(77,77,77)"
                            font-family="Helvetica, Arial, FreeSans, Liberation Sans, Nimbus Sans L, sans-serif"
                            stroke-opacity="1" font-weight="normal" font-style="normal">
                            <g
                              id="layout::axis-l.7-4-7-4::GRID.VP.42::axis::axis.1-1-1-1::GRID.VP.40::GRID.VP.41.1">
                              <g id="GRID.titleGrob.202.1">
                                <g id="GRID.text.201.1">
                                  <g id="GRID.text.201.1.1" transform="translate(28.21, 107.48)"
                                    stroke-width="0.1">
                                    <g id="GRID.text.201.1.1.scale" transform="scale(1, -1)">
                                      <text x="0" y="0" id="GRID.text.201.1.1.text"
                                        text-anchor="end" font-size="8.8" stroke="rgb(77,77,77)"
                                        font-family="Helvetica, Arial, FreeSans, Liberation Sans, Nimbus Sans L, sans-serif"
                                        fill="rgb(77,77,77)" stroke-opacity="1" fill-opacity="1"
                                        font-weight="normal" font-style="normal">
                                        <tspan id="GRID.text.201.1.1.tspan.1" dy="3.15" x="0">50</tspan>
                                      </text>
                                    </g>
                                  </g>
                                  <g id="GRID.text.201.1.2" transform="translate(28.21, 198.78)"
                                    stroke-width="0.1">
                                    <g id="GRID.text.201.1.2.scale" transform="scale(1, -1)">
                                      <text x="0" y="0" id="GRID.text.201.1.2.text"
                                        text-anchor="end" font-size="8.8" stroke="rgb(77,77,77)"
                                        font-family="Helvetica, Arial, FreeSans, Liberation Sans, Nimbus Sans L, sans-serif"
                                        fill="rgb(77,77,77)" stroke-opacity="1" fill-opacity="1"
                                        font-weight="normal" font-style="normal">
                                        <tspan id="GRID.text.201.1.2.tspan.1" dy="3.15" x="0">60</tspan>
                                      </text>
                                    </g>
                                  </g>
                                  <g id="GRID.text.201.1.3" transform="translate(28.21, 290.07)"
                                    stroke-width="0.1">
                                    <g id="GRID.text.201.1.3.scale" transform="scale(1, -1)">
                                      <text x="0" y="0" id="GRID.text.201.1.3.text"
                                        text-anchor="end" font-size="8.8" stroke="rgb(77,77,77)"
                                        font-family="Helvetica, Arial, FreeSans, Liberation Sans, Nimbus Sans L, sans-serif"
                                        fill="rgb(77,77,77)" stroke-opacity="1" fill-opacity="1"
                                        font-weight="normal" font-style="normal">
                                        <tspan id="GRID.text.201.1.3.tspan.1" dy="3.15" x="0">70</tspan>
                                      </text>
                                    </g>
                                  </g>
                                  <g id="GRID.text.201.1.4" transform="translate(28.21, 381.36)"
                                    stroke-width="0.1">
                                    <g id="GRID.text.201.1.4.scale" transform="scale(1, -1)">
                                      <text x="0" y="0" id="GRID.text.201.1.4.text"
                                        text-anchor="end" font-size="8.8" stroke="rgb(77,77,77)"
                                        font-family="Helvetica, Arial, FreeSans, Liberation Sans, Nimbus Sans L, sans-serif"
                                        fill="rgb(77,77,77)" stroke-opacity="1" fill-opacity="1"
                                        font-weight="normal" font-style="normal">
                                        <tspan id="GRID.text.201.1.4.tspan.1" dy="3.15" x="0">80</tspan>
                                      </text>
                                    </g>
                                  </g>
                                </g>
                              </g>
                            </g>
                          </g>
                        </g>
                      </g>
                      <g id="layout::axis-l.7-4-7-4::GRID.VP.42::axis::axis.1-2-1-2.1">
                        <g id="axis.1-2-1-2.1">
                          <g id="GRID.polyline.203.1">
                            <polyline id="GRID.polyline.203.1.1" points="30.4,107.48 33.14,107.48"
                              stroke="rgb(51,51,51)" fill="none" stroke-width="1.07"
                              stroke-dasharray="none" stroke-linecap="butt" stroke-opacity="1"
                              fill-opacity="1" />
                            <polyline id="GRID.polyline.203.1.2" points="30.4,198.78 33.14,198.78"
                              stroke="rgb(51,51,51)" fill="none" stroke-width="1.07"
                              stroke-dasharray="none" stroke-linecap="butt" stroke-opacity="1"
                              fill-opacity="1" />
                            <polyline id="GRID.polyline.203.1.3" points="30.4,290.07 33.14,290.07"
                              stroke="rgb(51,51,51)" fill="none" stroke-width="1.07"
                              stroke-dasharray="none" stroke-linecap="butt" stroke-opacity="1"
                              fill-opacity="1" />
                            <polyline id="GRID.polyline.203.1.4" points="30.4,381.36 33.14,381.36"
                              stroke="rgb(51,51,51)" fill="none" stroke-width="1.07"
                              stroke-dasharray="none" stroke-linecap="butt" stroke-opacity="1"
                              fill-opacity="1" />
                          </g>
                        </g>
                      </g>
                    </g>
                  </g>
                </g>
              </g>
            </g>
          </g>
          <g id="layout::axis-r.7-6-7-6.1">
            <g id="axis-r.7-6-7-6.1" />
          </g>
          <g id="layout::axis-b.8-5-8-5.1">
            <g id="axis-b.8-5-8-5.1">
              <g id="layout::axis-b.8-5-8-5::GRID.VP.39.1">
                <g id="GRID.absoluteGrob.200.1">
                  <g id="layout::axis-b.8-5-8-5::GRID.VP.39::axis.1">
                    <g id="axis.2">
                      <g id="layout::axis-b.8-5-8-5::GRID.VP.39::axis::axis.1-1-1-1.1">
                        <g id="axis.1-1-1-1.2">
                          <g id="GRID.polyline.199.1">
                            <polyline id="GRID.polyline.199.1.1" points="40.15,28.76 40.15,31.5"
                              stroke="rgb(51,51,51)" fill="none" stroke-width="1.07"
                              stroke-dasharray="none" stroke-linecap="butt" stroke-opacity="1"
                              fill-opacity="1" />
                            <polyline id="GRID.polyline.199.1.2" points="133.6,28.76 133.6,31.5"
                              stroke="rgb(51,51,51)" fill="none" stroke-width="1.07"
                              stroke-dasharray="none" stroke-linecap="butt" stroke-opacity="1"
                              fill-opacity="1" />
                            <polyline id="GRID.polyline.199.1.3" points="227.05,28.76 227.05,31.5"
                              stroke="rgb(51,51,51)" fill="none" stroke-width="1.07"
                              stroke-dasharray="none" stroke-linecap="butt" stroke-opacity="1"
                              fill-opacity="1" />
                            <polyline id="GRID.polyline.199.1.4" points="320.5,28.76 320.5,31.5"
                              stroke="rgb(51,51,51)" fill="none" stroke-width="1.07"
                              stroke-dasharray="none" stroke-linecap="butt" stroke-opacity="1"
                              fill-opacity="1" />
                            <polyline id="GRID.polyline.199.1.5" points="413.95,28.76 413.95,31.5"
                              stroke="rgb(51,51,51)" fill="none" stroke-width="1.07"
                              stroke-dasharray="none" stroke-linecap="butt" stroke-opacity="1"
                              fill-opacity="1" />
                            <polyline id="GRID.polyline.199.1.6" points="507.41,28.76 507.41,31.5"
                              stroke="rgb(51,51,51)" fill="none" stroke-width="1.07"
                              stroke-dasharray="none" stroke-linecap="butt" stroke-opacity="1"
                              fill-opacity="1" />
                          </g>
                        </g>
                      </g>
                      <g id="layout::axis-b.8-5-8-5::GRID.VP.39::axis::axis.2-1-2-1.1">
                        <g id="axis.2-1-2-1.1">
                          <g
                            id="layout::axis-b.8-5-8-5::GRID.VP.39::axis::axis.2-1-2-1::GRID.VP.37.1"
                            font-size="8.8" stroke="rgb(77,77,77)"
                            font-family="Helvetica, Arial, FreeSans, Liberation Sans, Nimbus Sans L, sans-serif"
                            stroke-opacity="1" font-weight="normal" font-style="normal">
                            <g
                              id="layout::axis-b.8-5-8-5::GRID.VP.39::axis::axis.2-1-2-1::GRID.VP.37::GRID.VP.38.1">
                              <g id="GRID.titleGrob.198.1">
                                <g id="GRID.text.197.1">
                                  <g id="GRID.text.197.1.1" transform="translate(40.15, 26.56)"
                                    stroke-width="0.1">
                                    <g id="GRID.text.197.1.1.scale" transform="scale(1, -1)">
                                      <text x="0" y="0" id="GRID.text.197.1.1.text"
                                        text-anchor="middle" font-size="8.8" stroke="rgb(77,77,77)"
                                        font-family="Helvetica, Arial, FreeSans, Liberation Sans, Nimbus Sans L, sans-serif"
                                        fill="rgb(77,77,77)" stroke-opacity="1" fill-opacity="1"
                                        font-weight="normal" font-style="normal">
                                        <tspan id="GRID.text.197.1.1.tspan.1" dy="6.3" x="0">1950</tspan>
                                      </text>
                                    </g>
                                  </g>
                                  <g id="GRID.text.197.1.2" transform="translate(133.6, 26.56)"
                                    stroke-width="0.1">
                                    <g id="GRID.text.197.1.2.scale" transform="scale(1, -1)">
                                      <text x="0" y="0" id="GRID.text.197.1.2.text"
                                        text-anchor="middle" font-size="8.8" stroke="rgb(77,77,77)"
                                        font-family="Helvetica, Arial, FreeSans, Liberation Sans, Nimbus Sans L, sans-serif"
                                        fill="rgb(77,77,77)" stroke-opacity="1" fill-opacity="1"
                                        font-weight="normal" font-style="normal">
                                        <tspan id="GRID.text.197.1.2.tspan.1" dy="6.3" x="0">1960</tspan>
                                      </text>
                                    </g>
                                  </g>
                                  <g id="GRID.text.197.1.3" transform="translate(227.05, 26.56)"
                                    stroke-width="0.1">
                                    <g id="GRID.text.197.1.3.scale" transform="scale(1, -1)">
                                      <text x="0" y="0" id="GRID.text.197.1.3.text"
                                        text-anchor="middle" font-size="8.8" stroke="rgb(77,77,77)"
                                        font-family="Helvetica, Arial, FreeSans, Liberation Sans, Nimbus Sans L, sans-serif"
                                        fill="rgb(77,77,77)" stroke-opacity="1" fill-opacity="1"
                                        font-weight="normal" font-style="normal">
                                        <tspan id="GRID.text.197.1.3.tspan.1" dy="6.3" x="0">1970</tspan>
                                      </text>
                                    </g>
                                  </g>
                                  <g id="GRID.text.197.1.4" transform="translate(320.5, 26.56)"
                                    stroke-width="0.1">
                                    <g id="GRID.text.197.1.4.scale" transform="scale(1, -1)">
                                      <text x="0" y="0" id="GRID.text.197.1.4.text"
                                        text-anchor="middle" font-size="8.8" stroke="rgb(77,77,77)"
                                        font-family="Helvetica, Arial, FreeSans, Liberation Sans, Nimbus Sans L, sans-serif"
                                        fill="rgb(77,77,77)" stroke-opacity="1" fill-opacity="1"
                                        font-weight="normal" font-style="normal">
                                        <tspan id="GRID.text.197.1.4.tspan.1" dy="6.3" x="0">1980</tspan>
                                      </text>
                                    </g>
                                  </g>
                                  <g id="GRID.text.197.1.5" transform="translate(413.95, 26.56)"
                                    stroke-width="0.1">
                                    <g id="GRID.text.197.1.5.scale" transform="scale(1, -1)">
                                      <text x="0" y="0" id="GRID.text.197.1.5.text"
                                        text-anchor="middle" font-size="8.8" stroke="rgb(77,77,77)"
                                        font-family="Helvetica, Arial, FreeSans, Liberation Sans, Nimbus Sans L, sans-serif"
                                        fill="rgb(77,77,77)" stroke-opacity="1" fill-opacity="1"
                                        font-weight="normal" font-style="normal">
                                        <tspan id="GRID.text.197.1.5.tspan.1" dy="6.3" x="0">1990</tspan>
                                      </text>
                                    </g>
                                  </g>
                                  <g id="GRID.text.197.1.6" transform="translate(507.41, 26.56)"
                                    stroke-width="0.1">
                                    <g id="GRID.text.197.1.6.scale" transform="scale(1, -1)">
                                      <text x="0" y="0" id="GRID.text.197.1.6.text"
                                        text-anchor="middle" font-size="8.8" stroke="rgb(77,77,77)"
                                        font-family="Helvetica, Arial, FreeSans, Liberation Sans, Nimbus Sans L, sans-serif"
                                        fill="rgb(77,77,77)" stroke-opacity="1" fill-opacity="1"
                                        font-weight="normal" font-style="normal">
                                        <tspan id="GRID.text.197.1.6.tspan.1" dy="6.3" x="0">2000</tspan>
                                      </text>
                                    </g>
                                  </g>
                                </g>
                              </g>
                            </g>
                          </g>
                        </g>
                      </g>
                    </g>
                  </g>
                </g>
              </g>
            </g>
          </g>
          <g id="layout::xlab-t.5-5-5-5.1">
            <g id="xlab-t.5-5-5-5.1" />
          </g>
          <g id="layout::xlab-b.9-5-9-5.1">
            <g id="xlab-b.9-5-9-5.1">
              <g id="layout::xlab-b.9-5-9-5::GRID.VP.43.1" font-size="11" stroke="rgb(0,0,0)"
                font-family="Helvetica, Arial, FreeSans, Liberation Sans, Nimbus Sans L, sans-serif"
                stroke-opacity="1" font-weight="normal" font-style="normal">
                <g id="layout::xlab-b.9-5-9-5::GRID.VP.43::GRID.VP.44.1">
                  <g id="axis.title.x.bottom..titleGrob.207.1">
                    <g id="GRID.text.205.1">
                      <g id="GRID.text.205.1.1" transform="translate(315.83, 15.67)"
                        stroke-width="0.1">
                        <g id="GRID.text.205.1.1.scale" transform="scale(1, -1)">
                          <text x="0" y="0" id="GRID.text.205.1.1.text" text-anchor="middle"
                            font-size="11" stroke="rgb(0,0,0)"
                            font-family="Helvetica, Arial, FreeSans, Liberation Sans, Nimbus Sans L, sans-serif"
                            fill="rgb(0,0,0)" stroke-opacity="1" fill-opacity="1"
                            font-weight="normal" font-style="normal">
                            <tspan id="GRID.text.205.1.1.tspan.1" dy="7.88" x="0">Year</tspan>
                          </text>
                        </g>
                      </g>
                    </g>
                  </g>
                </g>
              </g>
            </g>
          </g>
          <g id="layout::ylab-l.7-3-7-3.1">
            <g id="ylab-l.7-3-7-3.1">
              <g id="layout::ylab-l.7-3-7-3::GRID.VP.45.1" font-size="11" stroke="rgb(0,0,0)"
                font-family="Helvetica, Arial, FreeSans, Liberation Sans, Nimbus Sans L, sans-serif"
                stroke-opacity="1" font-weight="normal" font-style="normal">
                <g id="layout::ylab-l.7-3-7-3::GRID.VP.45::GRID.VP.46.1">
                  <g id="axis.title.y.left..titleGrob.210.1">
                    <g id="GRID.text.208.1">
                      <g id="GRID.text.208.1.1" transform="translate(5.48, 223.16)"
                        stroke-width="0.1">
                        <g id="GRID.text.208.1.1.scale" transform="scale(1, -1)">
                          <text x="0" y="0" id="GRID.text.208.1.1.text" transform="rotate(-90)"
                            text-anchor="middle" font-size="11" stroke="rgb(0,0,0)"
                            font-family="Helvetica, Arial, FreeSans, Liberation Sans, Nimbus Sans L, sans-serif"
                            fill="rgb(0,0,0)" stroke-opacity="1" fill-opacity="1"
                            font-weight="normal" font-style="normal">
                            <tspan id="GRID.text.208.1.1.tspan.1" dy="7.88" x="0">Life Expectancy</tspan>
                          </text>
                        </g>
                      </g>
                    </g>
                  </g>
                </g>
              </g>
            </g>
          </g>
          <g id="layout::ylab-r.7-7-7-7.1">
            <g id="ylab-r.7-7-7-7.1" />
          </g>
          <g id="layout::subtitle.4-5-4-5.1">
            <g id="subtitle.4-5-4-5.1" />
          </g>
          <g id="layout::title.3-5-3-5.1">
            <g id="title.3-5-3-5.1">
              <g id="layout::title.3-5-3-5::GRID.VP.47.1" font-size="13.2" stroke="rgb(0,0,0)"
                font-family="Helvetica, Arial, FreeSans, Liberation Sans, Nimbus Sans L, sans-serif"
                stroke-opacity="1" font-weight="normal" font-style="normal">
                <g id="layout::title.3-5-3-5::GRID.VP.47::GRID.VP.48.1">
                  <g id="plot.title..titleGrob.213.1">
                    <g id="GRID.text.211.1">
                      <g id="GRID.text.211.1.1" transform="translate(33.14, 432.52)"
                        stroke-width="0.1">
                        <g id="GRID.text.211.1.1.scale" transform="scale(1, -1)">
                          <text x="0" y="0" id="GRID.text.211.1.1.text" text-anchor="start"
                            font-size="13.2" stroke="rgb(0,0,0)"
                            font-family="Helvetica, Arial, FreeSans, Liberation Sans, Nimbus Sans L, sans-serif"
                            fill="rgb(0,0,0)" stroke-opacity="1" fill-opacity="1"
                            font-weight="normal" font-style="normal">
                            <tspan id="GRID.text.211.1.1.tspan.1" dy="9.45" x="0">Life Expectancy in
                              Europe</tspan>
                          </text>
                        </g>
                      </g>
                    </g>
                  </g>
                </g>
              </g>
            </g>
          </g>
          <g id="layout::caption.10-5-10-5.1">
            <g id="caption.10-5-10-5.1" />
          </g>
          <g id="layout::tag.2-2-2-2.1">
            <g id="tag.2-2-2-2.1" />
          </g>
        </g>
      </g>
    </g>
  </g>
</svg>