<svg version="1.1" id="Layer_1" xmlns="http://www.w3.org/2000/svg" xmlns:xlink="http://www.w3.org/1999/xlink" x="0px" y="0px"
	 width="100%" viewBox="0 0 1642 887" enable-background="new 0 0 1642 887" xml:space="preserve">
<path fill="#FEFFFF" opacity="1.000000" stroke="none" 
	d="
M1246.000000,888.000000 
	C830.666687,888.000000 415.833344,888.000000 1.000000,888.000000 
	C1.000000,592.333313 1.000000,296.666656 1.000000,1.000000 
	C548.333313,1.000000 1095.666626,1.000000 1643.000000,1.000000 
	C1643.000000,296.666656 1643.000000,592.333313 1643.000000,888.000000 
	C1510.833374,888.000000 1378.666626,888.000000 1246.000000,888.000000 
M1016.957825,439.943695 
	C1026.065430,456.748138 1041.248047,464.552124 1059.162354,467.900970 
	C1082.245972,472.216217 1105.295532,470.513428 1128.208862,466.376129 
	C1176.214722,457.707947 1210.624756,431.586639 1230.044678,386.453003 
	C1240.801758,361.452454 1245.235596,335.095398 1246.345215,308.106842 
	C1247.639648,276.623627 1245.937988,245.446823 1235.082031,215.431580 
	C1223.018188,182.077057 1201.058716,158.108841 1167.469604,145.788620 
	C1130.550293,132.246918 1092.520020,131.204117 1054.132568,137.486801 
	C1044.645508,139.039505 1035.418091,142.225723 1027.328735,149.121613 
	C1024.200195,153.701141 1020.050781,157.891113 1018.127808,162.930634 
	C1011.388611,180.592438 1009.859497,199.294067 1008.311707,218.813721 
	C1008.281067,220.902695 1008.250366,222.991669 1007.897949,225.790665 
	C1007.819763,228.857285 1007.741577,231.923904 1007.320374,235.852905 
	C1007.282593,239.260864 1007.244812,242.668808 1006.884399,246.806213 
	C1006.738647,257.201569 1006.592957,267.596893 1006.190735,278.897644 
	C1006.292725,300.266266 1006.394775,321.634888 1006.292236,343.919464 
	C1006.564087,353.264862 1006.835999,362.610291 1006.888794,372.876312 
	C1007.231201,383.921570 1007.573547,394.966827 1007.681152,406.650208 
	C1007.877258,407.730377 1008.073425,408.810577 1008.106567,410.693298 
	C1008.335022,411.464478 1008.563477,412.235657 1008.574097,413.587585 
	C1008.787903,414.362732 1009.001770,415.137848 1009.051331,416.718109 
	C1009.303589,417.481171 1009.555786,418.244232 1009.632202,419.506531 
	C1009.857361,419.964417 1010.082581,420.422333 1010.201843,421.638428 
	C1010.402283,422.095276 1010.602722,422.552124 1010.668030,423.696106 
	C1011.510498,426.105530 1012.353027,428.514923 1013.126831,431.607819 
	C1013.549866,432.406616 1013.972900,433.205414 1014.413757,434.661804 
	C1015.246887,436.193939 1016.080078,437.726074 1016.957825,439.943695 
M721.641541,265.113525 
	C720.418274,268.386505 719.094666,271.625977 717.989258,274.938263 
	C713.535339,288.284607 713.347595,302.126770 713.455139,315.974731 
	C713.941711,378.623444 714.480103,441.271729 714.981995,503.920288 
	C714.987915,504.658264 714.757202,505.398132 714.566223,506.571259 
	C711.794861,505.757355 709.442627,505.004456 707.057617,504.375916 
	C688.080750,499.374512 669.288086,493.424744 650.067688,489.661804 
	C626.919983,485.130066 603.601379,485.653931 581.141052,494.302490 
	C562.450928,501.499390 545.609863,511.533630 534.678528,528.949036 
	C512.402649,564.438049 516.392456,609.998962 541.002869,642.507629 
	C553.972229,659.639343 571.217957,671.303711 589.268982,682.261414 
	C611.346252,695.663269 631.754578,711.236755 646.213074,733.130127 
	C654.006653,744.931396 661.033203,757.256592 668.062378,769.541992 
	C687.033325,802.699036 713.628784,826.830994 749.683899,840.406372 
	C783.417725,853.107605 818.264587,858.135986 854.114563,856.771912 
	C881.253174,855.739258 908.369934,854.125793 935.509216,853.115540 
	C967.851624,851.911560 997.144653,841.924500 1024.075195,824.125305 
	C1053.987061,804.355713 1077.899780,778.508911 1099.279541,750.213745 
	C1116.376587,727.586731 1127.748047,701.960938 1133.402832,674.225891 
	C1141.512817,634.450195 1140.891357,594.239197 1134.642456,554.378113 
	C1128.457520,514.926941 1104.950439,491.392578 1066.605103,483.290741 
	C1041.505493,477.987518 1016.145020,476.530823 990.539551,478.447418 
	C977.086853,479.454376 963.576965,479.676453 950.105652,480.469543 
	C946.308655,480.693115 945.220093,479.243774 945.108032,475.671112 
	C944.225281,447.529083 943.122742,419.393951 942.262207,391.251343 
	C941.864990,378.261261 941.981018,365.256073 941.644531,352.263428 
	C941.109314,331.597046 940.313538,310.915253 934.783691,290.835571 
	C932.584595,282.850342 929.425964,275.129333 927.382385,266.967468 
	C937.972046,250.685150 943.765930,232.671921 944.769897,213.448410 
	C946.880127,173.042542 932.365723,139.495087 901.162109,113.561737 
	C854.613525,74.875229 783.610901,78.091965 740.802002,121.077530 
	C714.194946,147.794464 702.764893,180.418808 706.291992,217.932114 
	C707.847412,234.475067 712.759399,250.184662 721.641541,265.113525 
M363.744385,474.302307 
	C376.223694,473.009186 383.654694,465.013947 389.087524,454.740967 
	C396.532227,440.663788 399.990997,425.278381 400.883759,409.629730 
	C402.239014,385.874695 402.713135,362.049469 402.859711,338.249756 
	C403.116302,296.596558 402.914917,254.939819 402.753540,213.285172 
	C402.679718,194.227310 398.706207,176.253540 386.743652,160.766373 
	C368.927582,137.700974 337.721924,132.488174 316.333832,153.142792 
	C307.770996,161.411987 299.588348,170.414307 292.923248,180.230789 
	C282.556305,195.499374 273.737549,211.812408 264.059631,227.558029 
	C258.192139,237.104263 255.651901,237.207672 249.295105,228.210129 
	C240.166931,215.290024 231.419296,202.100952 222.283936,189.186050 
	C211.046066,173.298782 198.485519,158.581375 181.135620,149.053726 
	C166.534225,141.035416 151.205032,138.131073 136.014893,147.377014 
	C125.983925,153.482666 120.286026,163.465012 115.667549,173.932739 
	C105.405167,197.192291 101.848038,221.982391 101.181679,247.006577 
	C100.206223,283.638855 100.275169,320.309662 100.542755,356.959351 
	C100.659279,372.918701 101.799911,388.928192 103.511230,404.803253 
	C105.525665,423.490265 110.659210,441.242340 121.569962,457.111420 
	C136.809097,479.275848 175.334198,482.828491 189.691330,454.037659 
	C194.477188,444.440430 196.706161,434.058838 196.601395,423.585175 
	C196.351578,398.611237 195.104996,373.648865 194.465408,348.676575 
	C194.141373,336.024933 194.102203,323.358978 194.340897,310.707153 
	C194.378967,308.689484 196.475372,305.133606 197.773651,305.061768 
	C200.109070,304.932465 203.558884,306.265472 204.752914,308.132507 
	C207.127151,311.844879 208.358261,316.307373 209.933670,320.507904 
	C213.867599,330.997070 218.797729,340.841614 225.492737,349.978363 
	C236.356491,364.804352 261.215179,364.254272 271.737915,354.349182 
	C278.448090,348.032806 284.684967,340.777771 289.426819,332.914093 
	C295.667511,322.564789 300.113739,311.144501 305.617310,300.330139 
	C306.691803,298.218811 309.071716,296.771851 310.849518,295.018433 
	C311.556488,297.265381 312.936554,299.533722 312.865997,301.755981 
	C312.179352,323.392914 311.425598,345.030914 310.341736,366.651123 
	C309.198639,389.452087 307.468964,412.262939 310.860657,434.987701 
	C313.140778,450.264435 319.995483,462.890686 334.573914,469.816650 
	C343.472046,474.044006 353.100342,474.991974 363.744385,474.302307 
M479.052338,472.642822 
	C482.982544,469.648468 487.441162,467.142303 490.743347,463.567780 
	C500.440430,453.070801 504.271393,439.693329 507.834564,426.276001 
	C511.630035,411.983856 515.094666,397.591522 519.359680,383.440582 
	C522.304932,373.668304 529.849060,369.243835 539.923340,369.149017 
	C549.755066,369.056488 559.587585,369.060577 569.419800,369.016357 
	C575.704590,368.988098 580.099792,371.995911 581.835022,377.903290 
	C583.843811,384.742218 585.479187,391.725464 586.739746,398.742493 
	C589.415161,413.635498 591.229309,428.701050 594.397827,443.481201 
	C596.416016,452.895142 601.679321,461.095703 609.481018,467.073883 
	C627.123718,480.592773 655.872803,473.824554 668.133667,453.455719 
	C676.007996,440.374115 679.352478,426.059570 678.999512,410.946747 
	C678.540588,391.295959 678.067932,371.629425 676.852173,352.016113 
	C675.047180,322.896912 671.984802,293.920502 664.036987,265.673370 
	C655.177429,234.186340 642.761780,204.282837 624.252258,177.198822 
	C612.928345,160.629196 598.724731,146.851486 579.038940,141.028214 
	C548.529297,132.003189 521.875610,139.649918 499.229553,161.900726 
	C479.532715,181.253845 466.830322,204.982803 457.288483,230.392273 
	C435.977539,287.142487 426.739777,346.197601 425.535278,406.607452 
	C425.249573,420.937927 425.988678,435.242493 430.356354,449.137115 
	C437.361237,471.421295 456.336395,480.930786 479.052338,472.642822 
M1541.535889,182.994705 
	C1537.860229,158.674454 1528.465332,150.559219 1503.819580,150.659744 
	C1484.824341,150.737213 1465.829956,151.105576 1446.834961,151.123260 
	C1400.849365,151.166061 1354.861450,150.792969 1308.879517,151.182297 
	C1289.729736,151.344437 1277.662720,160.968719 1274.231567,178.061966 
	C1272.731689,185.533524 1271.730225,193.253326 1271.745483,200.857895 
	C1271.894409,275.342102 1272.252075,349.826080 1272.737305,424.308960 
	C1272.779175,430.749847 1273.612305,437.304291 1275.023560,443.593811 
	C1278.339111,458.372040 1286.888794,465.864197 1301.957275,467.413177 
	C1309.398438,468.178070 1316.924438,468.410400 1324.410889,468.394592 
	C1369.402588,468.299591 1414.394409,468.117462 1459.385376,467.845215 
	C1476.530029,467.741455 1493.695312,467.762299 1510.808472,466.889313 
	C1521.925537,466.322174 1532.693604,462.847748 1538.131592,452.150970 
	C1541.348511,445.823578 1543.391724,438.307037 1543.724365,431.220215 
	C1544.613770,412.266479 1544.665039,393.250732 1544.389160,374.269196 
	C1543.467285,310.808105 1545.776611,247.300293 1541.535889,182.994705 
z"/>
<path fill="#122E56" opacity="1.000000" stroke="none" 
	d="
M926.704163,267.288055 
	C929.425964,275.129333 932.584595,282.850342 934.783691,290.835571 
	C940.313538,310.915253 941.109314,331.597046 941.644531,352.263428 
	C941.981018,365.256073 941.864990,378.261261 942.262207,391.251343 
	C943.122742,419.393951 944.225281,447.529083 945.108032,475.671112 
	C945.220093,479.243774 946.308655,480.693115 950.105652,480.469543 
	C963.576965,479.676453 977.086853,479.454376 990.539551,478.447418 
	C1016.145020,476.530823 1041.505493,477.987518 1066.605103,483.290741 
	C1104.950439,491.392578 1128.457520,514.926941 1134.642456,554.378113 
	C1140.891357,594.239197 1141.512817,634.450195 1133.402832,674.225891 
	C1127.748047,701.960938 1116.376587,727.586731 1099.279541,750.213745 
	C1077.899780,778.508911 1053.987061,804.355713 1024.075195,824.125305 
	C997.144653,841.924500 967.851624,851.911560 935.509216,853.115540 
	C908.369934,854.125793 881.253174,855.739258 854.114563,856.771912 
	C818.264587,858.135986 783.417725,853.107605 749.683899,840.406372 
	C713.628784,826.830994 687.033325,802.699036 668.062378,769.541992 
	C661.033203,757.256592 654.006653,744.931396 646.213074,733.130127 
	C631.754578,711.236755 611.346252,695.663269 589.268982,682.261414 
	C571.217957,671.303711 553.972229,659.639343 541.002869,642.507629 
	C516.392456,609.998962 512.402649,564.438049 534.678528,528.949036 
	C545.609863,511.533630 562.450928,501.499390 581.141052,494.302490 
	C603.601379,485.653931 626.919983,485.130066 650.067688,489.661804 
	C669.288086,493.424744 688.080750,499.374512 707.057617,504.375916 
	C709.442627,505.004456 711.794861,505.757355 714.566223,506.571259 
	C714.757202,505.398132 714.987915,504.658264 714.981995,503.920288 
	C714.480103,441.271729 713.941711,378.623444 713.455139,315.974731 
	C713.347595,302.126770 713.535339,288.284607 717.989258,274.938263 
	C719.094666,271.625977 720.418274,268.386505 721.966919,264.535156 
	C728.319702,255.882156 733.641296,247.137527 740.530334,239.880981 
	C752.594360,227.173370 767.805908,218.884140 784.454590,212.442719 
	C786.753296,211.854385 788.618896,211.223129 790.532410,210.818039 
	C816.274963,205.368423 841.807678,204.438507 867.029663,214.748657 
	C885.251648,221.493088 900.057922,232.632431 912.377136,246.985199 
	C917.747620,253.242233 921.963745,260.490143 926.704163,267.288055 
M797.674622,306.281769 
	C792.951294,314.759705 790.713318,323.745331 790.960266,333.551117 
	C791.673218,361.870148 792.060486,390.197388 792.583496,418.521210 
	C793.577148,472.336182 794.467590,526.153442 795.638733,579.964600 
	C795.992981,596.240356 795.414490,612.220703 789.227356,627.612732 
	C781.002808,648.073242 762.608032,660.927002 742.230469,660.026611 
	C727.215088,659.363220 716.509644,649.543823 714.880554,634.622559 
	C714.413330,630.343262 714.417480,625.969360 714.657349,621.664001 
	C715.361511,609.025024 716.166565,596.388245 717.215210,583.774109 
	C717.513123,580.190430 716.246277,578.639465 712.953796,577.860535 
	C704.207275,575.791382 695.585022,573.090576 686.760010,571.481812 
	C666.588074,567.804382 646.320435,566.835876 626.389404,572.867676 
	C614.067383,576.596680 609.662964,585.800476 615.967224,596.869934 
	C620.741272,605.252563 627.223328,612.939697 634.083984,619.797058 
	C647.034302,632.741394 661.022583,644.640076 674.186035,657.379944 
	C697.277649,679.728516 714.289490,706.638611 730.649719,733.992676 
	C741.156616,751.559998 752.988647,768.054993 773.634644,774.483276 
	C785.814087,778.275391 798.425903,781.644775 811.063599,782.805176 
	C840.580322,785.515320 870.207886,787.651306 899.831543,788.402771 
	C936.349304,789.329102 968.579407,777.167908 996.650757,753.412476 
	C1010.465149,741.722046 1020.882690,727.403381 1031.610962,713.212402 
	C1042.136230,699.289795 1049.456177,684.003174 1050.972656,666.334351 
	C1052.226074,651.730835 1053.917603,637.149902 1054.637695,622.520752 
	C1055.135376,612.410034 1055.031128,602.154358 1053.919434,592.104614 
	C1051.790161,572.854919 1041.945435,563.043701 1022.844971,559.809753 
	C1019.081909,559.172668 1015.238770,558.785034 1011.424438,558.713013 
	C994.764465,558.398621 978.101379,558.097412 961.439697,558.109009 
	C955.645874,558.113037 949.812195,558.755066 944.067627,559.592529 
	C931.380127,561.442200 918.782166,563.957642 906.065735,565.545044 
	C889.674805,567.591187 876.765442,560.005310 871.675537,545.247314 
	C869.644104,539.357056 868.386353,532.942810 868.187012,526.721985 
	C867.306763,499.245117 866.768372,471.753998 866.428345,444.264008 
	C865.935730,404.441711 865.746948,364.615692 865.340027,324.792175 
	C865.306458,321.501434 865.240295,317.973358 864.096863,314.971680 
	C858.322693,299.813873 846.308105,292.657593 830.916565,290.588379 
	C816.931580,288.708313 805.698486,293.431366 797.674622,306.281769 
z"/>
<path fill="#112D55" opacity="1.000000" stroke="none" 
	d="
M363.312683,474.350037 
	C353.100342,474.991974 343.472046,474.044006 334.573914,469.816650 
	C319.995483,462.890686 313.140778,450.264435 310.860657,434.987701 
	C307.468964,412.262939 309.198639,389.452087 310.341736,366.651123 
	C311.425598,345.030914 312.179352,323.392914 312.865997,301.755981 
	C312.936554,299.533722 311.556488,297.265381 310.849518,295.018433 
	C309.071716,296.771851 306.691803,298.218811 305.617310,300.330139 
	C300.113739,311.144501 295.667511,322.564789 289.426819,332.914093 
	C284.684967,340.777771 278.448090,348.032806 271.737915,354.349182 
	C261.215179,364.254272 236.356491,364.804352 225.492737,349.978363 
	C218.797729,340.841614 213.867599,330.997070 209.933670,320.507904 
	C208.358261,316.307373 207.127151,311.844879 204.752914,308.132507 
	C203.558884,306.265472 200.109070,304.932465 197.773651,305.061768 
	C196.475372,305.133606 194.378967,308.689484 194.340897,310.707153 
	C194.102203,323.358978 194.141373,336.024933 194.465408,348.676575 
	C195.104996,373.648865 196.351578,398.611237 196.601395,423.585175 
	C196.706161,434.058838 194.477188,444.440430 189.691330,454.037659 
	C175.334198,482.828491 136.809097,479.275848 121.569962,457.111420 
	C110.659210,441.242340 105.525665,423.490265 103.511230,404.803253 
	C101.799911,388.928192 100.659279,372.918701 100.542755,356.959351 
	C100.275169,320.309662 100.206223,283.638855 101.181679,247.006577 
	C101.848038,221.982391 105.405167,197.192291 115.667549,173.932739 
	C120.286026,163.465012 125.983925,153.482666 136.014893,147.377014 
	C151.205032,138.131073 166.534225,141.035416 181.135620,149.053726 
	C198.485519,158.581375 211.046066,173.298782 222.283936,189.186050 
	C231.419296,202.100952 240.166931,215.290024 249.295105,228.210129 
	C255.651901,237.207672 258.192139,237.104263 264.059631,227.558029 
	C273.737549,211.812408 282.556305,195.499374 292.923248,180.230789 
	C299.588348,170.414307 307.770996,161.411987 316.333832,153.142792 
	C337.721924,132.488174 368.927582,137.700974 386.743652,160.766373 
	C398.706207,176.253540 402.679718,194.227310 402.753540,213.285172 
	C402.914917,254.939819 403.116302,296.596558 402.859711,338.249756 
	C402.713135,362.049469 402.239014,385.874695 400.883759,409.629730 
	C399.990997,425.278381 396.532227,440.663788 389.087524,454.740967 
	C383.654694,465.013947 376.223694,473.009186 363.312683,474.350037 
z"/>
<path fill="#112D55" opacity="1.000000" stroke="none" 
	d="
M1010.803223,423.008972 
	C1010.602722,422.552124 1010.402283,422.095276 1010.414673,421.113617 
	C1010.354370,420.061646 1010.081177,419.534485 1009.807983,419.007324 
	C1009.555786,418.244232 1009.303589,417.481171 1009.332397,416.138092 
	C1009.339661,414.707672 1009.065857,413.857239 1008.791992,413.006836 
	C1008.563477,412.235657 1008.335022,411.464478 1008.385986,410.083954 
	C1008.415527,408.320435 1008.165710,407.166260 1007.915894,406.012085 
	C1007.573547,394.966827 1007.231201,383.921570 1007.271667,372.108215 
	C1007.765137,362.642517 1007.912842,353.944946 1007.920471,345.247284 
	C1007.921143,344.499786 1006.993347,343.751465 1006.496826,343.003510 
	C1006.394775,321.634888 1006.292725,300.266266 1006.672729,278.301758 
	C1007.435730,275.493713 1007.987427,273.276886 1007.949402,271.070221 
	C1007.805725,262.737305 1007.470581,254.407639 1007.207031,246.076767 
	C1007.244812,242.668808 1007.282593,239.260864 1007.809692,235.257721 
	C1008.272583,231.468567 1008.246155,228.274597 1008.219727,225.080643 
	C1008.250366,222.991669 1008.281067,220.902695 1008.798767,218.249725 
	C1011.688965,208.464813 1013.990234,199.215668 1016.537476,190.034744 
	C1017.837036,185.350754 1019.559631,180.783035 1021.123657,176.173813 
	C1023.179382,170.115311 1025.494995,164.132385 1027.240601,157.986725 
	C1028.049072,155.140503 1027.773071,151.986252 1027.988770,148.971649 
	C1035.418091,142.225723 1044.645508,139.039505 1054.132568,137.486801 
	C1092.520020,131.204117 1130.550293,132.246918 1167.469604,145.788620 
	C1201.058716,158.108841 1223.018188,182.077057 1235.082031,215.431580 
	C1245.937988,245.446823 1247.639648,276.623627 1246.345215,308.106842 
	C1245.235596,335.095398 1240.801758,361.452454 1230.044678,386.453003 
	C1210.624756,431.586639 1176.214722,457.707947 1128.208862,466.376129 
	C1105.295532,470.513428 1082.245972,472.216217 1059.162354,467.900970 
	C1041.248047,464.552124 1026.065430,456.748138 1016.950195,439.232758 
	C1016.093628,437.015961 1015.244751,435.510101 1014.395874,434.004242 
	C1013.972900,433.205414 1013.549866,432.406616 1013.372192,431.032532 
	C1012.679443,427.974518 1011.741333,425.491760 1010.803223,423.008972 
M1152.952393,332.438873 
	C1158.132080,304.382294 1160.509277,276.280884 1153.014648,248.263702 
	C1149.777344,236.161484 1143.879761,225.368149 1131.738770,220.205185 
	C1116.764038,213.837143 1097.069092,216.631973 1091.790283,239.236176 
	C1090.850586,243.260376 1090.248047,247.455994 1090.198853,251.580887 
	C1089.792236,285.727020 1089.353760,319.875580 1089.432861,354.022247 
	C1089.448364,360.707062 1091.261963,367.492462 1092.983521,374.037506 
	C1094.527466,379.907318 1099.321411,383.036560 1105.096558,383.865540 
	C1115.989990,385.429016 1125.538452,382.451996 1133.163086,374.217316 
	C1143.927734,362.591583 1149.170410,348.313354 1152.952393,332.438873 
z"/>
<path fill="#112D55" opacity="1.000000" stroke="none" 
	d="
M478.697937,472.803192 
	C456.336395,480.930786 437.361237,471.421295 430.356354,449.137115 
	C425.988678,435.242493 425.249573,420.937927 425.535278,406.607452 
	C426.739777,346.197601 435.977539,287.142487 457.288483,230.392273 
	C466.830322,204.982803 479.532715,181.253845 499.229553,161.900726 
	C521.875610,139.649918 548.529297,132.003189 579.038940,141.028214 
	C598.724731,146.851486 612.928345,160.629196 624.252258,177.198822 
	C642.761780,204.282837 655.177429,234.186340 664.036987,265.673370 
	C671.984802,293.920502 675.047180,322.896912 676.852173,352.016113 
	C678.067932,371.629425 678.540588,391.295959 678.999512,410.946747 
	C679.352478,426.059570 676.007996,440.374115 668.133667,453.455719 
	C655.872803,473.824554 627.123718,480.592773 609.481018,467.073883 
	C601.679321,461.095703 596.416016,452.895142 594.397827,443.481201 
	C591.229309,428.701050 589.415161,413.635498 586.739746,398.742493 
	C585.479187,391.725464 583.843811,384.742218 581.835022,377.903290 
	C580.099792,371.995911 575.704590,368.988098 569.419800,369.016357 
	C559.587585,369.060577 549.755066,369.056488 539.923340,369.149017 
	C529.849060,369.243835 522.304932,373.668304 519.359680,383.440582 
	C515.094666,397.591522 511.630035,411.983856 507.834564,426.276001 
	C504.271393,439.693329 500.440430,453.070801 490.743347,463.567780 
	C487.441162,467.142303 482.982544,469.648468 478.697937,472.803192 
M562.644531,225.859619 
	C557.972839,221.361557 554.686035,221.319702 550.564636,226.146454 
	C548.644287,228.395447 547.025208,231.006256 545.745239,233.680695 
	C536.480286,253.039505 532.557678,273.698944 531.230408,294.943390 
	C530.776367,302.210602 532.972290,305.168518 540.049316,307.316467 
	C550.105774,310.368683 560.093994,309.871918 569.946228,306.417450 
	C576.323914,304.181244 578.631348,301.220978 578.062012,294.433075 
	C577.090637,282.851776 575.956177,271.256744 574.175903,259.778290 
	C572.366760,248.114075 569.684937,236.586899 562.644531,225.859619 
z"/>
<path fill="#598FF6" opacity="1.000000" stroke="none" 
	d="
M927.043274,267.127747 
	C921.963745,260.490143 917.747620,253.242233 912.377136,246.985199 
	C900.057922,232.632431 885.251648,221.493088 867.062500,214.335175 
	C875.159912,194.013199 869.809875,172.637741 853.399231,159.815048 
	C837.275146,147.216415 814.440125,147.102493 798.221985,159.539688 
	C782.157288,171.859222 776.362732,193.506042 784.043823,212.504944 
	C767.805908,218.884140 752.594360,227.173370 740.530334,239.880981 
	C733.641296,247.137527 728.319702,255.882156 722.049988,264.161987 
	C712.759399,250.184662 707.847412,234.475067 706.291992,217.932114 
	C702.764893,180.418808 714.194946,147.794464 740.802002,121.077530 
	C783.610901,78.091965 854.613525,74.875229 901.162109,113.561737 
	C932.365723,139.495087 946.880127,173.042542 944.769897,213.448410 
	C943.765930,232.671921 937.972046,250.685150 927.043274,267.127747 
z"/>
<path fill="#1F395F" opacity="1.000000" stroke="none" 
	d="
M1541.619507,183.439758 
	C1545.776611,247.300293 1543.467285,310.808105 1544.389160,374.269196 
	C1544.665039,393.250732 1544.613770,412.266479 1543.724365,431.220215 
	C1543.391724,438.307037 1541.348511,445.823578 1538.131592,452.150970 
	C1532.693604,462.847748 1521.925537,466.322174 1510.808472,466.889313 
	C1493.695312,467.762299 1476.530029,467.741455 1459.385376,467.845215 
	C1414.394409,468.117462 1369.402588,468.299591 1324.410889,468.394592 
	C1316.924438,468.410400 1309.398438,468.178070 1301.957275,467.413177 
	C1286.888794,465.864197 1278.339111,458.372040 1275.023560,443.593811 
	C1273.612305,437.304291 1272.779175,430.749847 1272.737305,424.308960 
	C1272.252075,349.826080 1271.894409,275.342102 1271.745483,200.857895 
	C1271.730225,193.253326 1272.731689,185.533524 1274.231567,178.061966 
	C1277.662720,160.968719 1289.729736,151.344437 1308.879517,151.182297 
	C1354.861450,150.792969 1400.849365,151.166061 1446.834961,151.123260 
	C1465.829956,151.105576 1484.824341,150.737213 1503.819580,150.659744 
	C1528.465332,150.559219 1537.860229,158.674454 1541.619507,183.439758 
M1293.660278,166.976151 
	C1288.233887,170.082932 1285.047852,174.909897 1284.065918,180.902222 
	C1283.101929,186.785950 1282.362183,192.783997 1282.350464,198.733490 
	C1282.279297,235.048309 1282.403687,271.363739 1282.539673,307.678680 
	C1282.695557,349.327118 1282.850830,390.975861 1283.170532,432.623230 
	C1283.306030,450.273285 1291.101196,457.904358 1308.523682,458.105072 
	C1309.523193,458.116608 1310.522705,458.130615 1311.522217,458.126648 
	C1360.999268,457.930450 1410.476440,457.757812 1459.953247,457.519684 
	C1475.445068,457.445099 1490.943848,457.440491 1506.425537,456.958832 
	C1524.692993,456.390472 1533.819214,446.795776 1534.058350,428.650330 
	C1534.148193,421.825928 1534.395264,415.001465 1534.365723,408.177917 
	C1534.064331,338.541931 1533.758911,268.905914 1533.324097,199.270706 
	C1533.284668,192.965317 1532.884521,186.560028 1531.695068,180.385422 
	C1529.284668,167.871567 1523.118408,160.089951 1509.440796,161.163300 
	C1507.950439,161.280258 1506.443237,161.178680 1504.943848,161.186035 
	C1441.638916,161.496506 1378.334106,161.844101 1315.028931,162.069794 
	C1307.724365,162.095840 1300.790649,163.163620 1293.660278,166.976151 
z"/>
<path fill="#0C2953" opacity="1.000000" stroke="none" 
	d="
M1027.658691,149.046631 
	C1027.773071,151.986252 1028.049072,155.140503 1027.240601,157.986725 
	C1025.494995,164.132385 1023.179382,170.115311 1021.123657,176.173813 
	C1019.559631,180.783035 1017.837036,185.350754 1016.537476,190.034744 
	C1013.990234,199.215668 1011.688965,208.464813 1008.979431,217.838425 
	C1009.859497,199.294067 1011.388611,180.592438 1018.127808,162.930634 
	C1020.050781,157.891113 1024.200195,153.701141 1027.658691,149.046631 
z"/>
<path fill="#0C2953" opacity="1.000000" stroke="none" 
	d="
M1007.045776,246.441498 
	C1007.470581,254.407639 1007.805725,262.737305 1007.949402,271.070221 
	C1007.987427,273.276886 1007.435730,275.493713 1006.801025,277.849060 
	C1006.592957,267.596893 1006.738647,257.201569 1007.045776,246.441498 
z"/>
<path fill="#0C2953" opacity="1.000000" stroke="none" 
	d="
M1006.394531,343.461487 
	C1006.993347,343.751465 1007.921143,344.499786 1007.920471,345.247284 
	C1007.912842,353.944946 1007.765137,362.642517 1007.381226,371.647888 
	C1006.835999,362.610291 1006.564087,353.264862 1006.394531,343.461487 
z"/>
<path fill="#0C2953" opacity="1.000000" stroke="none" 
	d="
M1008.058838,225.435654 
	C1008.246155,228.274597 1008.272583,231.468567 1007.981140,234.826523 
	C1007.741577,231.923904 1007.819763,228.857285 1008.058838,225.435654 
z"/>
<path fill="#0C2953" opacity="1.000000" stroke="none" 
	d="
M1010.735596,423.352539 
	C1011.741333,425.491760 1012.679443,427.974518 1013.406616,430.690796 
	C1012.353027,428.514923 1011.510498,426.105530 1010.735596,423.352539 
z"/>
<path fill="#0C2953" opacity="1.000000" stroke="none" 
	d="
M1014.404785,434.333038 
	C1015.244751,435.510101 1016.093628,437.015961 1016.927856,438.890015 
	C1016.080078,437.726074 1015.246887,436.193939 1014.404785,434.333038 
z"/>
<path fill="#0C2953" opacity="1.000000" stroke="none" 
	d="
M1007.798523,406.331146 
	C1008.165710,407.166260 1008.415527,408.320435 1008.467407,409.682678 
	C1008.073425,408.810577 1007.877258,407.730377 1007.798523,406.331146 
z"/>
<path fill="#0C2953" opacity="1.000000" stroke="none" 
	d="
M1008.683044,413.297211 
	C1009.065857,413.857239 1009.339661,414.707672 1009.414551,415.735535 
	C1009.001770,415.137848 1008.787903,414.362732 1008.683044,413.297211 
z"/>
<path fill="#0C2953" opacity="1.000000" stroke="none" 
	d="
M1009.720093,419.256927 
	C1010.081177,419.534485 1010.354370,420.061646 1010.467651,420.734497 
	C1010.082581,420.422333 1009.857361,419.964417 1009.720093,419.256927 
z"/>
<path fill="#FEFEFE" opacity="1.000000" stroke="none" 
	d="
M797.851929,305.962219 
	C805.698486,293.431366 816.931580,288.708313 830.916565,290.588379 
	C846.308105,292.657593 858.322693,299.813873 864.096863,314.971680 
	C865.240295,317.973358 865.306458,321.501434 865.340027,324.792175 
	C865.746948,364.615692 865.935730,404.441711 866.428345,444.264008 
	C866.768372,471.753998 867.306763,499.245117 868.187012,526.721985 
	C868.386353,532.942810 869.644104,539.357056 871.675537,545.247314 
	C876.765442,560.005310 889.674805,567.591187 906.065735,565.545044 
	C918.782166,563.957642 931.380127,561.442200 944.067627,559.592529 
	C949.812195,558.755066 955.645874,558.113037 961.439697,558.109009 
	C978.101379,558.097412 994.764465,558.398621 1011.424438,558.713013 
	C1015.238770,558.785034 1019.081909,559.172668 1022.844971,559.809753 
	C1041.945435,563.043701 1051.790161,572.854919 1053.919434,592.104614 
	C1055.031128,602.154358 1055.135376,612.410034 1054.637695,622.520752 
	C1053.917603,637.149902 1052.226074,651.730835 1050.972656,666.334351 
	C1049.456177,684.003174 1042.136230,699.289795 1031.610962,713.212402 
	C1020.882690,727.403381 1010.465149,741.722046 996.650757,753.412476 
	C968.579407,777.167908 936.349304,789.329102 899.831543,788.402771 
	C870.207886,787.651306 840.580322,785.515320 811.063599,782.805176 
	C798.425903,781.644775 785.814087,778.275391 773.634644,774.483276 
	C752.988647,768.054993 741.156616,751.559998 730.649719,733.992676 
	C714.289490,706.638611 697.277649,679.728516 674.186035,657.379944 
	C661.022583,644.640076 647.034302,632.741394 634.083984,619.797058 
	C627.223328,612.939697 620.741272,605.252563 615.967224,596.869934 
	C609.662964,585.800476 614.067383,576.596680 626.389404,572.867676 
	C646.320435,566.835876 666.588074,567.804382 686.760010,571.481812 
	C695.585022,573.090576 704.207275,575.791382 712.953796,577.860535 
	C716.246277,578.639465 717.513123,580.190430 717.215210,583.774109 
	C716.166565,596.388245 715.361511,609.025024 714.657349,621.664001 
	C714.417480,625.969360 714.413330,630.343262 714.880554,634.622559 
	C716.509644,649.543823 727.215088,659.363220 742.230469,660.026611 
	C762.608032,660.927002 781.002808,648.073242 789.227356,627.612732 
	C795.414490,612.220703 795.992981,596.240356 795.638733,579.964600 
	C794.467590,526.153442 793.577148,472.336182 792.583496,418.521210 
	C792.060486,390.197388 791.673218,361.870148 790.960266,333.551117 
	C790.713318,323.745331 792.951294,314.759705 797.851929,305.962219 
z"/>
<path fill="#FAFBFD" opacity="1.000000" stroke="none" 
	d="
M784.454590,212.442719 
	C776.362732,193.506042 782.157288,171.859222 798.221985,159.539688 
	C814.440125,147.102493 837.275146,147.216415 853.399231,159.815048 
	C869.809875,172.637741 875.159912,194.013199 866.841858,214.068527 
	C841.807678,204.438507 816.274963,205.368423 790.532410,210.818039 
	C788.618896,211.223129 786.753296,211.854385 784.454590,212.442719 
z"/>
<path fill="#FCFCFD" opacity="1.000000" stroke="none" 
	d="
M1152.875977,332.851318 
	C1149.170410,348.313354 1143.927734,362.591583 1133.163086,374.217316 
	C1125.538452,382.451996 1115.989990,385.429016 1105.096558,383.865540 
	C1099.321411,383.036560 1094.527466,379.907318 1092.983521,374.037506 
	C1091.261963,367.492462 1089.448364,360.707062 1089.432861,354.022247 
	C1089.353760,319.875580 1089.792236,285.727020 1090.198853,251.580887 
	C1090.248047,247.455994 1090.850586,243.260376 1091.790283,239.236176 
	C1097.069092,216.631973 1116.764038,213.837143 1131.738770,220.205185 
	C1143.879761,225.368149 1149.777344,236.161484 1153.014648,248.263702 
	C1160.509277,276.280884 1158.132080,304.382294 1152.875977,332.851318 
z"/>
<path fill="#FBFBFC" opacity="1.000000" stroke="none" 
	d="
M562.856079,226.156586 
	C569.684937,236.586899 572.366760,248.114075 574.175903,259.778290 
	C575.956177,271.256744 577.090637,282.851776 578.062012,294.433075 
	C578.631348,301.220978 576.323914,304.181244 569.946228,306.417450 
	C560.093994,309.871918 550.105774,310.368683 540.049316,307.316467 
	C532.972290,305.168518 530.776367,302.210602 531.230408,294.943390 
	C532.557678,273.698944 536.480286,253.039505 545.745239,233.680695 
	C547.025208,231.006256 548.644287,228.395447 550.564636,226.146454 
	C554.686035,221.319702 557.972839,221.361557 562.856079,226.156586 
z"/>
<path fill="#FDFDFD" opacity="1.000000" stroke="none" 
	d="
M1293.984131,166.797028 
	C1300.790649,163.163620 1307.724365,162.095840 1315.028931,162.069794 
	C1378.334106,161.844101 1441.638916,161.496506 1504.943848,161.186035 
	C1506.443237,161.178680 1507.950439,161.280258 1509.440796,161.163300 
	C1523.118408,160.089951 1529.284668,167.871567 1531.695068,180.385422 
	C1532.884521,186.560028 1533.284668,192.965317 1533.324097,199.270706 
	C1533.758911,268.905914 1534.064331,338.541931 1534.365723,408.177917 
	C1534.395264,415.001465 1534.148193,421.825928 1534.058350,428.650330 
	C1533.819214,446.795776 1524.692993,456.390472 1506.425537,456.958832 
	C1490.943848,457.440491 1475.445068,457.445099 1459.953247,457.519684 
	C1410.476440,457.757812 1360.999268,457.930450 1311.522217,458.126648 
	C1310.522705,458.130615 1309.523193,458.116608 1308.523682,458.105072 
	C1291.101196,457.904358 1283.306030,450.273285 1283.170532,432.623230 
	C1282.850830,390.975861 1282.695557,349.327118 1282.539673,307.678680 
	C1282.403687,271.363739 1282.279297,235.048309 1282.350464,198.733490 
	C1282.362183,192.783997 1283.101929,186.785950 1284.065918,180.902222 
	C1285.047852,174.909897 1288.233887,170.082932 1293.984131,166.797028 
M1323.234497,286.777405 
	C1322.181641,288.272644 1321.037476,289.712372 1320.089844,291.271606 
	C1307.374756,312.191711 1318.915283,340.557068 1342.034546,345.258179 
	C1358.879150,348.683411 1375.037109,339.708557 1381.750732,323.197815 
	C1388.097412,307.589600 1382.182495,288.179443 1368.407593,279.411682 
	C1353.810547,270.120605 1336.123657,272.817383 1323.234497,286.777405 
M1470.680542,347.329132 
	C1484.818481,341.450531 1492.529175,330.681732 1493.608398,315.609253 
	C1494.614624,301.553467 1489.106689,290.140167 1477.052856,282.562317 
	C1463.741821,274.194031 1446.478027,276.479858 1435.242432,287.599823 
	C1423.180298,299.537811 1420.829712,318.667145 1429.649292,333.118134 
	C1438.116943,346.992737 1453.947266,352.707489 1470.680542,347.329132 
M1321.707886,196.298157 
	C1320.276855,198.921570 1318.588989,201.438950 1317.454834,204.184982 
	C1307.443115,228.428055 1326.091797,255.363068 1351.465454,253.404068 
	C1367.559570,252.161514 1380.619385,240.212036 1383.610229,223.992599 
	C1386.697998,207.246857 1378.630493,191.304489 1363.547485,184.345840 
	C1349.369873,177.804901 1333.257690,182.221390 1321.707886,196.298157 
M1319.430420,383.057068 
	C1318.784058,384.407654 1318.071411,385.730927 1317.501221,387.112915 
	C1307.982056,410.180328 1324.104370,436.120270 1348.267578,436.635498 
	C1365.223877,436.997040 1379.959229,424.943146 1383.477905,407.832184 
	C1387.048462,390.469910 1378.309937,373.507233 1362.411255,366.938721 
	C1346.902954,360.531464 1329.905151,366.699127 1319.430420,383.057068 
z"/>
<path fill="#163159" opacity="1.000000" stroke="none" 
	d="
M1323.464111,286.503418 
	C1336.123657,272.817383 1353.810547,270.120605 1368.407593,279.411682 
	C1382.182495,288.179443 1388.097412,307.589600 1381.750732,323.197815 
	C1375.037109,339.708557 1358.879150,348.683411 1342.034546,345.258179 
	C1318.915283,340.557068 1307.374756,312.191711 1320.089844,291.271606 
	C1321.037476,289.712372 1322.181641,288.272644 1323.464111,286.503418 
z"/>
<path fill="#163159" opacity="1.000000" stroke="none" 
	d="
M1470.327393,347.502258 
	C1453.947266,352.707489 1438.116943,346.992737 1429.649292,333.118134 
	C1420.829712,318.667145 1423.180298,299.537811 1435.242432,287.599823 
	C1446.478027,276.479858 1463.741821,274.194031 1477.052856,282.562317 
	C1489.106689,290.140167 1494.614624,301.553467 1493.608398,315.609253 
	C1492.529175,330.681732 1484.818481,341.450531 1470.327393,347.502258 
z"/>
<path fill="#163158" opacity="1.000000" stroke="none" 
	d="
M1321.911255,196.000519 
	C1333.257690,182.221390 1349.369873,177.804901 1363.547485,184.345840 
	C1378.630493,191.304489 1386.697998,207.246857 1383.610229,223.992599 
	C1380.619385,240.212036 1367.559570,252.161514 1351.465454,253.404068 
	C1326.091797,255.363068 1307.443115,228.428055 1317.454834,204.184982 
	C1318.588989,201.438950 1320.276855,198.921570 1321.911255,196.000519 
z"/>
<path fill="#163159" opacity="1.000000" stroke="none" 
	d="
M1319.607910,382.731323 
	C1329.905151,366.699127 1346.902954,360.531464 1362.411255,366.938721 
	C1378.309937,373.507233 1387.048462,390.469910 1383.477905,407.832184 
	C1379.959229,424.943146 1365.223877,436.997040 1348.267578,436.635498 
	C1324.104370,436.120270 1307.982056,410.180328 1317.501221,387.112915 
	C1318.071411,385.730927 1318.784058,384.407654 1319.607910,382.731323 
z"/>
</svg>